<svg width="1502" height="1535" viewBox="0 0 1502 1535" fill="none" xmlns="http://www.w3.org/2000/svg">
<path fill-rule="evenodd" clip-rule="evenodd" d="M1500.49 944.143L1326.69 767.755L1253.31 841.215L1252.6 841.922L1251.9 841.21L1175.62 763.793L1080.56 858.958L1162.66 942.281L1163.36 942.993L1162.66 943.701L1086.85 1019.59L1177.85 1111.94L1251.23 1038.48L1251.93 1037.78L1252.64 1038.49L1328.92 1115.91L1500.49 944.143ZM1174.92 763.081L1079.86 858.246L988.862 765.894L1083.92 670.729L1174.92 763.081ZM1083.22 670.017L988.161 765.182L911.878 687.764L911.176 687.051L910.469 687.759L837.092 761.218L746.097 668.868L821.9 592.979L822.607 592.272L821.905 591.559L746.619 515.153L839.25 422.417L914.534 498.822L915.236 499.535L915.943 498.827L991.747 422.937L1083.74 516.3L1007.94 592.19L1007.23 592.898L1007.93 593.61L1083.22 670.017ZM745.917 514.44L838.548 421.705L746.549 328.336L653.918 421.071L745.917 514.44ZM653.216 420.359L745.847 327.624L670.566 251.222L669.864 250.51L670.571 249.802L746.375 173.913L578.389 3.42649L409.247 172.759L484.534 249.166L485.235 249.879L484.529 250.586L408.725 326.475L500.724 419.844L576.528 343.955L577.235 343.247L577.937 343.959L653.216 420.359ZM577.687 2.71418L408.545 172.047L240.565 1.56625L239.863 0.853941L239.156 1.56145L-6.49574 247.491L-7.20251 248.199L-6.50059 248.911L161.479 419.391L-7.66368 588.725L-8.37044 589.433L-7.66852 590.145L159.315 759.614L-12.2538 931.377L-12.9606 932.084L-12.2587 932.796L161.543 1109.19L-10.0251 1280.95L-10.7319 1281.66L-10.03 1282.37L233.938 1529.97L234.64 1530.68L235.347 1529.97L404.49 1360.64L572.478 1531.13L573.18 1531.84L573.886 1531.13L743.028 1361.8L911.009 1532.28L911.711 1532.99L912.417 1532.28L1081.56 1362.95L1249.54 1533.43L1250.24 1534.14L1250.95 1533.44L1496.6 1287.51L1497.31 1286.8L1496.6 1286.09L1329.62 1116.62L1501.19 944.855L1501.9 944.148L1501.19 943.435L1327.39 767.047L1498.96 595.285L1499.67 594.578L1498.97 593.865L1330.99 423.385L1500.13 254.05L1500.84 253.343L1500.13 252.631L1256.17 5.03062L1255.46 4.3183L1254.76 5.02581L1085.61 174.36L917.631 3.87772L916.93 3.16541L916.223 3.87292L747.082 173.205L579.096 2.71899L578.394 2.00668L577.687 2.71418ZM405.197 1359.93L573.184 1530.42L742.327 1361.09L667.04 1284.68L666.338 1283.97L667.045 1283.26L742.849 1207.37L651.851 1115.02L578.474 1188.48L577.767 1189.18L577.065 1188.47L500.785 1111.06L405.725 1206.22L481.004 1282.62L481.706 1283.34L480.999 1284.04L405.197 1359.93ZM405.023 1205.51L500.083 1110.34L409.078 1017.98L314.018 1113.15L405.023 1205.51ZM313.316 1112.44L408.376 1017.27L326.281 933.955L325.579 933.243L326.286 932.536L402.088 856.648L311.085 764.29L237.709 837.75L237.002 838.457L236.3 837.745L160.017 760.327L-11.5519 932.089L162.25 1108.48L235.627 1035.02L236.334 1034.31L237.036 1035.02L313.316 1112.44ZM233.398 685.447L160.022 758.907L-6.96176 589.438L162.181 420.104L237.468 496.511L238.17 497.223L238.876 496.516L314.679 420.628L406.678 513.996L330.876 589.884L330.169 590.592L330.871 591.304L406.15 667.703L311.09 762.871L234.807 685.452L234.105 684.74L233.398 685.447ZM402.795 855.94L311.792 763.583L406.852 668.416L497.855 760.773L402.795 855.94ZM485.591 939.969L403.497 856.652L498.556 761.485L574.839 838.904L575.541 839.616L576.248 838.909L649.625 765.449L740.62 857.799L664.817 933.688L664.11 934.396L664.812 935.108L746.914 1018.43L651.855 1113.6L575.575 1036.18L574.873 1035.47L574.166 1036.18L500.79 1109.64L409.784 1017.28L485.587 941.389L486.293 940.681L485.591 939.969ZM239.934 1187.32L313.311 1113.86L404.317 1206.22L328.514 1282.11L327.807 1282.81L328.509 1283.53L403.788 1359.93L234.645 1529.26L-9.32322 1281.66L162.245 1109.9L238.526 1187.31L239.228 1188.03L239.934 1187.32ZM162.952 1109.19L239.232 1186.61L312.609 1113.15L236.329 1035.73L162.952 1109.19ZM404.495 1359.22L480.298 1283.33L405.018 1206.93L329.216 1282.82L404.495 1359.22ZM743.735 1361.09L911.716 1531.57L1080.86 1362.24L1005.57 1285.83L1004.87 1285.12L1005.58 1284.41L1081.38 1208.52L990.382 1116.17L917.005 1189.63L916.298 1190.34L915.596 1189.63L839.316 1112.21L744.257 1207.38L819.543 1283.78L820.245 1284.49L819.539 1285.2L743.735 1361.09ZM743.555 1206.66L838.614 1111.5L747.616 1019.14L652.557 1114.31L743.555 1206.66ZM484.885 940.677L409.082 1016.56L326.988 933.248L402.79 857.36L484.885 940.677ZM234.1 686.159L310.383 763.578L237.007 837.038L160.724 759.619L234.1 686.159ZM743.033 1360.38L818.837 1284.49L743.55 1208.08L667.747 1283.97L743.033 1360.38ZM651.149 1114.31L577.772 1187.77L501.492 1110.35L574.868 1036.89L651.149 1114.31ZM839.32 1110.79L748.323 1018.44L824.126 942.548L824.833 941.84L824.131 941.128L742.029 857.804L837.087 762.638L913.37 840.057L914.072 840.769L914.779 840.062L988.156 766.602L1079.15 858.953L1003.35 934.843L1002.64 935.55L1003.34 936.263L1085.44 1019.59L990.387 1114.75L914.106 1037.33L913.404 1036.62L912.697 1037.33L839.32 1110.79ZM650.332 764.742L741.327 857.092L836.385 761.926L745.39 669.576L650.332 764.742ZM744.688 668.864L649.63 764.029L573.347 686.611L572.645 685.898L571.938 686.606L498.561 760.066L407.559 667.708L483.361 591.82L484.068 591.113L483.366 590.401L408.087 514.001L500.719 421.264L575.999 497.664L576.701 498.376L577.407 497.668L653.211 421.779L745.21 515.148L669.407 591.037L668.7 591.745L669.402 592.457L744.688 668.864ZM407.385 513.289L500.018 420.551L408.018 327.183L315.386 419.92L407.385 513.289ZM314.684 419.208L407.316 326.471L332.03 250.064L331.328 249.351L332.035 248.644L407.839 172.754L239.858 2.27376L-5.79382 248.203L162.186 418.684L237.989 342.796L238.695 342.088L239.397 342.801L314.684 419.208ZM406.857 666.996L482.659 591.108L407.38 514.709L331.578 590.596L406.857 666.996ZM313.977 419.915L238.69 343.508L162.888 419.396L238.175 495.803L313.977 419.915ZM823.424 941.836L747.621 1017.72L665.519 934.401L741.322 858.511L823.424 941.836ZM575.546 838.196L648.923 764.737L572.64 687.318L499.263 760.778L575.546 838.196ZM839.255 420.997L747.255 327.629L823.06 251.739L823.766 251.031L823.064 250.319L747.783 173.918L916.925 4.58523L1084.91 175.068L1009.1 250.955L1008.4 251.663L1009.1 252.375L1084.38 328.78L991.752 421.517L916.467 345.112L915.766 344.4L915.059 345.107L839.255 420.997ZM332.737 249.356L408.541 173.467L483.827 249.874L408.023 325.763L332.737 249.356ZM745.395 668.156L821.198 592.267L745.912 515.86L670.108 591.749L745.395 668.156ZM652.509 421.067L577.23 344.667L501.426 420.556L576.705 496.956L652.509 421.067ZM822.358 251.026L746.553 326.916L671.273 250.515L747.077 174.625L822.358 251.026ZM1082.27 1362.24L1250.25 1532.72L1495.9 1286.8L1328.91 1117.32L1255.54 1190.78L1254.83 1191.49L1254.13 1190.78L1177.85 1113.36L1082.79 1208.53L1158.07 1284.93L1158.78 1285.65L1158.07 1286.35L1082.27 1362.24ZM1082.09 1207.82L1177.14 1112.65L1086.15 1020.3L991.088 1115.46L1082.09 1207.82ZM1081.56 1361.53L1157.37 1285.64L1082.08 1209.23L1006.28 1285.12L1081.56 1361.53ZM989.68 1115.46L913.399 1038.04L840.022 1111.5L916.303 1188.92L989.68 1115.46ZM1249.7 689.626L1325.98 767.043L1252.61 840.502L1176.33 763.085L1249.7 689.626ZM1004.05 935.555L1079.85 859.665L1161.96 942.988L1086.15 1018.88L1004.05 935.555ZM914.077 839.349L837.794 761.931L911.171 688.471L987.454 765.89L914.077 839.349ZM1254.83 1190.07L1178.55 1112.65L1251.93 1039.2L1328.21 1116.61L1254.83 1190.07ZM1498.26 594.573L1326.69 766.335L1250.41 688.918L1249.71 688.206L1249 688.913L1175.62 762.373L1084.63 670.022L1160.43 594.132L1161.14 593.425L1160.44 592.712L1085.15 516.305L1177.78 423.568L1253.07 499.975L1253.77 500.687L1254.48 499.98L1330.28 424.092L1498.26 594.573ZM992.454 422.23L1084.45 515.593L1177.08 422.856L1085.09 329.493L992.454 422.23ZM1083.92 669.31L1159.73 593.42L1084.44 517.013L1008.64 592.902L1083.92 669.31ZM839.956 421.71L915.241 498.115L991.045 422.225L915.761 345.82L839.956 421.71ZM1177.79 422.148L1085.79 328.785L1161.6 252.897L1162.3 252.19L1161.6 251.478L1086.32 175.073L1255.46 5.73812L1499.43 253.338L1330.28 422.673L1255 346.265L1254.3 345.553L1253.59 346.261L1177.79 422.148ZM1009.81 251.668L1085.61 175.78L1160.89 252.185L1085.09 328.073L1009.81 251.668ZM1329.58 423.38L1254.29 346.973L1178.49 422.86L1253.78 499.268L1329.58 423.38Z" fill="url(#paint0_linear_270_2)" fill-opacity="0.5"/>
<defs>
<linearGradient id="paint0_linear_270_2" x1="1501.74" y1="1530.56" x2="-23.6821" y2="16.5713" gradientUnits="userSpaceOnUse">
<stop stop-color="#DE922F"/>
<stop offset="1" stop-color="#784F19"/>
</linearGradient>
</defs>
</svg>
