<svg width="301" height="301" viewBox="0 0 301 301" fill="none" xmlns="http://www.w3.org/2000/svg">
<path d="M150.561 0.00115337C68.365 -0.319997 0.0683555 66.4656 5.19459e-05 150.347C-0.0682516 233.621 67.2312 300.974 150.439 301.008C233.66 301.042 301.007 233.737 301 150.477C300.993 66.3631 232.519 -0.272166 150.561 0.00115337ZM285.994 204.007C279.805 219.709 271.131 233.908 259.984 246.57C246.514 261.882 230.552 273.908 212.082 282.566C201.318 287.615 190.089 291.278 178.409 293.505C174.358 294.277 170.253 294.763 166.162 295.309C162.385 295.815 158.574 295.876 154.776 296.109C150.63 296.362 146.504 296.088 142.379 295.958C139.189 295.863 136.006 295.432 132.83 295.084C125.931 294.332 119.149 292.966 112.455 291.162C100.222 287.854 88.6102 283.024 77.6407 276.669C72.4086 273.635 67.3746 270.294 62.5592 266.631C62.2109 266.365 61.8762 266.085 61.5415 265.818C61.6098 265.62 61.6235 265.49 61.6918 265.394C62.9691 263.604 62.7437 261.739 61.9855 259.839C61.7464 259.238 61.4664 258.63 61.3776 258.001C61.1454 256.368 61.4801 254.851 62.6071 253.58C63.0374 253.095 63.4745 252.617 63.8775 252.111C64.9089 250.813 65.2641 249.31 64.6903 247.765C63.7477 245.223 62.2177 243.201 59.3421 242.627C59.0621 242.572 58.7752 242.463 58.5089 242.497C57.4501 242.62 56.7261 242.135 56.1729 241.294C54.6429 238.985 52.2522 238.288 49.725 237.885C49.3015 237.816 48.8302 237.892 48.3999 237.987C47.471 238.192 46.6377 238.056 45.8659 237.488C45.6063 237.297 45.3058 237.154 45.0667 236.942C43.4616 235.521 41.5559 234.632 39.5888 233.853C39.138 233.676 38.7008 233.464 38.2637 233.252C37.2255 232.753 36.6654 232.022 36.7337 230.765C36.8635 228.53 35.8321 226.74 34.1245 225.401C32.6969 224.28 31.1669 223.269 29.6369 222.292C28.9676 221.868 28.1889 221.54 27.4171 221.356C25.4909 220.884 24.0361 219.935 23.1754 218.069C22.4651 216.525 21.5976 215.056 20.8258 213.539C20.1701 212.254 19.3709 211.093 18.0937 210.355C17.3491 209.924 17.1169 209.173 16.8437 208.469C15.1498 204.041 13.3671 199.634 11.8575 195.144C9.23469 187.369 7.47246 179.374 6.33862 171.243C5.74438 166.986 5.37554 162.708 5.06817 158.424C4.89741 156.094 5.17746 153.812 5.21161 151.509C5.23893 150.006 5.88782 148.776 7.41781 148.175C7.93692 147.97 8.42871 147.655 8.89317 147.341C10.027 146.589 10.512 145.51 10.1909 144.191C9.76062 142.448 10.4573 141 11.2496 139.579C11.7483 138.683 12.0146 138.718 12.8753 139.257C13.5173 139.661 14.2072 140.043 14.9312 140.269C16.3314 140.706 17.8204 140.153 18.3395 139.114C18.8996 138 18.5171 136.176 17.5336 135.301C17.3491 135.137 17.1579 134.994 16.9462 134.871C15.9489 134.297 15.703 133.456 15.9831 132.383C16.188 131.598 16.3724 130.812 16.5295 130.012C16.8232 128.557 16.4544 127.812 15.1498 127.143C15.0746 127.108 14.9995 127.088 14.9244 127.047C14.2482 126.678 14.0501 126.302 14.2823 125.81C14.5419 125.257 15.3888 124.908 15.9421 125.161C16.1948 125.277 16.3997 125.496 16.6456 125.632C17.1374 125.913 17.6155 126.22 18.1346 126.432C19.2275 126.883 20.2247 126.569 20.8599 125.571C21.2971 124.888 21.6591 124.163 22.0621 123.46C22.4992 122.694 23.1071 122.243 24.0429 122.353C24.4049 122.394 24.7737 122.387 25.1357 122.353C25.969 122.284 26.6521 121.895 26.9458 121.116C27.5674 119.49 28.1479 117.85 28.6602 116.189C28.9539 115.233 28.7149 114.269 28.4075 113.326C27.499 110.566 26.2969 107.949 24.4595 105.694C23.2164 104.17 23.1686 102.66 23.8585 100.945C24.2205 100.05 24.4322 99.0931 24.7123 98.157C24.7601 97.9999 24.7942 97.8427 24.8079 97.6787C24.9172 96.7563 24.6235 96.0798 24.0019 95.8133C23.3803 95.54 22.6768 95.7723 22.0962 96.4966C21.4132 97.3507 20.7712 98.239 20.0949 99.1C19.8286 99.4348 19.5349 99.7423 19.125 100.207C18.886 98.7925 19.0362 97.5967 19.125 96.401C19.2138 95.1505 19.2821 93.8932 19.2343 92.6428C19.2138 92.0142 19.0567 91.2967 18.7084 90.7979C18.0732 89.8755 18.2234 89.1033 18.7425 88.2424C19.1319 87.6001 19.4324 86.9031 19.9242 85.9465C20.2657 87.6206 20.7438 88.83 22.3831 89.0008C23.797 89.1443 24.5415 88.3449 24.9172 87.1969C25.5592 87.1628 26.092 87.2174 26.577 87.0876C27.9225 86.7254 28.305 85.598 28.5031 84.3954C28.7627 82.7965 28.9812 81.1907 29.2408 79.5918C29.2954 79.2365 29.4184 78.888 29.5618 78.5532C29.7667 78.0612 30.1287 77.7401 30.6957 77.8289C33.0316 78.1842 33.9127 76.4623 34.7802 74.8702C35.7023 73.1756 35.5998 71.4127 34.5548 69.7865C34.2679 69.3355 33.7488 69.0212 33.298 68.618C33.6259 67.5384 34.4319 66.7936 35.231 66.0625C37.0069 64.4226 37.0889 63.6709 35.6408 61.744C35.5657 61.6484 35.5111 61.5459 35.4496 61.4502C36.1941 59.2637 49.7045 44.5386 51.8356 43.5546C52.5459 44.1423 52.6347 44.9144 52.2796 45.7002C51.8151 46.732 51.296 47.7432 50.7154 48.7135C50.0051 49.8956 49.6294 51.1051 49.7728 52.5195C49.9094 53.8588 49.4928 55.0545 48.5024 56.059C47.3139 57.2684 46.9109 58.8537 46.7128 60.4868C46.6104 61.2999 47.0134 61.9695 47.4778 62.6118C48.8781 64.5182 48.8712 64.5934 47.6554 66.5886C46.6582 68.2285 45.4492 69.6703 44.0627 71.0096C42.9971 72.0413 42.0955 73.2645 41.2007 74.4602C40.5723 75.3075 40.3743 76.2983 40.7226 77.3506C40.8865 77.8494 40.948 78.3892 41.1529 78.8675C42.1023 81.0404 42.5327 83.3499 43.0108 85.6527C43.6597 88.7958 45.8454 90.4563 48.7141 91.3787C49.7865 91.7204 50.8179 91.3309 51.6785 90.6612C52.7372 89.8344 53.673 88.8778 54.3218 87.6752C55.5991 85.3247 56.8696 82.981 57.6346 80.3844C58.4201 77.7127 60.0184 75.6423 62.5388 74.3099C63.8638 73.6061 65.1206 72.8613 66.637 72.5333C68.3309 72.1712 69.7311 71.1052 71.0562 70.0393C73.5766 68.0099 76.3839 66.5271 79.3619 65.304C82.0257 64.2107 84.6623 63.0013 86.5679 60.7054C87.2919 59.8308 87.9682 58.9152 88.5965 57.9791C88.9108 57.5144 89.2045 57.1659 89.7987 57.0771C90.7823 56.9336 91.4038 56.264 91.6839 55.3689C92.0254 54.2551 92.3396 53.1071 92.4625 51.9524C92.5786 50.8318 92.4625 49.6838 92.4079 48.5495C92.3601 47.4836 92.6879 47.0531 93.7398 46.9438C93.9379 46.9233 94.1428 46.9438 94.3477 46.9301C95.7957 46.855 96.5607 46.1785 96.3558 44.7914C96.1373 43.295 96.8271 42.4067 97.8653 41.5936C98.0907 41.4159 98.3161 41.2451 98.5279 41.0606C100.447 39.3865 100.604 38.0131 99.7642 36.216C99.0128 34.6171 99.2519 34.2208 101.26 34.0363C101.383 34.0226 101.506 34.0363 101.622 34.0363C103.76 33.9474 105.133 32.3485 104.894 30.2235C104.853 29.8613 104.805 29.4787 104.655 29.1575C103.931 27.5723 104.559 26.315 105.597 25.1807C107.503 23.1035 109.696 21.3816 112.175 20.0286C113.24 19.4478 114.34 18.9149 115.365 18.2657C115.932 17.9104 116.451 17.4116 116.847 16.8718C117.38 16.1475 117.27 15.5394 116.601 14.9312C115.932 14.3163 115.167 13.9336 114.21 13.8858C112.66 13.8106 111.226 14.1659 109.873 14.8629C108.616 15.512 107.407 16.2568 106.137 16.8923C105.474 17.2271 104.805 17.6644 103.753 17.4663C104.129 16.988 104.347 16.537 104.703 16.291C105.693 15.594 106.745 14.9859 107.769 14.3368C108.275 14.0156 108.842 13.7355 109.258 13.3118C110.044 12.5055 110.058 11.6651 109.374 10.6401C133.233 3.7798 157.276 2.86418 181.496 8.09141C204.917 13.1478 225.764 23.5271 244.267 38.9765C243.919 39.202 243.714 39.3797 243.475 39.489C241.46 40.4114 240.565 42.1402 240.258 44.1901C240.169 44.7709 240.497 45.4405 240.729 46.035C241.378 47.6954 242.102 49.3285 242.751 50.9889C243.27 52.3145 243.167 53.073 241.549 54.1253C240.92 54.5352 240.244 54.5011 239.568 54.2756C238.509 53.9271 237.505 53.7973 236.378 54.2004C235.777 54.4122 234.971 54.0638 234.261 53.9544C233.543 53.8451 232.833 53.6401 232.116 53.6196C230.579 53.5786 229.882 54.1389 229.397 55.6558C229.363 55.7652 229.274 55.854 229.131 56.0658C228.407 55.7583 227.649 55.5055 226.952 55.1365C225.258 54.2414 223.435 54.2277 221.611 54.3712C220.245 54.4806 219.678 55.5602 220.238 56.8311C220.415 57.2411 220.682 57.6032 220.887 57.9996C221.242 58.717 221.167 59.1202 220.504 59.5506C220.067 59.8308 219.569 60.0768 219.063 60.1656C217.834 60.3843 216.584 60.5073 215.347 60.6576C214.145 60.8011 212.936 60.8899 211.748 61.0881C210.737 61.2589 209.986 61.8602 209.473 62.7621C208.599 64.2927 207.247 65.1537 205.566 65.6252C204.89 65.8165 204.48 65.6457 204.132 65.099C203.893 64.7232 203.667 64.3337 203.381 63.9989C202.814 63.3498 202.151 63.2336 201.441 63.7119C201.01 63.9989 200.566 64.3611 200.307 64.7915C199.262 66.5271 197.732 67.7981 196.311 69.1852C195.498 69.9778 194.679 70.7636 193.839 71.522C193.449 71.8774 193.033 72.2122 192.575 72.4718C191.585 73.0321 190.724 73.1073 190.02 71.891C189.255 70.5723 188.347 69.3355 187.445 67.9826C189.488 67.8869 190.321 66.4793 190.888 64.7779C191.188 63.8896 191.052 63.056 190.505 62.359C188.75 60.1041 186.475 58.6145 183.668 58.0406C182.76 57.8561 181.817 57.8561 180.895 57.7604C179.474 57.6101 178.621 56.8584 178.375 55.4372C178.06 53.6264 177.036 52.4512 175.342 51.802C173.819 51.2144 172.289 51.0709 170.725 51.6107C169.919 51.8909 169.106 52.1437 168.32 52.458C166.633 53.1413 164.967 53.8724 163.136 54.1184C162.658 54.1799 162.2 54.3781 161.736 54.5216C160.582 54.8769 159.68 55.567 159.318 56.7286C158.792 58.43 157.59 59.4755 156.231 60.5004C152.563 63.2746 149.831 66.7799 148.239 71.1394C147.542 73.0458 146.019 74.2826 144.503 75.5262C143.007 76.7629 141.511 78.0134 140.138 79.3868C139.319 80.2068 138.602 81.1907 138.076 82.2225C137.078 84.1767 135.924 86.0285 134.79 87.9007C133.704 89.6841 133.486 91.6384 134.216 93.6268C134.94 95.6083 136.286 96.2916 138.328 95.7382C138.95 95.5673 139.551 95.3077 140.138 95.0275C141.306 94.4672 142.433 93.8112 143.629 93.3124C144.401 92.9981 145.254 92.7521 146.074 92.7385C147.659 92.7043 148.833 93.9274 148.833 95.5195C148.833 96.278 148.676 97.0501 148.519 97.8017C148.253 99.0727 148.321 100.282 148.909 101.471C149.209 102.086 149.394 102.756 149.646 103.398C149.837 103.89 150.036 104.375 150.268 104.847C150.582 105.482 151.135 105.803 151.832 105.844C152.276 105.865 152.734 105.865 153.157 105.762C154.899 105.339 156.545 104.655 158.075 103.712C159.222 103.008 160.008 101.984 159.899 100.624C159.742 98.6627 160.568 97.0911 161.49 95.499C161.995 94.6312 162.487 93.7156 162.767 92.759C163.218 91.2421 162.692 89.814 161.715 88.6797C160.247 86.9714 160.513 85.188 161.169 83.3226C161.722 81.7579 162.276 80.1931 162.87 78.6488C163.102 78.0475 163.355 77.4189 163.758 76.9338C165.868 74.3919 168.129 72.0209 171.237 70.6748C171.531 70.5449 171.831 70.4151 172.139 70.3126C172.398 70.2238 172.671 70.1828 172.999 70.1076C173.122 70.6679 172.712 70.8866 172.473 71.1531C170.349 73.5788 168.594 76.2368 167.282 79.1955C166.087 81.8809 165.957 84.5047 167.555 87.1013C168.518 88.6728 170.417 89.5816 172.234 89.1512C173.969 88.7412 175.67 88.2014 177.405 87.8119C178.463 87.5727 179.556 87.4156 180.636 87.4019C181.196 87.3951 181.797 87.7026 182.302 87.9895C182.732 88.2287 182.746 88.7207 182.302 88.9803C181.831 89.2537 181.291 89.5065 180.765 89.5475C180.178 89.5953 179.556 89.4518 178.976 89.3015C177.692 88.9735 176.483 89.2332 175.294 89.6773C173.013 90.5383 171.326 93.087 172.774 95.9158C173.498 97.3234 172.685 98.5738 171.087 98.649C170.923 98.6558 170.766 98.649 170.602 98.649C168.505 98.6285 167.439 99.8584 167.713 101.97C167.774 102.448 167.863 102.933 167.87 103.418C167.911 105.147 166.674 106.316 164.953 106.199C164.755 106.186 164.543 106.165 164.352 106.111C162.89 105.666 161.62 106.09 160.52 107.047C159.912 107.58 159.379 108.195 158.819 108.775C158.396 109.213 158.027 109.712 157.563 110.087C156.49 110.955 155.247 110.771 154.557 109.582C153.772 108.215 152.542 107.785 151.108 107.682C150.425 107.634 149.728 107.703 149.038 107.655C147.706 107.559 147.324 107.019 147.624 105.728C147.686 105.455 147.747 105.168 147.843 104.908C148.478 103.213 148.068 101.628 147.338 100.091C146.777 98.9087 145.609 98.5875 144.482 99.2435C143.301 99.9336 142.433 101.826 142.679 103.241C142.782 103.835 142.973 104.416 143.13 105.004C143.355 105.844 143.403 106.678 143.028 107.498C142.549 108.55 141.825 109.165 140.582 109.131C139.906 109.11 139.209 109.254 138.554 109.431C137.031 109.848 136.054 110.88 135.569 112.37C135.419 112.834 135.275 113.299 135.173 113.777C134.49 116.996 132.359 118.991 129.551 120.378C128.021 121.136 126.58 121.956 125.241 123.063C124.435 123.733 123.179 124.04 122.093 124.143C119.162 124.416 118.104 126.794 117.817 128.728C117.591 130.272 118.513 131.502 119.559 132.582C120.119 133.162 120.72 133.723 121.198 134.372C122.12 135.629 121.949 136.449 120.604 137.283C119.08 138.233 117.407 138.861 115.672 139.298C114.34 139.633 112.988 139.9 111.676 140.31C110.679 140.624 109.716 141.055 108.787 141.533C106.396 142.763 105.42 144.97 105.399 147.457C105.379 149.828 105.789 152.206 106.082 154.577C106.226 155.704 106.909 156.49 108.022 156.859C108.254 156.934 108.473 157.051 108.698 157.133C109.976 157.604 110.925 158.41 111.451 159.702C111.827 160.624 112.4 161.396 113.384 161.786C114.163 162.1 114.969 162.25 115.754 161.943C117.748 161.164 119.77 160.412 121.683 159.463C122.468 159.073 123.042 158.233 123.657 157.543C123.944 157.215 124.121 156.777 124.292 156.367C124.948 154.775 126.02 153.579 127.502 152.677C129.831 151.249 131.259 149.049 132.427 146.644C132.83 145.803 133.308 144.997 133.807 144.211C134.21 143.569 134.763 143.063 135.583 143.118C137.659 143.255 139.455 142.38 141.265 141.574C142.748 140.918 144.189 140.166 145.65 139.469C145.972 139.319 146.313 139.216 146.737 139.052C146.914 139.442 147.071 139.763 147.201 140.084C147.536 140.911 147.857 141.745 148.185 142.571C149.271 145.311 151.443 146.487 154.229 146.733C156.709 146.951 157.911 147.922 158.574 150.395C159.079 152.302 159.803 154.099 161.067 155.629C162.023 156.791 163.444 157.16 164.536 155.698C164.728 155.438 164.967 155.199 165.11 154.919C165.595 153.983 166.039 153.026 166.517 152.09C166.797 151.536 166.784 151.003 166.538 150.45C165.8 148.83 165.172 147.15 163.689 145.995C163.307 145.701 163.013 145.298 162.685 144.936C161.674 143.822 160.561 142.838 159.284 142.011C157.856 141.089 156.483 140.077 155.104 139.08C154.749 138.82 154.427 138.492 154.168 138.137C153.847 137.7 154.018 137.303 154.544 137.296C155.015 137.296 155.541 137.337 155.957 137.542C159.229 139.155 162.521 140.747 165.096 143.446C165.984 144.375 167.057 145.161 167.829 146.179C168.498 147.061 168.949 148.14 169.352 149.186C169.987 150.839 170.663 152.411 172.221 153.436C172.685 153.743 173.061 154.201 173.43 154.632C174.078 155.383 174.543 156.19 174.447 157.269C174.406 157.768 174.563 158.328 174.782 158.786C175.533 160.365 177.698 160.535 178.668 159.08C179.187 158.301 179.536 157.42 179.242 156.436C179.058 155.814 178.853 155.199 178.703 154.57C178.586 154.106 178.395 153.593 178.491 153.156C178.839 151.448 179.536 149.917 181.168 149.015C181.653 148.748 182.131 148.666 182.678 148.851C183.327 149.07 183.996 149.261 184.672 149.391C185.594 149.568 186.441 149.439 187.063 148.605C187.398 148.154 187.842 147.778 188.183 147.327C188.716 146.623 188.982 145.81 188.791 144.929C188.484 143.48 188.791 142.134 189.276 140.768C189.747 139.435 190.143 138.075 190.444 136.695C190.806 135.048 191.421 133.518 192.35 132.124C193.012 131.126 193.845 131.154 194.385 132.213C194.651 132.732 194.699 133.367 194.843 133.955C195.048 134.816 195.205 135.697 195.471 136.538C196.031 138.287 199.043 139.517 200.689 137.645C202.131 136.012 203.586 134.358 203.968 132.083C204.064 131.523 204.999 130.86 205.525 131.017C205.73 131.078 205.976 131.386 205.997 131.598C206.044 132.158 205.983 132.725 205.949 133.292C205.915 133.777 205.799 134.263 205.826 134.741C205.874 135.718 206.195 136.224 207.158 136.353C208.852 136.593 209.774 137.672 210.552 139.011C210.798 139.428 211.119 139.811 211.331 140.241C212.007 141.594 212.895 142.688 214.418 143.152C214.733 143.248 215.081 143.555 215.211 143.856C215.388 144.273 215.498 144.806 215.375 145.209C215.306 145.434 214.698 145.612 214.336 145.605C212.677 145.571 211.024 145.421 209.371 145.393C207.588 145.366 205.826 145.195 204.057 144.977C203.032 144.847 201.953 144.977 200.929 145.161C199.139 145.482 197.363 145.879 195.608 146.343C194.679 146.589 193.743 146.945 192.923 147.443C191.994 148.011 191.018 148.311 189.979 148.509C186.817 149.117 184.652 152.527 185.499 155.595C185.97 157.31 186.783 158.813 188.169 159.996C189.303 160.966 190.355 162.039 191.427 163.091C192.206 163.849 193.087 164.095 194.084 163.624C194.706 163.33 195.307 162.995 195.888 162.619C197.083 161.854 198.244 161.034 199.433 160.262C200.164 159.791 200.908 159.709 201.728 160.132C202.219 160.385 202.793 160.563 203.34 160.59C204.084 160.624 204.46 160.993 204.651 161.629C204.767 162.011 204.87 162.421 204.856 162.818C204.747 165.476 204.228 168.038 202.889 170.382C202.404 171.229 201.714 171.81 200.826 172.192C199.897 172.589 198.982 173.026 198.046 173.422C197.035 173.846 195.99 174.072 194.87 174.126C193.634 174.188 192.404 174.509 191.175 174.762C190.341 174.932 189.522 175.158 188.709 175.404C187.616 175.739 186.715 175.465 185.963 174.639C184.782 173.334 183.429 172.233 181.892 171.393C180.875 170.833 179.768 170.382 178.648 170.061C177.343 169.692 176.08 170.047 174.925 170.744C173.696 171.495 172.651 172.452 171.927 173.703C171.121 175.083 170.035 175.52 168.45 175.165C166.442 174.714 164.386 174.475 162.358 174.099C159.468 173.559 156.893 172.377 154.742 170.313C154.072 169.678 153.287 169.159 152.515 168.632C151.989 168.27 151.62 167.84 151.402 167.239C151.108 166.439 150.773 165.66 150.439 164.874C149.701 163.132 148.43 161.97 146.62 161.383C144.961 160.843 143.308 160.283 141.525 160.44C137.864 160.761 134.196 161.041 130.549 161.444C128.964 161.615 127.523 162.312 126.225 163.269C125.159 164.048 124.012 164.642 122.639 164.553C121.915 164.505 121.177 164.458 120.474 164.287C119.053 163.945 117.653 164.116 116.259 164.396C115.228 164.601 114.217 164.908 113.206 165.182C108.616 166.425 106.219 169.753 104.819 174.024C104.341 175.486 103.883 176.955 103.391 178.41C103.022 179.511 102.291 180.262 101.171 180.665C99.368 181.308 98.0976 182.647 97.0867 184.171C95.6045 186.398 94.2589 188.715 92.9065 191.024C91.6224 193.218 90.912 195.623 90.509 198.13C90.1675 200.262 90.0036 202.381 90.4203 204.533C90.6388 205.667 90.4612 206.788 89.9626 207.854C88.9995 209.917 88.6307 212.09 88.7468 214.359C88.8356 216.129 89.3137 217.693 90.7344 218.889C92.3464 220.242 93.9515 221.615 95.502 223.044C96.5129 223.973 97.5033 224.943 98.3639 226.002C100.311 228.401 102.38 230.683 104.655 232.76C106.437 234.393 108.63 235.24 111.014 235.562C113.534 235.91 116.061 236.204 118.589 236.511C119.811 236.662 121.02 236.525 122.181 236.115C124.012 235.466 125.856 234.837 127.639 234.079C130.473 232.863 133.212 233.068 135.965 234.325C137.44 234.994 138.936 235.609 140.453 236.19C141.006 236.402 141.621 236.484 142.222 236.552C143.144 236.662 144.079 236.669 144.995 236.785C147.433 237.099 148.56 238.8 148 241.206C147.747 242.306 147.556 243.42 147.399 244.54C147.269 245.51 147.57 246.406 148.157 247.164C149.298 248.633 150.425 250.13 151.682 251.496C154.4 254.441 155.493 258.015 155.951 261.869C156.053 262.736 155.8 263.509 155.363 264.294C154.216 266.344 153.048 268.394 152.652 270.765C152.255 273.129 152.29 275.418 153.321 277.653C154.332 279.86 155.151 282.156 156.197 284.342C156.75 285.497 157.556 286.549 158.334 287.581C159.769 289.46 161.859 290.225 164.045 290.799C166.162 291.353 168.136 290.963 170.042 289.986C170.691 289.652 171.36 289.344 171.968 288.948C174.563 287.267 177.446 286.379 180.424 285.702C182.555 285.217 184.645 284.581 186.769 284.069C189.331 283.461 191.339 281.862 193.463 280.454C195.02 279.423 195.744 277.933 195.881 276.17C196.017 274.366 196.769 272.986 198.292 272.05C200.013 270.991 201.755 269.952 203.504 268.941C205.478 267.8 207.322 266.515 208.988 264.943C211.113 262.941 211.898 260.427 212.001 257.618C212.035 256.607 212.041 255.589 212.001 254.578C211.919 252.179 212.588 250.013 213.974 248.066C217.041 243.768 220.286 239.62 224.22 236.067C225.811 234.632 227.492 233.279 229.152 231.92C230.702 230.656 232.061 229.221 233.216 227.594C234.199 226.207 235.271 224.882 236.235 223.474C237.061 222.265 237.662 220.925 237.908 219.456C238.106 218.267 237.505 217.092 236.474 216.826C235.996 216.703 235.381 216.703 234.951 216.908C233.263 217.707 231.46 218.028 229.65 218.042C227.799 218.055 225.948 217.837 224.145 217.311C221.447 216.518 219.131 215.069 216.932 213.389C215.873 212.582 215.45 211.475 215.429 210.211C215.395 208.004 214.637 206.118 213.237 204.424C212.089 203.037 211.317 201.424 210.949 199.641C210.518 197.57 209.624 195.739 208.23 194.147C207.697 193.539 207.212 192.89 206.693 192.261C204.753 189.917 204.207 187.136 204.187 184.198C204.187 183.44 204.282 182.661 205.068 182.339C205.908 181.998 206.406 182.681 206.905 183.207C207.124 183.44 207.308 183.72 207.445 184.007C208.394 186.07 209.419 188.106 210.225 190.225C210.969 192.165 212.048 193.833 213.496 195.281C215.163 196.948 216.372 198.841 216.953 201.178C217.328 202.695 217.991 204.157 218.626 205.599C219.309 207.164 219.965 208.708 220.129 210.444C220.293 212.227 221.351 213.491 222.82 214.42C223.503 214.851 224.24 215.001 225.019 214.646C225.388 214.482 225.798 214.386 226.133 214.167C227.3 213.382 228.605 212.979 229.958 212.692C231.617 212.35 233.045 211.537 234.459 210.642C235.688 209.863 237.006 209.234 238.27 208.517C239.11 208.045 239.971 207.587 240.763 207.034C242.15 206.05 243.461 204.963 244.848 203.98C247.757 201.923 250.134 199.326 252.388 196.607C253.358 195.431 253.891 194.031 254.198 192.534C254.41 191.53 254.233 190.601 253.823 189.699C253.488 188.967 252.969 188.4 252.204 188.134C250.906 187.69 249.588 187.307 248.283 186.883C247.143 186.514 246.132 186.924 245.141 187.416C244.889 187.539 244.65 187.703 244.438 187.895C242.84 189.357 241.576 189.138 239.527 187.71C239.233 187.505 238.946 187.239 238.755 186.938C237.225 184.56 235.019 182.661 233.864 180.016C233.653 179.524 233.386 179.053 233.14 178.574C233.222 178.499 233.298 178.424 233.38 178.349C233.707 178.533 234.049 178.697 234.363 178.902C235.388 179.552 236.433 180.18 237.423 180.884C239.021 182.025 240.811 182.148 242.662 181.909C243.7 181.772 244.725 181.513 245.763 181.335C246.2 181.26 246.651 181.267 247.095 181.232C247.634 181.191 248.031 181.417 248.311 181.875C248.584 182.326 248.871 182.77 249.164 183.207C250.203 184.731 251.603 185.264 253.454 185.1C255.974 184.874 258.242 184.041 260.435 182.838C261.309 182.36 262.286 182.059 263.331 181.629C263.392 182.011 263.495 182.305 263.488 182.606C263.447 184.43 263.337 186.255 263.351 188.072C263.351 188.824 263.529 189.596 263.768 190.32C264.02 191.099 264.765 191.42 265.509 191.434C266.261 191.448 267.019 191.256 267.763 191.106C268.153 191.024 268.515 190.758 268.904 190.717C269.157 190.689 269.505 190.86 269.697 191.051C269.874 191.236 269.949 191.571 269.97 191.844C270.065 193.136 270.284 194.447 270.175 195.725C270.011 197.604 270.209 199.449 270.359 201.308C270.489 202.879 270.632 204.451 270.803 206.023C270.926 207.15 271.069 208.277 271.281 209.384C271.479 210.416 272.094 211.236 272.886 211.906C273.842 212.719 275.065 212.685 275.755 211.639C276.663 210.259 277.51 208.81 278.159 207.294C279.519 204.13 280.687 200.884 282.032 197.714C282.708 196.115 283.61 194.605 284.382 193.047C284.942 191.919 285.481 190.785 286.001 189.644C286.54 188.455 287.148 187.314 288.036 186.35C288.275 186.091 288.541 185.858 288.924 185.489C289.115 186.385 288.979 187.082 288.903 187.792C288.76 189.241 288.596 190.689 288.535 192.145C288.514 192.644 288.617 193.279 288.917 193.621C289.429 194.201 289.306 194.7 289.095 195.288C288.056 198.192 287.107 201.123 285.98 203.993L285.994 204.007ZM233.14 142.066C234.247 142.469 234.629 143.2 234.534 144.307C234.5 144.71 234.554 145.12 234.548 145.523C234.52 147.635 235.292 149.425 236.877 150.798C238.734 152.411 239.377 154.393 239.035 156.784C238.939 157.44 239.103 158.137 239.158 159.08C237.826 158.697 236.658 158.403 235.524 158.021C234.705 157.741 234.165 157.112 234.076 156.224C233.967 155.219 233.864 154.208 233.892 153.197C233.926 151.748 233.578 150.498 232.608 149.384C232.287 149.015 232.061 148.455 232.02 147.963C231.911 146.637 231.303 145.578 230.524 144.574C229.882 143.74 229.24 142.899 228.632 142.045C228.332 141.615 228.079 141.15 227.854 140.672C227.007 138.875 227.171 137.119 228.188 135.445C228.735 134.55 229.336 133.682 229.958 132.828C230.716 131.789 232.239 131.529 233.311 132.213C233.885 132.575 233.981 134.167 233.393 134.625C231.802 135.841 231.569 137.624 231.426 139.394C231.33 140.624 231.952 141.629 233.147 142.066H233.14Z" fill="url(#paint0_linear_308_277)"/>
<path d="M288.931 193.642C288.624 193.301 288.521 192.658 288.548 192.166C288.61 190.711 288.774 189.262 288.917 187.814C288.986 187.11 289.129 186.406 288.938 185.511C288.555 185.88 288.289 186.112 288.05 186.372C287.162 187.335 286.547 188.477 286.014 189.666C285.495 190.813 284.956 191.948 284.396 193.068C283.617 194.626 282.722 196.136 282.046 197.735C280.7 200.906 279.532 204.151 278.173 207.315C277.524 208.832 276.677 210.281 275.769 211.661C275.079 212.706 273.856 212.747 272.9 211.927C272.115 211.251 271.5 210.438 271.295 209.406C271.083 208.292 270.94 207.165 270.817 206.044C270.646 204.473 270.503 202.901 270.373 201.329C270.223 199.471 270.018 197.633 270.188 195.747C270.298 194.469 270.086 193.164 269.984 191.866C269.963 191.592 269.888 191.258 269.71 191.073C269.526 190.875 269.178 190.711 268.918 190.738C268.529 190.779 268.167 191.046 267.777 191.128C267.033 191.278 266.275 191.469 265.523 191.456C264.779 191.442 264.041 191.121 263.782 190.342C263.549 189.625 263.372 188.846 263.365 188.094C263.351 186.27 263.461 184.452 263.502 182.628C263.502 182.327 263.413 182.033 263.344 181.65C262.299 182.081 261.323 182.382 260.448 182.86C258.256 184.062 255.995 184.896 253.468 185.122C251.61 185.286 250.21 184.753 249.178 183.229C248.885 182.792 248.598 182.347 248.324 181.896C248.044 181.439 247.655 181.213 247.109 181.254C246.665 181.288 246.214 181.281 245.777 181.357C244.739 181.534 243.714 181.794 242.676 181.931C240.825 182.17 239.042 182.04 237.437 180.906C236.447 180.202 235.401 179.573 234.377 178.924C234.063 178.726 233.721 178.555 233.393 178.371C233.311 178.446 233.236 178.521 233.154 178.596C233.393 179.074 233.66 179.546 233.878 180.038C235.033 182.682 237.239 184.582 238.769 186.96C238.96 187.26 239.247 187.527 239.541 187.732C241.59 189.16 242.853 189.372 244.452 187.916C244.657 187.725 244.902 187.561 245.155 187.438C246.146 186.939 247.15 186.536 248.297 186.905C249.602 187.329 250.92 187.711 252.218 188.155C252.983 188.415 253.502 188.982 253.837 189.72C254.246 190.629 254.424 191.551 254.212 192.556C253.898 194.052 253.372 195.453 252.402 196.628C250.148 199.348 247.771 201.944 244.861 204.001C243.475 204.985 242.164 206.072 240.777 207.055C239.991 207.609 239.131 208.067 238.284 208.538C237.013 209.249 235.695 209.884 234.473 210.663C233.059 211.558 231.624 212.372 229.971 212.713C228.619 212.993 227.314 213.403 226.146 214.189C225.818 214.408 225.402 214.503 225.033 214.667C224.254 215.016 223.51 214.872 222.834 214.442C221.365 213.513 220.306 212.249 220.142 210.465C219.979 208.73 219.33 207.185 218.64 205.621C218.005 204.179 217.342 202.717 216.966 201.2C216.386 198.863 215.177 196.97 213.51 195.303C212.062 193.854 210.976 192.187 210.238 190.246C209.432 188.128 208.401 186.092 207.458 184.028C207.329 183.741 207.137 183.454 206.919 183.229C206.42 182.71 205.922 182.019 205.082 182.361C204.296 182.682 204.194 183.461 204.2 184.22C204.228 187.158 204.767 189.939 206.707 192.283C207.226 192.904 207.711 193.56 208.244 194.168C209.637 195.761 210.532 197.592 210.962 199.662C211.331 201.439 212.103 203.051 213.251 204.445C214.651 206.14 215.409 208.026 215.443 210.233C215.464 211.497 215.894 212.611 216.946 213.41C219.152 215.084 221.468 216.54 224.159 217.332C225.969 217.865 227.82 218.077 229.664 218.063C231.474 218.05 233.277 217.722 234.964 216.929C235.395 216.724 236.009 216.731 236.488 216.847C237.519 217.107 238.12 218.282 237.922 219.478C237.676 220.94 237.082 222.279 236.248 223.496C235.292 224.903 234.22 226.229 233.229 227.616C232.068 229.249 230.709 230.677 229.165 231.941C227.499 233.301 225.825 234.647 224.234 236.089C220.3 239.642 217.055 243.79 213.988 248.088C212.602 250.028 211.932 252.201 212.014 254.599C212.048 255.611 212.048 256.629 212.014 257.64C211.912 260.448 211.126 262.963 209.002 264.965C207.336 266.537 205.491 267.821 203.517 268.962C201.769 269.974 200.027 271.012 198.306 272.071C196.783 273.007 196.031 274.388 195.895 276.192C195.758 277.955 195.034 279.444 193.477 280.476C191.353 281.877 189.344 283.476 186.783 284.091C184.659 284.596 182.569 285.239 180.438 285.724C177.453 286.4 174.577 287.295 171.982 288.969C171.374 289.366 170.704 289.673 170.055 290.008C168.157 290.985 166.176 291.375 164.058 290.821C161.873 290.247 159.776 289.482 158.348 287.603C157.563 286.571 156.764 285.526 156.21 284.364C155.165 282.177 154.346 279.881 153.335 277.674C152.303 275.433 152.269 273.144 152.665 270.787C153.062 268.409 154.23 266.366 155.377 264.316C155.814 263.53 156.067 262.758 155.964 261.89C155.507 258.036 154.414 254.456 151.695 251.518C150.432 250.151 149.312 248.655 148.171 247.186C147.584 246.427 147.276 245.525 147.413 244.562C147.563 243.441 147.754 242.327 148.014 241.227C148.567 238.822 147.447 237.121 145.009 236.806C144.086 236.69 143.158 236.676 142.235 236.574C141.641 236.506 141.026 236.424 140.466 236.212C138.957 235.631 137.454 235.016 135.979 234.346C133.226 233.089 130.487 232.891 127.653 234.1C125.87 234.866 124.026 235.488 122.195 236.137C121.034 236.547 119.825 236.683 118.602 236.533C116.075 236.232 113.548 235.932 111.028 235.583C108.651 235.255 106.451 234.408 104.669 232.782C102.394 230.698 100.318 228.422 98.3778 226.024C97.5171 224.958 96.5267 223.988 95.5158 223.065C93.9653 221.644 92.3602 220.27 90.7483 218.911C89.3275 217.715 88.8562 216.157 88.7606 214.38C88.6445 212.105 89.0133 209.932 89.9764 207.875C90.475 206.809 90.6526 205.689 90.4341 204.555C90.0174 202.409 90.1813 200.284 90.5229 198.152C90.9258 195.644 91.6362 193.246 92.9203 191.046C94.2727 188.736 95.6251 186.42 97.1005 184.192C98.1114 182.669 99.3818 181.329 101.185 180.687C102.305 180.291 103.029 179.532 103.405 178.432C103.897 176.977 104.354 175.508 104.832 174.045C106.233 169.775 108.63 166.447 113.22 165.203C114.238 164.93 115.242 164.623 116.273 164.418C117.667 164.144 119.06 163.967 120.488 164.308C121.191 164.479 121.929 164.527 122.653 164.575C124.026 164.664 125.173 164.069 126.239 163.29C127.537 162.334 128.978 161.643 130.562 161.466C134.217 161.063 137.878 160.782 141.539 160.461C143.321 160.304 144.974 160.858 146.634 161.404C148.437 161.992 149.708 163.154 150.452 164.896C150.787 165.682 151.122 166.461 151.415 167.26C151.634 167.861 152.01 168.292 152.529 168.654C153.294 169.18 154.086 169.693 154.755 170.335C156.907 172.399 159.482 173.581 162.371 174.12C164.4 174.496 166.456 174.735 168.464 175.186C170.049 175.542 171.141 175.104 171.941 173.724C172.671 172.474 173.71 171.51 174.939 170.765C176.094 170.062 177.357 169.713 178.662 170.082C179.782 170.396 180.882 170.854 181.906 171.415C183.443 172.255 184.795 173.355 185.977 174.66C186.728 175.494 187.63 175.767 188.723 175.426C189.536 175.18 190.355 174.954 191.189 174.783C192.411 174.53 193.641 174.209 194.884 174.148C196.004 174.093 197.042 173.868 198.06 173.444C198.996 173.055 199.911 172.617 200.84 172.214C201.728 171.831 202.418 171.251 202.903 170.403C204.241 168.06 204.767 165.497 204.87 162.839C204.883 162.443 204.781 162.033 204.665 161.65C204.474 161.015 204.098 160.646 203.353 160.612C202.807 160.584 202.233 160.407 201.741 160.154C200.922 159.73 200.171 159.812 199.446 160.284C198.258 161.056 197.097 161.869 195.902 162.641C195.328 163.01 194.72 163.352 194.098 163.645C193.101 164.11 192.22 163.871 191.441 163.113C190.369 162.067 189.317 160.994 188.183 160.017C186.797 158.828 185.984 157.332 185.513 155.617C184.666 152.542 186.831 149.139 189.993 148.531C191.032 148.333 192.008 148.032 192.937 147.465C193.757 146.966 194.693 146.611 195.621 146.365C197.377 145.9 199.153 145.504 200.942 145.183C201.967 144.998 203.053 144.868 204.071 144.998C205.84 145.217 207.602 145.395 209.385 145.415C211.044 145.436 212.697 145.593 214.35 145.627C214.712 145.634 215.32 145.456 215.389 145.231C215.511 144.827 215.402 144.288 215.225 143.878C215.102 143.577 214.746 143.27 214.432 143.174C212.909 142.702 212.021 141.616 211.345 140.263C211.126 139.833 210.805 139.45 210.566 139.033C209.788 137.694 208.866 136.607 207.172 136.375C206.209 136.238 205.888 135.74 205.84 134.762C205.812 134.284 205.928 133.799 205.963 133.314C205.997 132.747 206.058 132.18 206.01 131.619C205.99 131.407 205.744 131.1 205.539 131.038C205.013 130.881 204.077 131.537 203.982 132.104C203.599 134.38 202.144 136.033 200.703 137.666C199.057 139.539 196.045 138.302 195.485 136.56C195.212 135.719 195.061 134.838 194.856 133.977C194.713 133.389 194.665 132.754 194.399 132.234C193.859 131.168 193.026 131.148 192.363 132.145C191.434 133.539 190.82 135.063 190.458 136.717C190.157 138.09 189.761 139.457 189.29 140.789C188.805 142.156 188.504 143.502 188.805 144.95C188.989 145.839 188.73 146.645 188.197 147.349C187.855 147.8 187.411 148.176 187.077 148.627C186.455 149.46 185.608 149.59 184.686 149.412C184.01 149.283 183.347 149.098 182.692 148.873C182.145 148.688 181.667 148.77 181.182 149.037C179.55 149.939 178.86 151.469 178.505 153.177C178.416 153.615 178.607 154.127 178.716 154.592C178.873 155.22 179.072 155.835 179.256 156.457C179.557 157.448 179.201 158.323 178.682 159.102C177.712 160.557 175.554 160.386 174.796 158.808C174.577 158.35 174.42 157.783 174.461 157.291C174.557 156.211 174.092 155.405 173.443 154.653C173.074 154.223 172.699 153.765 172.234 153.457C170.677 152.433 170.001 150.854 169.366 149.207C168.963 148.162 168.512 147.082 167.842 146.201C167.071 145.19 165.998 144.404 165.11 143.468C162.535 140.769 159.243 139.177 155.971 137.564C155.555 137.359 155.029 137.311 154.557 137.318C154.031 137.325 153.861 137.721 154.182 138.158C154.441 138.514 154.762 138.849 155.117 139.101C156.49 140.099 157.863 141.117 159.298 142.033C160.575 142.853 161.688 143.837 162.699 144.957C163.027 145.319 163.328 145.716 163.703 146.016C165.185 147.171 165.814 148.852 166.552 150.471C166.804 151.025 166.811 151.558 166.531 152.111C166.053 153.054 165.609 154.004 165.124 154.94C164.974 155.227 164.741 155.46 164.55 155.719C163.457 157.181 162.037 156.812 161.08 155.651C159.817 154.12 159.1 152.323 158.587 150.417C157.925 147.943 156.729 146.973 154.243 146.754C151.456 146.508 149.284 145.333 148.198 142.593C147.87 141.766 147.549 140.933 147.215 140.106C147.085 139.778 146.928 139.464 146.75 139.074C146.327 139.231 145.985 139.334 145.664 139.491C144.203 140.188 142.761 140.933 141.279 141.595C139.469 142.402 137.673 143.27 135.596 143.14C134.777 143.085 134.223 143.597 133.82 144.233C133.329 145.019 132.851 145.832 132.441 146.665C131.273 149.071 129.845 151.278 127.516 152.699C126.034 153.608 124.961 154.797 124.306 156.389C124.135 156.799 123.957 157.236 123.671 157.564C123.063 158.254 122.482 159.095 121.697 159.484C119.777 160.434 117.762 161.179 115.768 161.965C114.982 162.272 114.176 162.122 113.398 161.807C112.421 161.411 111.847 160.646 111.465 159.723C110.932 158.432 109.989 157.626 108.712 157.154C108.487 157.072 108.268 156.956 108.036 156.881C106.923 156.512 106.233 155.726 106.096 154.599C105.802 152.234 105.393 149.85 105.413 147.479C105.434 144.991 106.41 142.784 108.801 141.554C109.73 141.076 110.7 140.646 111.69 140.331C113.002 139.921 114.354 139.655 115.686 139.32C117.428 138.883 119.094 138.254 120.617 137.304C121.956 136.471 122.134 135.644 121.212 134.393C120.733 133.744 120.139 133.184 119.572 132.603C118.527 131.524 117.605 130.3 117.831 128.749C118.111 126.816 119.176 124.438 122.106 124.164C123.192 124.062 124.449 123.748 125.255 123.085C126.594 121.978 128.035 121.158 129.565 120.399C132.372 119.012 134.503 117.017 135.187 113.799C135.289 113.327 135.432 112.856 135.583 112.391C136.068 110.902 137.044 109.87 138.568 109.453C139.223 109.275 139.92 109.132 140.596 109.152C141.839 109.187 142.563 108.572 143.041 107.519C143.417 106.699 143.369 105.866 143.144 105.025C142.987 104.438 142.796 103.857 142.693 103.262C142.44 101.848 143.315 99.9552 144.496 99.2651C145.616 98.6091 146.791 98.9371 147.351 100.112C148.082 101.65 148.492 103.235 147.857 104.93C147.761 105.196 147.7 105.476 147.638 105.75C147.338 107.041 147.713 107.581 149.052 107.676C149.735 107.724 150.432 107.656 151.122 107.704C152.549 107.813 153.786 108.237 154.571 109.603C155.254 110.799 156.497 110.984 157.576 110.109C158.041 109.733 158.41 109.234 158.833 108.797C159.393 108.216 159.926 107.594 160.534 107.068C161.634 106.105 162.897 105.688 164.366 106.132C164.557 106.187 164.762 106.207 164.967 106.221C166.688 106.337 167.924 105.169 167.883 103.44C167.87 102.955 167.788 102.477 167.726 101.991C167.453 99.88 168.519 98.6569 170.616 98.6706C170.779 98.6706 170.943 98.6842 171.101 98.6706C172.699 98.5954 173.512 97.3518 172.788 95.9374C171.34 93.1085 173.027 90.5598 175.308 89.6989C176.497 89.2547 177.712 89.0019 178.99 89.3231C179.57 89.4734 180.192 89.6169 180.779 89.5691C181.305 89.5212 181.852 89.2752 182.316 89.0019C182.76 88.7423 182.739 88.2503 182.316 88.0111C181.804 87.7241 181.203 87.4167 180.649 87.4235C179.57 87.4372 178.477 87.5943 177.419 87.8335C175.684 88.2229 173.976 88.7628 172.248 89.1727C170.431 89.6032 168.532 88.6944 167.569 87.1228C165.978 84.5263 166.108 81.9024 167.296 79.2171C168.607 76.2652 170.356 73.6004 172.487 71.1747C172.726 70.9013 173.136 70.6827 173.013 70.1292C172.685 70.2044 172.412 70.2522 172.152 70.3342C171.845 70.4367 171.551 70.5665 171.251 70.6963C168.136 72.0424 165.875 74.4135 163.772 76.9554C163.369 77.4405 163.116 78.0691 162.884 78.6704C162.289 80.2147 161.736 81.7794 161.183 83.3442C160.52 85.2096 160.261 86.993 161.729 88.7013C162.706 89.8355 163.232 91.2636 162.781 92.7806C162.501 93.7372 162.002 94.646 161.504 95.5206C160.582 97.1127 159.755 98.6842 159.912 100.645C160.022 102.005 159.236 103.03 158.089 103.734C156.559 104.67 154.919 105.36 153.171 105.784C152.747 105.886 152.283 105.893 151.846 105.866C151.156 105.832 150.596 105.51 150.282 104.868C150.049 104.397 149.851 103.911 149.66 103.42C149.407 102.777 149.23 102.108 148.922 101.493C148.335 100.304 148.267 99.0942 148.533 97.8233C148.69 97.0717 148.847 96.3064 148.847 95.5411C148.847 93.949 147.672 92.7259 146.088 92.7601C145.268 92.7737 144.408 93.0197 143.643 93.334C142.447 93.826 141.32 94.4888 140.152 95.0491C139.572 95.3293 138.964 95.5889 138.342 95.7597C136.3 96.3132 134.954 95.6299 134.23 93.6484C133.499 91.66 133.718 89.7057 134.804 87.9223C135.945 86.0501 137.092 84.1983 138.089 82.2441C138.615 81.2123 139.333 80.2215 140.152 79.4084C141.525 78.0418 143.021 76.7845 144.517 75.5478C146.033 74.3042 147.556 73.0674 148.253 71.161C149.844 66.8015 152.577 63.2962 156.245 60.522C157.604 59.4971 158.806 58.4516 159.332 56.7502C159.694 55.5886 160.595 54.8916 161.75 54.5432C162.214 54.3997 162.672 54.2083 163.15 54.14C164.981 53.894 166.647 53.1561 168.334 52.4796C169.12 52.1653 169.939 51.9124 170.739 51.6323C172.303 51.0857 173.833 51.236 175.356 51.8236C177.05 52.4728 178.074 53.648 178.389 55.4588C178.634 56.88 179.488 57.6317 180.909 57.782C181.831 57.8776 182.774 57.8777 183.682 58.0621C186.496 58.6361 188.764 60.1257 190.519 62.3806C191.066 63.0844 191.202 63.918 190.902 64.7995C190.335 66.494 189.502 67.9085 187.459 68.0041C188.361 69.3571 189.269 70.5938 190.034 71.9126C190.738 73.1289 191.598 73.0537 192.589 72.4934C193.046 72.2338 193.463 71.8989 193.852 71.5436C194.693 70.7852 195.512 69.9925 196.325 69.2067C197.746 67.8265 199.276 66.5487 200.321 64.8131C200.58 64.3827 201.024 64.0205 201.455 63.7335C202.165 63.2552 202.828 63.3714 203.394 64.0205C203.688 64.3553 203.907 64.7448 204.146 65.1206C204.494 65.6673 204.904 65.8381 205.58 65.6468C207.26 65.1753 208.613 64.3143 209.487 62.7837C209.999 61.8818 210.751 61.2805 211.762 61.1097C212.95 60.9115 214.166 60.8227 215.361 60.6792C216.604 60.5289 217.847 60.4059 219.077 60.1872C219.582 60.0984 220.081 59.8456 220.518 59.5722C221.188 59.1418 221.263 58.7386 220.901 58.0211C220.703 57.6248 220.429 57.2558 220.252 56.8527C219.698 55.5818 220.265 54.5022 221.625 54.3928C223.448 54.2493 225.265 54.2562 226.966 55.1581C227.663 55.5271 228.421 55.7868 229.145 56.0874C229.288 55.8756 229.377 55.7799 229.411 55.6774C229.903 54.1605 230.593 53.6002 232.13 53.6412C232.847 53.6617 233.557 53.8667 234.274 53.976C234.985 54.0853 235.791 54.4407 236.392 54.222C237.519 53.8257 238.53 53.9487 239.582 54.2972C240.265 54.5227 240.934 54.5568 241.562 54.1468C243.181 53.1014 243.284 52.3429 242.765 51.0105C242.116 49.3501 241.392 47.717 240.743 46.0566C240.511 45.4621 240.183 44.7925 240.271 44.2117C240.579 42.1618 241.474 40.433 243.489 39.5106C243.728 39.4012 243.933 39.2304 244.281 38.9981C225.778 23.5556 204.931 13.1694 181.51 8.113C157.29 2.88576 133.247 3.80138 109.388 10.6617C110.071 11.6866 110.058 12.5271 109.272 13.3334C108.862 13.757 108.295 14.0304 107.783 14.3583C106.759 15.0143 105.707 15.6225 104.716 16.3126C104.361 16.5654 104.143 17.0095 103.767 17.4879C104.819 17.686 105.488 17.2419 106.151 16.9139C107.414 16.2784 108.623 15.5268 109.887 14.8845C111.239 14.1875 112.674 13.8322 114.224 13.9074C115.187 13.9552 115.945 14.3378 116.615 14.9528C117.284 15.561 117.393 16.1691 116.861 16.8934C116.465 17.4332 115.945 17.9252 115.378 18.2873C114.354 18.9365 113.254 19.4694 112.189 20.0502C109.709 21.4032 107.524 23.1251 105.611 25.2023C104.566 26.3366 103.938 27.5938 104.669 29.1791C104.819 29.5003 104.86 29.8829 104.908 30.245C105.153 32.3701 103.774 33.969 101.636 34.0579C101.513 34.0579 101.39 34.0579 101.274 34.0579C99.2657 34.2492 99.0266 34.6387 99.778 36.2376C100.618 38.0347 100.461 39.4081 98.5417 41.0822C98.3299 41.2667 98.1045 41.4443 97.8791 41.6151C96.8478 42.4283 96.1511 43.3166 96.3696 44.813C96.5745 46.2001 95.8027 46.8765 94.3615 46.9517C94.1566 46.9654 93.9517 46.9517 93.7536 46.9654C92.7017 47.0747 92.3739 47.5052 92.4217 48.5711C92.4763 49.7054 92.5924 50.8533 92.4763 51.9739C92.3534 53.1287 92.046 54.2767 91.6977 55.3904C91.4245 56.2787 90.8029 56.9484 89.8125 57.0987C89.2183 57.1875 88.9246 57.5428 88.6104 58.0006C87.9751 58.9368 87.2989 59.8524 86.5817 60.727C84.6761 63.0229 82.0396 64.2323 79.3757 65.3256C76.3909 66.5487 73.5904 68.0315 71.07 70.0609C69.7449 71.1268 68.3447 72.1928 66.6508 72.5549C65.1413 72.8761 63.8777 73.6277 62.5526 74.3315C60.0322 75.6639 58.4339 77.7343 57.6484 80.406C56.8834 83.0025 55.6129 85.3463 54.3356 87.6968C53.6868 88.8926 52.751 89.856 51.6923 90.6828C50.8248 91.3593 49.7935 91.7419 48.7279 91.4003C45.866 90.4847 43.6735 88.8174 43.0246 85.6742C42.5533 83.3715 42.123 81.062 41.1667 78.8891C40.955 78.4108 40.9003 77.871 40.7364 77.3722C40.3881 76.3199 40.5793 75.3291 41.2145 74.4818C42.1093 73.286 43.0041 72.0629 44.0765 71.0312C45.4562 69.6919 46.672 68.2501 47.6692 66.6102C48.885 64.615 48.8919 64.5398 47.4916 62.6334C47.0272 61.9979 46.6242 61.3215 46.7266 60.5084C46.9247 58.8821 47.3277 57.29 48.5162 56.0806C49.5066 55.0761 49.9164 53.8735 49.7866 52.5411C49.6432 51.1267 50.012 49.9172 50.7292 48.7351C51.3098 47.7648 51.8289 46.7536 52.2934 45.7218C52.6485 44.936 52.5598 44.1638 51.8494 43.5762C49.7115 44.5602 36.2011 59.2852 35.4634 61.4718C35.5249 61.5675 35.5795 61.67 35.6546 61.7656C37.1027 63.6925 37.0207 64.4442 35.2448 66.0841C34.4457 66.822 33.6328 67.56 33.3118 68.6396C33.7626 69.0496 34.2749 69.3571 34.5686 69.8081C35.6136 71.4411 35.7093 73.204 34.794 74.8918C33.9266 76.4907 33.0454 78.2058 30.7095 77.8505C30.1425 77.7616 29.7805 78.0828 29.5756 78.5748C29.439 78.9096 29.3161 79.2581 29.2546 79.6134C28.995 81.2123 28.7833 82.8181 28.5169 84.417C28.3188 85.6196 27.9363 86.747 26.5908 87.1092C26.1058 87.239 25.573 87.1843 24.931 87.2185C24.5621 88.3664 23.8108 89.1591 22.3969 89.0224C20.7576 88.8584 20.2795 87.649 19.938 85.9681C19.4462 86.9247 19.1388 87.6217 18.7563 88.2639C18.2441 89.1249 18.087 89.897 18.7222 90.8195C19.0705 91.3183 19.2208 92.0358 19.2481 92.6644C19.2959 93.9148 19.2276 95.1721 19.1388 96.4225C19.0569 97.6183 18.9066 98.8141 19.1388 100.229C19.5487 99.7707 19.8424 99.4564 20.1088 99.1216C20.785 98.2606 21.427 97.3723 22.11 96.5182C22.6906 95.7939 23.3941 95.5616 24.0157 95.8349C24.6304 96.1082 24.9241 96.7779 24.8217 97.7003C24.8012 97.8575 24.7671 98.0215 24.7261 98.1786C24.4529 99.1079 24.2343 100.065 23.8723 100.966C23.1824 102.682 23.2302 104.192 24.4733 105.715C26.3107 107.963 27.5197 110.587 28.4213 113.348C28.7287 114.291 28.9677 115.261 28.674 116.211C28.1686 117.871 27.5812 119.518 26.9596 121.137C26.6591 121.916 25.976 122.306 25.1495 122.374C24.7875 122.402 24.4187 122.408 24.0567 122.374C23.1209 122.265 22.513 122.716 22.0759 123.481C21.6729 124.185 21.3109 124.909 20.8737 125.593C20.2385 126.59 19.2413 126.904 18.1484 126.454C17.6293 126.242 17.1444 125.934 16.6594 125.654C16.4135 125.511 16.2086 125.299 15.9559 125.183C15.4026 124.93 14.5557 125.278 14.2961 125.832C14.0707 126.317 14.262 126.7 14.9382 127.068C15.0065 127.109 15.0884 127.123 15.1636 127.164C16.4682 127.834 16.837 128.579 16.5433 130.034C16.3862 130.827 16.195 131.619 15.9969 132.405C15.7168 133.478 15.9627 134.325 16.96 134.892C17.1717 135.015 17.3698 135.159 17.5474 135.323C18.5309 136.197 18.9134 138.022 18.3533 139.136C17.8342 140.174 16.3452 140.728 14.945 140.29C14.2278 140.065 13.538 139.682 12.8891 139.279C12.0284 138.739 11.7621 138.705 11.2634 139.6C10.4711 141.021 9.77443 142.47 10.2047 144.212C10.5326 145.531 10.0408 146.611 8.90697 147.362C8.43568 147.677 7.95072 147.991 7.43161 148.196C5.90162 148.797 5.25273 150.034 5.22541 151.531C5.18443 153.833 4.91121 156.122 5.08197 158.446C5.38934 162.737 5.75818 167.007 6.35242 171.264C7.48626 179.396 9.25532 187.39 11.8713 195.166C13.3877 199.655 15.1704 204.063 16.8575 208.49C17.1239 209.194 17.3629 209.946 18.1075 210.376C19.3847 211.114 20.1839 212.276 20.8396 213.56C21.6114 215.077 22.4857 216.547 23.1892 218.091C24.043 219.956 25.5047 220.906 27.4309 221.377C28.2027 221.569 28.9814 221.89 29.6508 222.314C31.1876 223.291 32.7108 224.302 34.1383 225.423C35.8459 226.762 36.8773 228.545 36.7475 230.786C36.6724 232.044 37.2393 232.775 38.2775 233.274C38.7146 233.485 39.1518 233.697 39.6026 233.875C41.5697 234.654 43.4686 235.542 45.0805 236.963C45.3196 237.175 45.6201 237.319 45.8797 237.51C46.6447 238.077 47.4848 238.214 48.4137 238.009C48.844 237.913 49.3085 237.838 49.7388 237.906C52.2729 238.31 54.6635 239.013 56.1867 241.316C56.7468 242.157 57.4639 242.642 58.5227 242.519C58.789 242.485 59.0827 242.594 59.356 242.648C62.2315 243.222 63.7615 245.245 64.7041 247.787C65.2779 249.331 64.9227 250.828 63.8913 252.133C63.4883 252.638 63.0512 253.117 62.6209 253.602C61.4939 254.88 61.1592 256.39 61.3914 258.023C61.4802 258.651 61.7602 259.259 61.9993 259.861C62.7575 261.76 62.9829 263.626 61.7056 265.416C61.6373 265.512 61.6236 265.642 61.5553 265.84C61.8832 266.106 62.2247 266.386 62.5731 266.653C67.3885 270.315 72.4156 273.663 77.6545 276.69C88.624 283.045 100.236 287.876 112.469 291.183C119.163 292.994 125.945 294.354 132.844 295.105C136.02 295.454 139.203 295.884 142.393 295.98C146.518 296.103 150.644 296.383 154.79 296.13C158.587 295.898 162.399 295.836 166.176 295.331C170.267 294.784 174.372 294.299 178.423 293.527C190.096 291.299 201.332 287.637 212.096 282.587C230.566 273.923 246.528 261.904 259.998 246.591C271.138 233.923 279.812 219.724 286.008 204.028C287.135 201.165 288.084 198.227 289.122 195.323C289.334 194.736 289.457 194.237 288.945 193.656L288.931 193.642ZM206.25 46.1932C206.366 45.4348 206.536 44.6832 206.769 43.952C207.151 42.7426 207.124 41.5741 206.714 40.3784C206.099 38.6018 206.796 36.3059 208.285 35.158C208.599 34.9188 208.995 34.6523 209.364 34.6455C210.15 34.625 210.423 34.1399 210.826 33.5932C211.263 32.9919 211.871 32.4726 212.506 32.0695C213.216 31.6185 214.029 31.3247 214.808 30.9898C216.14 30.4227 217.417 30.6345 218.647 31.3178C219.507 31.7961 219.828 32.4726 219.576 33.4429C219.241 34.7207 218.715 35.8754 217.574 36.6749C217.267 36.8935 217.028 37.2625 216.85 37.611C216.393 38.5061 215.785 39.2509 214.883 39.6882C214.166 40.0367 213.92 40.5629 213.906 41.335C213.872 43.1116 213.79 44.8881 213.681 46.6647C213.626 47.6282 213.763 48.5028 214.398 49.2818C214.958 49.9719 215.477 50.6962 216.003 51.4136C216.242 51.7416 216.502 52.0628 216.673 52.4181C217.076 53.2722 216.741 53.8325 215.792 53.9418C215.511 53.976 215.225 53.9418 214.945 53.9418L214.897 54.1195C214.098 53.8667 213.223 53.7574 212.52 53.3405C210.99 52.4454 209.521 51.4341 208.087 50.3887C207.165 49.7122 206.454 48.7966 206.27 47.6077C206.202 47.143 206.174 46.6442 206.25 46.1796V46.1932ZM114.456 97.7618C113.965 95.7324 115.201 94.6323 117.038 93.7918C117.393 93.6278 117.817 93.5459 118.213 93.5322C118.937 93.5049 119.408 93.8465 119.497 94.5503C119.593 95.3429 119.566 96.1492 119.586 96.9487C119.586 97.1127 119.559 97.2698 119.559 97.4338C119.559 98.2059 119.75 98.4246 120.494 98.5954C121.997 98.9371 122.605 99.7024 122.482 101.26C122.434 101.896 122.25 102.524 122.1 103.153C122.018 103.495 121.867 103.829 121.731 104.219C122.789 104.779 123.391 105.613 123.78 106.699C123.944 107.157 124.552 107.499 125.016 107.806C126.792 108.961 127.195 109.802 126.867 111.838C126.826 112.07 126.833 112.316 126.819 112.494C127.878 112.931 128.909 113.286 129.873 113.778C131.28 114.503 131.935 116.054 131.539 117.454C131.273 118.397 130.856 118.671 129.859 118.561C129.661 118.541 129.449 118.479 129.258 118.52C128.035 118.787 126.792 118.985 125.617 119.381C122.789 120.345 119.887 121.11 117.189 122.443C116.663 122.702 116.027 122.812 115.433 122.839C114.224 122.894 113.664 121.998 114.19 120.898C114.415 120.434 114.757 120.024 115.044 119.586C114.415 118.11 114.62 117.372 115.918 116.354C116.144 116.177 116.376 116.013 116.581 115.821C117.318 115.118 117.325 114.919 116.69 114.086C115.399 112.391 115.583 111.387 117.407 110.246C117.537 110.164 117.633 110.041 117.735 109.952C117.68 109.829 117.667 109.72 117.619 109.692C116.526 109.173 116.15 108.291 116.232 107.116C116.294 106.255 115.884 105.538 115.297 104.95C114.374 104.028 114.149 102.941 114.436 101.704C114.736 100.393 114.805 99.1147 114.47 97.755L114.456 97.7618ZM104.552 110.765C104.867 109.904 105.386 109.187 106.267 108.811C106.602 108.667 106.943 108.51 107.291 108.442C108.295 108.25 108.801 107.594 109.122 106.699C109.327 106.132 109.539 105.538 109.887 105.066C110.611 104.082 111.772 104.041 112.592 104.95C112.961 105.367 113.268 105.873 113.466 106.392C113.753 107.171 113.93 107.984 114.272 108.756C114.484 109.234 114.211 110.02 113.958 110.58C113.705 111.154 113.466 111.633 113.644 112.296C113.828 112.999 113.541 113.662 113.138 114.243C112.681 114.906 112.12 115.152 111.369 114.837C110.625 114.53 110.235 114.831 109.853 115.37C109.204 116.293 108.323 116.922 107.257 117.284C107.066 117.352 106.875 117.441 106.677 117.454C106.117 117.509 105.502 117.646 105.092 117.126C104.669 116.594 104.737 115.972 105.017 115.405C105.393 114.646 105.816 113.908 106.301 113.006C105.871 112.801 105.55 112.658 105.235 112.494C104.525 112.118 104.279 111.53 104.552 110.772V110.765ZM85.8167 77.2492C85.9329 76.8187 86.1104 76.4087 86.2744 75.9987C86.691 74.9533 86.691 74.9601 85.8987 74.2358C85.605 73.9625 85.3045 73.6755 85.0791 73.3475C84.5873 72.6437 84.6214 71.8989 85.0654 71.1815C85.5025 70.4777 86.1036 70.0745 86.9711 70.1155C87.6404 70.1429 88.1322 70.4298 88.4737 70.9902C88.8699 71.6461 89.2729 72.2953 89.6827 72.9786C90.0721 72.2679 90.4067 71.5436 90.8439 70.8808C91.6499 69.6577 92.4832 69.3844 93.7195 70.1224C94.6006 70.6485 95.3246 70.5597 96.0759 70.0609C97.6332 69.0291 99.2111 69.1931 100.809 69.89C101.8 70.3205 102.435 71.3181 102.414 72.3909C102.387 74.1743 101.103 75.8484 99.3613 76.3745C99.1291 76.4429 98.8969 76.5385 98.6578 76.5727C96.9775 76.7914 95.6115 77.5703 94.4571 78.8003C93.9312 79.3606 93.3096 79.8252 92.7086 80.3035C91.4108 81.3421 90.6731 81.144 90.0652 79.6271C90.0038 79.4767 89.9218 79.3401 89.8193 79.1351C88.9177 79.1897 88.1186 79.2854 87.3126 79.2717C86.0626 79.2444 85.4752 78.4449 85.8031 77.2423L85.8167 77.2492Z" fill="#141414"/>
<path d="M233.387 134.626C233.981 134.175 233.878 132.583 233.305 132.214C232.232 131.53 230.709 131.79 229.951 132.829C229.329 133.676 228.728 134.544 228.182 135.446C227.164 137.12 227.007 138.876 227.847 140.673C228.073 141.151 228.325 141.616 228.626 142.046C229.234 142.907 229.869 143.741 230.518 144.575C231.297 145.586 231.911 146.645 232.014 147.964C232.055 148.456 232.28 149.016 232.601 149.385C233.571 150.499 233.919 151.749 233.885 153.198C233.858 154.202 233.967 155.22 234.07 156.225C234.165 157.113 234.698 157.742 235.518 158.022C236.652 158.411 237.826 158.698 239.151 159.081C239.09 158.138 238.933 157.441 239.028 156.785C239.363 154.387 238.728 152.412 236.87 150.799C235.285 149.426 234.52 147.636 234.541 145.524C234.541 145.121 234.493 144.711 234.527 144.308C234.623 143.201 234.24 142.47 233.134 142.067C231.939 141.63 231.317 140.632 231.413 139.395C231.556 137.625 231.788 135.842 233.38 134.626H233.387Z" fill="#141414"/>
<path d="M115.283 104.957C115.877 105.545 116.287 106.262 116.219 107.123C116.13 108.298 116.505 109.18 117.605 109.699C117.66 109.726 117.673 109.836 117.721 109.959C117.619 110.048 117.516 110.171 117.393 110.253C115.576 111.394 115.385 112.398 116.676 114.093C117.311 114.926 117.305 115.118 116.567 115.828C116.362 116.026 116.13 116.19 115.904 116.361C114.607 117.386 114.408 118.117 115.03 119.593C114.743 120.024 114.402 120.441 114.176 120.905C113.65 121.998 114.21 122.9 115.419 122.846C116.014 122.818 116.649 122.709 117.175 122.449C119.873 121.117 122.776 120.352 125.603 119.388C126.778 118.985 128.028 118.794 129.244 118.527C129.428 118.486 129.64 118.548 129.845 118.568C130.842 118.678 131.266 118.404 131.525 117.461C131.922 116.061 131.266 114.509 129.859 113.785C128.896 113.293 127.864 112.938 126.806 112.501C126.819 112.316 126.819 112.077 126.853 111.845C127.181 109.808 126.778 108.975 125.002 107.813C124.538 107.512 123.93 107.171 123.766 106.706C123.377 105.62 122.776 104.786 121.717 104.226C121.854 103.836 122.004 103.508 122.086 103.16C122.236 102.538 122.42 101.903 122.468 101.267C122.591 99.7092 121.983 98.9439 120.481 98.6023C119.729 98.4315 119.552 98.2128 119.545 97.4407C119.545 97.2767 119.579 97.1195 119.572 96.9555C119.552 96.1561 119.586 95.3498 119.483 94.5572C119.395 93.8534 118.923 93.5049 118.199 93.539C117.803 93.5527 117.387 93.6347 117.025 93.7987C115.187 94.6323 113.944 95.7393 114.443 97.7687C114.77 99.1216 114.709 100.406 114.408 101.718C114.128 102.948 114.347 104.041 115.269 104.964L115.283 104.957Z" fill="url(#paint1_linear_308_277)"/>
<path d="M208.087 50.4023C209.515 51.4546 210.99 52.459 212.52 53.3542C213.223 53.7641 214.098 53.8803 214.897 54.1331L214.945 53.9555C215.225 53.9555 215.512 53.9828 215.792 53.9555C216.734 53.8461 217.069 53.279 216.673 52.4317C216.502 52.0696 216.242 51.7484 216.003 51.4273C215.477 50.7098 214.958 49.9855 214.398 49.2954C213.763 48.5164 213.626 47.6418 213.681 46.6783C213.783 44.9018 213.872 43.1252 213.906 41.3486C213.92 40.5765 214.173 40.0503 214.883 39.7019C215.785 39.2645 216.4 38.5197 216.85 37.6246C217.028 37.2761 217.26 36.9072 217.574 36.6885C218.708 35.889 219.241 34.7343 219.576 33.4565C219.828 32.4862 219.5 31.8098 218.647 31.3314C217.417 30.6481 216.14 30.4363 214.808 31.0035C214.029 31.3383 213.217 31.6321 212.506 32.0831C211.871 32.4862 211.263 33.0055 210.826 33.6068C210.43 34.1535 210.15 34.6386 209.364 34.6591C209.002 34.6659 208.599 34.9324 208.285 35.1716C206.796 36.3127 206.099 38.6154 206.714 40.392C207.131 41.5878 207.151 42.7562 206.769 43.9656C206.536 44.6968 206.366 45.4552 206.25 46.2069C206.174 46.6715 206.202 47.1703 206.27 47.635C206.448 48.8239 207.158 49.7395 208.087 50.416V50.4023Z" fill="url(#paint2_linear_308_277)"/>
<path d="M90.0792 79.6271C90.6871 81.144 91.4247 81.3421 92.7225 80.3035C93.3236 79.8252 93.9451 79.3537 94.4711 78.8003C95.6254 77.5703 96.9915 76.7914 98.6717 76.5727C98.9108 76.5385 99.143 76.4497 99.3753 76.3745C101.117 75.8484 102.401 74.1743 102.428 72.3909C102.449 71.3181 101.807 70.3205 100.823 69.89C99.2182 69.1931 97.6403 69.0223 96.0899 70.0609C95.3453 70.5597 94.6145 70.6485 93.7334 70.1224C92.4971 69.3844 91.6638 69.6577 90.8578 70.8808C90.4207 71.5436 90.086 72.2679 89.6967 72.9786C89.28 72.2953 88.8838 71.6393 88.4877 70.9902C88.1462 70.4299 87.6544 70.1429 86.985 70.1155C86.1175 70.0745 85.5096 70.4777 85.0793 71.1815C84.6354 71.9058 84.608 72.6437 85.093 73.3475C85.3184 73.6755 85.6189 73.9625 85.9126 74.2358C86.705 74.967 86.705 74.9533 86.2883 75.9987C86.1244 76.4087 85.9468 76.8255 85.8307 77.2492C85.5096 78.445 86.0902 79.2512 87.3402 79.2786C88.1393 79.2922 88.9453 79.1966 89.8469 79.1419C89.9494 79.3469 90.0313 79.4836 90.0928 79.6339L90.0792 79.6271Z" fill="url(#paint3_linear_308_277)"/>
<path d="M105.228 112.494C105.542 112.658 105.863 112.801 106.294 113.006C105.809 113.908 105.385 114.646 105.009 115.404C104.729 115.978 104.661 116.593 105.085 117.126C105.501 117.646 106.109 117.509 106.669 117.454C106.867 117.434 107.059 117.345 107.25 117.284C108.315 116.915 109.196 116.293 109.845 115.37C110.228 114.824 110.624 114.523 111.362 114.837C112.113 115.152 112.673 114.906 113.131 114.243C113.534 113.662 113.821 112.999 113.636 112.295C113.459 111.633 113.698 111.154 113.95 110.58C114.203 110.02 114.476 109.234 114.265 108.756C113.916 107.977 113.746 107.171 113.459 106.392C113.267 105.872 112.96 105.36 112.584 104.95C111.765 104.034 110.604 104.082 109.88 105.066C109.531 105.544 109.319 106.139 109.115 106.699C108.787 107.601 108.281 108.257 107.284 108.442C106.929 108.51 106.594 108.667 106.259 108.811C105.378 109.186 104.859 109.904 104.545 110.765C104.265 111.53 104.511 112.118 105.228 112.487V112.494Z" fill="url(#paint4_linear_308_277)"/>
<defs>
<linearGradient id="paint0_linear_308_277" x1="5.19459e-05" y1="150.505" x2="301" y2="150.505" gradientUnits="userSpaceOnUse">
<stop stop-color="#DE922F"/>
<stop offset="1" stop-color="#FECF9A"/>
</linearGradient>
<linearGradient id="paint1_linear_308_277" x1="113.985" y1="108.189" x2="131.655" y2="108.189" gradientUnits="userSpaceOnUse">
<stop stop-color="#DE922F"/>
<stop offset="1" stop-color="#FECF9A"/>
</linearGradient>
<linearGradient id="paint2_linear_308_277" x1="206.209" y1="42.4009" x2="219.658" y2="42.4009" gradientUnits="userSpaceOnUse">
<stop stop-color="#DE922F"/>
<stop offset="1" stop-color="#FECF9A"/>
</linearGradient>
<linearGradient id="paint3_linear_308_277" x1="84.7242" y1="75.1378" x2="102.422" y2="75.1378" gradientUnits="userSpaceOnUse">
<stop stop-color="#DE922F"/>
<stop offset="1" stop-color="#FECF9A"/>
</linearGradient>
<linearGradient id="paint4_linear_308_277" x1="104.436" y1="110.902" x2="114.347" y2="110.902" gradientUnits="userSpaceOnUse">
<stop stop-color="#DE922F"/>
<stop offset="1" stop-color="#FECF9A"/>
</linearGradient>
</defs>
</svg>
