<svg width="25" height="25" viewBox="0 0 25 25" fill="none" xmlns="http://www.w3.org/2000/svg">
<path fill-rule="evenodd" clip-rule="evenodd" d="M12.9378 1.08801C12.7672 0.970663 12.5419 0.970663 12.3712 1.08801L1.21763 8.75795C0.813058 9.03615 1.00994 9.66994 1.50094 9.66994H23.8081C24.2991 9.66994 24.496 9.03615 24.0914 8.75795L12.9378 1.08801ZM3.8295 10.3042C3.27722 10.3042 2.8295 10.752 2.8295 11.3042V23.5398C2.8295 24.0921 3.27722 24.5398 3.8295 24.5398H6.36143V14.6538V13.6538H7.36143H12.3793H13.3793V14.6538V24.5398H21.3872C21.9395 24.5398 22.3872 24.0921 22.3872 23.5398V11.3042C22.3872 10.752 21.9395 10.3042 21.3872 10.3042H3.8295ZM12.3793 24.5398V14.6538H7.36143V24.5398H12.3793ZM19.8972 14.1538H15.2829V17.4807H19.8972V14.1538ZM15.2829 13.6538H14.7829V14.1538V17.4807V17.9807H15.2829H19.8972H20.3972V17.4807V14.1538V13.6538H19.8972H15.2829Z" fill="#4A3112"/>
</svg>
