<svg width="65" height="45" viewBox="0 0 65 45" fill="none" xmlns="http://www.w3.org/2000/svg">
<path fill-rule="evenodd" clip-rule="evenodd" d="M0.0737233 2.33497C0.288445 2.88527 0.609388 3.40089 1.03655 3.8475L29.1047 33.1934C30.8225 34.9895 33.6076 34.9895 35.3255 33.1934L63.963 3.25219C64.3266 2.87201 64.6132 2.44184 64.8229 1.98283C64.9374 2.30045 64.9998 2.64293 64.9998 3V42C64.9998 43.6569 63.6566 45 61.9998 45H2.99976C1.3429 45 -0.000244141 43.6569 -0.000244141 42V3C-0.000244141 2.77145 0.0253123 2.54888 0.0737233 2.33497ZM2.7926 0.00704009C2.57184 0.563044 2.67769 1.22736 3.11015 1.6795L31.1783 31.0254C31.7509 31.6241 32.6793 31.6241 33.2519 31.0254L61.8894 1.08419C62.1716 0.789068 62.3148 0.403549 62.3187 0.0167577C62.2139 0.00568027 62.1075 0 61.9998 0H2.99976C2.93013 0 2.86105 0.00237216 2.7926 0.00704009Z" fill="url(#paint0_linear_330_184)"/>
<defs>
<linearGradient id="paint0_linear_330_184" x1="32.4998" y1="0" x2="32.4998" y2="45" gradientUnits="userSpaceOnUse">
<stop stop-color="#8C5F28"/>
<stop offset="1" stop-color="#4A3112"/>
</linearGradient>
</defs>
</svg>
