<svg width="271" height="333" viewBox="0 0 271 333" fill="none" xmlns="http://www.w3.org/2000/svg">
<path fill-rule="evenodd" clip-rule="evenodd" d="M173.489 49.4297C188.044 49.4297 199.843 38.3645 199.843 24.7148C199.843 11.0652 188.044 0 173.489 0C158.934 0 147.135 11.0652 147.135 24.7148C147.135 38.3645 158.934 49.4297 173.489 49.4297ZM218.143 27.2707C221.473 22.2502 228.391 20.6409 233.595 23.6763C238.799 26.7118 240.318 33.2425 236.988 38.2631L214.037 72.8671C213.029 75.0489 211.288 76.8225 209.13 77.8719C206.49 79.3118 203.326 79.7176 200.391 78.914H197.717C197.899 80.1182 197.993 81.3511 197.993 82.6061V127.253C197.993 129.938 197.562 132.521 196.764 134.938L223.878 149.618C226.537 151.058 228.271 153.437 228.9 156.087C229.539 157.488 229.895 159.045 229.895 160.686V207.868C229.895 213.997 224.927 218.965 218.799 218.965C212.671 218.965 207.703 213.997 207.703 207.868V164.893L182.795 151.407C182.28 151.128 181.799 150.813 181.354 150.468C178.885 151.304 176.24 151.758 173.489 151.758L173.38 151.758V233.463C173.38 239.591 168.412 244.559 162.284 244.559C156.156 244.559 151.188 239.591 151.188 233.463V140.918H153.145C150.518 137.014 148.984 132.313 148.984 127.253V82.6061C148.984 82.0352 149.004 81.4688 149.042 80.9077L146.102 84.0528V97.7356C146.102 100.296 145.235 102.653 143.778 104.531C143.524 104.935 143.239 105.328 142.922 105.707L121.51 131.32C121.327 131.539 121.137 131.75 120.94 131.952C119.186 135.224 115.734 137.449 111.762 137.449H102.936C103.118 138.653 103.212 139.886 103.212 141.141V185.788C103.212 192.405 100.59 198.409 96.3279 202.818L115.118 212.991C116.787 213.895 118.092 215.169 118.987 216.648C120.955 218.65 122.168 221.395 122.168 224.424V258.31C122.168 264.438 117.2 269.406 111.072 269.406C104.944 269.406 99.9756 264.438 99.9756 258.31V228.825L62.0093 208.268C57.8511 206.017 55.9557 201.469 57.006 197.179C55.2161 193.776 54.2033 189.9 54.2033 185.788V141.141C54.2033 140.094 54.2689 139.063 54.3963 138.051L19.7898 177.875C15.868 182.389 8.83749 183.104 4.08684 179.473C-0.663806 175.843 -1.33566 169.241 2.5862 164.728L40.6656 120.906C41.8207 119.577 43.2454 118.577 44.8021 117.921C46.2888 117.102 47.9971 116.636 49.8142 116.636H105.586L123.909 94.7172V83.94C123.909 83.7337 123.915 83.5286 123.926 83.3251C123.767 80.9028 124.593 78.4158 126.441 76.4386L139.729 62.2257C140.856 61.0209 142.232 60.1444 143.719 59.6052C145.292 58.6509 147.137 58.1015 149.11 58.1015H197.695L218.143 27.2707ZM106.911 83.2498C106.911 96.8994 95.1119 107.965 80.5571 107.965C66.0023 107.965 54.2033 96.8994 54.2033 83.2498C54.2033 69.6002 66.0023 58.535 80.5571 58.535C95.1119 58.535 106.911 69.6002 106.911 83.2498ZM202.508 224.168H270.011V333H202.508V333H135.006L67.5028 333L0 333V303.516H67.5028V277.066H135.006V250.617H202.508V224.168ZM69.1386 217.23L88.3581 227.637L55.1095 281.643C51.9454 286.783 45.078 288.62 39.7707 285.746C34.4634 282.872 32.726 276.377 35.89 271.237L69.1386 217.23Z" fill="url(#paint0_linear_270_180)"/>
<defs>
<linearGradient id="paint0_linear_270_180" x1="243.657" y1="-1.78227e-05" x2="47.1561" y2="344.216" gradientUnits="userSpaceOnUse">
<stop stop-color="#FECF9A"/>
<stop offset="1" stop-color="#DE922F"/>
</linearGradient>
</defs>
</svg>
