<svg width="390" height="362" viewBox="0 0 390 362" fill="none" xmlns="http://www.w3.org/2000/svg">
<ellipse cx="258.241" cy="77.0612" rx="77.6573" ry="77.0612" fill="url(#paint0_linear_308_293)"/>
<path fill-rule="evenodd" clip-rule="evenodd" d="M127 360.946H389.439C387.336 259.95 329.392 179 258.22 179C187.047 179 129.103 259.95 127 360.946Z" fill="url(#paint1_linear_308_293)"/>
<path d="M0.983845 196.65C2.73662 200.468 9.32256 203.746 12.0136 207.264C15.8231 212.271 16.359 217.431 21.8408 221.691C25.7276 224.734 32.5513 226.027 37.0716 228.625C42.8746 231.954 46.8927 236.392 53.8439 238.908C64.2195 242.646 70.5197 242.08 82.6168 243.656C91.2256 244.765 105.303 248.607 114.507 248.441C121.48 248.316 128.304 247.816 134.919 246.943C132.766 242.284 127.847 237.995 124.336 233.775C120.412 229.072 117.719 224.516 112.302 220.5C107.52 216.964 101.155 215.474 95.3612 212.578C89.9131 209.846 85.1167 205.668 78.9195 203.609C70.9799 200.941 64.02 200.764 55.0821 199.32C50.4619 198.573 44.1752 196.101 39.3417 195.716C33.4813 195.256 27.0204 195.824 20.9313 195.934C13.958 196.059 7.59973 195.815 0.984261 196.669L0.983845 196.65Z" fill="#009444"/>
<path d="M200.487 159.492C193.646 161.1 188.477 164.308 182.178 166.99C175.879 169.671 168.293 171.853 162.637 175.494C157.872 178.572 154.389 183.762 150.251 187.419C145.714 191.436 140.592 193.964 136.915 198.594C134.4 201.769 132.46 206.587 130.426 210.021C128.393 213.455 126.215 215.456 124.691 219.087C123.168 222.718 122.937 227.384 121.98 231.086C120.929 235.131 119.224 238.161 118.86 242.371C118.411 247.479 118.511 252.469 119.114 257.312C125.722 255.766 130.994 250.927 137.098 248.396C142.841 246.006 149.406 245.983 154.583 242.812C159.76 239.64 160.692 234.791 164.624 230.519C168.557 226.246 175.622 222.487 177.214 217.463C179.585 209.996 178.822 197.717 182.025 190.217C185.229 182.716 191.877 182.084 192.577 173.937C193.026 168.829 201.106 164.313 200.504 159.47L200.487 159.492Z" fill="#009444"/>
<path d="M130.501 237.002C116.557 246.746 110.792 261.018 110.585 275.897C110.493 283.284 111.394 290.667 112.296 298.054C112.442 299.252 112.588 300.45 112.73 301.648C113.748 310.236 114.19 318.347 113.738 326.676C113.239 336.288 111.723 345.817 109.304 355.147C108.672 357.618 111.497 360.182 114.475 360.589C117.876 361.054 120.399 359.22 121.03 356.749C125.173 340.835 126.518 324.426 125.163 307.988C124.858 304.302 124.376 300.577 123.891 296.837C122.407 285.377 120.905 273.783 124.459 262.771C126.691 255.822 131.124 249.362 137.83 244.671C140.156 243.038 140.899 240.298 138.81 238.099C136.948 236.14 132.856 235.335 130.507 236.965L130.501 237.002Z" fill="#009444"/>
<path d="M130.501 237.002C116.557 246.746 110.792 261.018 110.585 275.897C110.493 283.284 111.394 290.667 112.296 298.054C112.442 299.252 112.588 300.45 112.73 301.648C113.748 310.236 114.19 318.347 113.738 326.676C113.239 336.288 111.723 345.817 109.304 355.147C108.672 357.618 111.497 360.182 114.475 360.589C117.876 361.054 120.399 359.22 121.03 356.749C125.173 340.835 126.518 324.426 125.163 307.988C124.858 304.302 124.376 300.577 123.891 296.837C122.407 285.377 120.905 273.783 124.459 262.771C126.691 255.822 131.124 249.362 137.83 244.671C140.156 243.038 140.899 240.298 138.81 238.099C136.948 236.14 132.856 235.335 130.507 236.965L130.501 237.002Z" stroke="#009444"/>
<defs>
<linearGradient id="paint0_linear_308_293" x1="258.241" y1="0" x2="258.241" y2="154.122" gradientUnits="userSpaceOnUse">
<stop stop-color="#DE922F"/>
<stop offset="1" stop-color="#FECF9A"/>
</linearGradient>
<linearGradient id="paint1_linear_308_293" x1="258.22" y1="179" x2="258.22" y2="360.946" gradientUnits="userSpaceOnUse">
<stop stop-color="#DE922F"/>
<stop offset="1" stop-color="#FECF9A"/>
</linearGradient>
</defs>
</svg>
