<svg width="390" height="349" viewBox="0 0 390 349" fill="none" xmlns="http://www.w3.org/2000/svg">
<ellipse cx="257.657" cy="77.0612" rx="77.6573" ry="77.0612" fill="url(#paint0_linear_308_293)"/>
<path fill-rule="evenodd" clip-rule="evenodd" d="M127 344.946H389.439C387.336 243.95 329.392 163 258.22 163C187.047 163 129.103 243.95 127 344.946Z" fill="url(#paint1_linear_308_293)"/>
<path d="M0.983845 180.65C2.73662 184.468 9.32256 187.746 12.0136 191.264C15.8231 196.271 16.359 201.431 21.8408 205.691C25.7276 208.734 32.5513 210.027 37.0716 212.625C42.8746 215.954 46.8927 220.392 53.8439 222.908C64.2195 226.646 70.5197 226.08 82.6168 227.656C91.2256 228.765 105.303 232.607 114.507 232.441C121.48 232.316 128.304 231.816 134.919 230.943C132.766 226.284 127.847 221.995 124.336 217.775C120.412 213.072 117.719 208.516 112.302 204.5C107.52 200.964 101.155 199.474 95.3612 196.578C89.9131 193.846 85.1167 189.668 78.9195 187.609C70.9799 184.941 64.02 184.764 55.0821 183.32C50.4619 182.573 44.1752 180.101 39.3417 179.716C33.4813 179.256 27.0204 179.824 20.9313 179.934C13.958 180.059 7.59973 179.815 0.984261 180.669L0.983845 180.65Z" fill="#009444"/>
<path d="M200.487 143.492C193.646 145.1 188.477 148.308 182.178 150.99C175.879 153.671 168.293 155.853 162.637 159.494C157.872 162.572 154.389 167.762 150.251 171.419C145.714 175.436 140.592 177.964 136.915 182.594C134.4 185.769 132.46 190.587 130.426 194.021C128.393 197.455 126.215 199.456 124.691 203.087C123.168 206.718 122.937 211.384 121.98 215.086C120.929 219.131 119.224 222.161 118.86 226.371C118.411 231.479 118.511 236.469 119.114 241.312C125.722 239.766 130.994 234.927 137.098 232.396C142.841 230.006 149.406 229.983 154.583 226.812C159.76 223.64 160.692 218.791 164.624 214.519C168.557 210.246 175.622 206.487 177.214 201.463C179.585 193.996 178.822 181.717 182.025 174.217C185.229 166.716 191.877 166.084 192.577 157.937C193.026 152.829 201.106 148.313 200.504 143.47L200.487 143.492Z" fill="#009444"/>
<path d="M125.488 219.111C115.167 232.635 114.015 247.983 118.342 262.221C120.501 269.286 123.604 276.045 126.709 282.808C127.212 283.905 127.716 285.002 128.216 286.1C131.796 293.972 134.684 301.564 136.787 309.637C139.234 318.945 140.468 335.376 141 345L147.5 345L152 345C151.107 328.58 148.277 303.606 141.987 288.359C140.577 284.94 138.984 281.538 137.385 278.123C132.487 267.657 127.53 257.068 127.568 245.498C127.581 238.198 129.84 230.696 134.801 224.189C136.52 221.926 136.395 219.09 133.736 217.63C131.367 216.33 127.224 216.807 125.482 219.074L125.488 219.111Z" fill="#009444"/>
<path d="M125.488 219.111C115.167 232.635 114.015 247.983 118.342 262.221C120.501 269.286 123.604 276.045 126.709 282.808C127.212 283.905 127.716 285.002 128.216 286.1C131.796 293.972 134.684 301.564 136.787 309.637C139.234 318.945 140.468 335.376 141 345L147.5 345L152 345C151.107 328.58 148.277 303.606 141.987 288.359C140.577 284.94 138.984 281.538 137.385 278.123C132.487 267.657 127.53 257.068 127.568 245.498C127.581 238.198 129.84 230.696 134.801 224.189C136.52 221.926 136.395 219.09 133.736 217.63C131.367 216.33 127.224 216.807 125.482 219.074L125.488 219.111Z" stroke="#009444"/>
<defs>
<linearGradient id="paint0_linear_308_293" x1="257.657" y1="0" x2="257.657" y2="154.122" gradientUnits="userSpaceOnUse">
<stop stop-color="#DE922F"/>
<stop offset="1" stop-color="#FECF9A"/>
</linearGradient>
<linearGradient id="paint1_linear_308_293" x1="258.22" y1="163" x2="258.22" y2="344.946" gradientUnits="userSpaceOnUse">
<stop stop-color="#DE922F"/>
<stop offset="1" stop-color="#FECF9A"/>
</linearGradient>
</defs>
</svg>
