<svg width="16" height="25" viewBox="0 0 16 25" fill="none" xmlns="http://www.w3.org/2000/svg">
<path fill-rule="evenodd" clip-rule="evenodd" d="M5.00641 2.99555C5.39763 1.98979 6.53541 1.47764 7.54771 1.85163L10.9242 3.09907C11.9364 3.47307 12.4399 4.59159 12.0487 5.59735C12.0174 5.67783 11.9813 5.75515 11.9409 5.82911L13.5716 6.43158C14.0117 6.59418 14.2306 7.0805 14.0605 7.51779L11.3277 6.50815C11.3277 6.50817 11.3277 6.50818 11.3277 6.5082L14.4465 7.66047C14.6666 7.74178 14.776 7.98493 14.691 8.20358C14.606 8.42222 14.3586 8.53356 14.1385 8.45226L9.51103 6.74261C9.50982 6.74217 9.50861 6.74172 9.5074 6.74127L6.13096 5.49384C6.12977 5.4934 6.12858 5.49295 6.12739 5.49251L1.51761 3.78941C1.29754 3.70811 1.18809 3.46495 1.27314 3.24631C1.35819 3.02766 1.60553 2.91633 1.82559 2.99763L4.92668 4.14334C4.92668 4.14331 4.92667 4.14328 4.92666 4.14325L2.21151 3.14014C2.38161 2.70285 2.8763 2.48017 3.31643 2.64278L4.92948 3.23873C4.94953 3.15724 4.9751 3.07604 5.00641 2.99555ZM11.1647 5.54236L5.66426 3.51019C5.88542 2.94177 6.52847 2.65233 7.10062 2.86371L10.5291 4.13037C11.1012 4.34175 11.3858 4.97391 11.1647 5.54236Z" fill="url(#paint0_linear_268_576)"/>
<path d="M13.7626 9.08496H0.587049C0.262831 9.08496 0 9.34779 0 9.67201V9.88206C0 10.0903 0.168789 10.2591 0.377 10.2591C0.567092 10.2591 0.727449 10.4006 0.751077 10.5892L2.32996 23.193C2.39264 23.6933 2.81799 24.0687 3.32221 24.0687H10.9222C11.424 24.0687 11.8481 23.6968 11.9136 23.1993L13.5731 10.5981C13.5987 10.4041 13.764 10.2591 13.9597 10.2591C14.1751 10.2591 14.3497 10.0845 14.3497 9.86912V9.67201C14.3497 9.34779 14.0868 9.08496 13.7626 9.08496Z" fill="url(#paint1_linear_268_576)"/>
<path d="M6.66235 12.5943C6.66235 12.3112 6.8918 12.0818 7.17484 12.0818C7.45788 12.0818 7.68733 12.3112 7.68733 12.5943V22.5574C7.68733 22.8404 7.45788 23.0699 7.17484 23.0699C6.8918 23.0699 6.66235 22.8404 6.66235 22.5574V12.5943Z" fill="#DE922F"/>
<path d="M10.7464 12.6978C10.7809 12.4241 11.0308 12.2288 11.3047 12.2616C11.5786 12.2944 11.7726 12.5428 11.7382 12.8164L10.4812 22.7934C10.4467 23.0671 10.1967 23.2623 9.92288 23.2296C9.64902 23.1968 9.45496 22.9484 9.48944 22.6747L10.7464 12.6978Z" fill="#DE922F"/>
<path d="M2.36467 12.8649C2.33019 12.5912 2.52425 12.3428 2.79812 12.31C3.07198 12.2773 3.32193 12.4725 3.35641 12.7462L4.61339 22.7232C4.64786 22.9968 4.4538 23.2452 4.17994 23.278C3.90608 23.3108 3.65612 23.1155 3.62165 22.8418L2.36467 12.8649Z" fill="#DE922F"/>
<defs>
<linearGradient id="paint0_linear_268_576" x1="8.23151" y1="6.38068" x2="9.62169" y2="2.61787" gradientUnits="userSpaceOnUse">
<stop stop-color="#FBE8D7"/>
<stop offset="1" stop-color="#FDCE9A"/>
</linearGradient>
<linearGradient id="paint1_linear_268_576" x1="7.17483" y1="9.08496" x2="7.17483" y2="24.0687" gradientUnits="userSpaceOnUse">
<stop stop-color="#FBE8D7"/>
<stop offset="1" stop-color="#FDCE9A"/>
</linearGradient>
</defs>
</svg>
