<svg width="290" height="331" viewBox="0 0 290 331" fill="none" xmlns="http://www.w3.org/2000/svg">
<path fill-rule="evenodd" clip-rule="evenodd" d="M244.48 10.2612C243.938 8.69539 244.769 6.98691 246.334 6.4452L264.485 0.165698C266.051 -0.37602 267.759 0.454158 268.301 2.01995L288.939 61.6729C289.481 63.2387 288.651 64.9472 287.085 65.4889L268.934 71.7684C267.369 72.3101 265.66 71.48 265.118 69.9142L244.48 10.2612ZM89.88 72.8038C89.3383 71.238 90.1685 69.5295 91.7343 68.9878L237.863 18.4317C239.429 17.89 241.137 18.7202 241.679 20.286L256.721 63.7637C257.262 65.3295 256.432 67.038 254.866 67.5797L161.398 99.917L265.516 323.198C266.668 325.669 265.599 328.607 263.127 329.759C260.656 330.912 257.718 329.843 256.566 327.371L159.585 119.394V311.702C159.585 314.428 157.374 316.639 154.647 316.639C151.921 316.639 149.71 314.428 149.71 311.702V120.924L53.4419 327.371C52.2895 329.843 49.3519 330.912 46.8806 329.759C44.4093 328.607 43.3401 325.669 44.4925 323.198L146.15 105.192L108.738 118.136C107.172 118.677 105.464 117.847 104.922 116.281L89.88 72.8038ZM39.1635 96.2314C37.5977 96.7731 36.7675 98.4816 37.3092 100.047L46.9703 127.972C47.512 129.538 49.2205 130.368 50.7863 129.826L94.8861 114.569C96.4519 114.027 97.2821 112.319 96.7404 110.753L87.0793 82.8284C86.5376 81.2626 84.8291 80.4325 83.2633 80.9742L39.1635 96.2314ZM11.2868 109.011C10.7519 107.465 9.06489 106.645 7.51876 107.18L2.01995 109.082C0.454159 109.624 -0.37602 111.332 0.165698 112.898L9.82676 140.823C10.3685 142.388 12.077 143.219 13.6427 142.677L19.1415 140.775C20.6876 140.24 21.5074 138.553 20.9725 137.006C20.4375 135.46 21.2573 133.773 22.8035 133.238L37.5797 128.126C39.1455 127.584 39.9757 125.876 39.434 124.31L33.6472 107.584C33.1055 106.018 31.397 105.188 29.8312 105.729L15.0549 110.842C13.5088 111.377 11.8217 110.557 11.2868 109.011ZM117.203 73.2033C116.661 71.6375 117.491 69.929 119.057 69.3873L220.456 34.3065C222.021 33.7648 223.73 34.595 224.272 36.1608L225.049 38.4078C225.591 39.9736 224.76 41.6821 223.195 42.2238L121.796 77.3046C120.231 77.8463 118.522 77.0161 117.98 75.4503L117.203 73.2033ZM45.7999 100.223C44.9806 100.506 44.5462 101.4 44.8296 102.219C45.1131 103.039 46.007 103.473 46.8263 103.189L79.4882 91.8895C80.3075 91.606 80.7419 90.7121 80.4584 89.8928C80.175 89.0735 79.281 88.6391 78.4617 88.9225L45.7999 100.223Z" fill="url(#paint0_linear_270_251)"/>
<defs>
<linearGradient id="paint0_linear_270_251" x1="302.156" y1="-4.44621" x2="-10.5423" y2="330.145" gradientUnits="userSpaceOnUse">
<stop stop-color="#FDCE9A"/>
<stop offset="1" stop-color="#DE922F"/>
</linearGradient>
</defs>
</svg>
