<svg width="14" height="23" viewBox="0 0 14 23" fill="none" xmlns="http://www.w3.org/2000/svg">
<path fill-rule="evenodd" clip-rule="evenodd" d="M5.04825 5.23152C5.10893 4.45573 5.17403 3.14184 5.22047 0.916651C5.23208 0.360481 4.9894 -0.0838994 4.44317 0.0134502C3.18969 0.236848 0.859807 1.20061 0.504169 2.60828C-0.034798 4.7416 -0.0168786 5.46932 0.0113672 6.61641L0.0113674 6.61642L0.0113689 6.61648C0.0148322 6.75714 0.0184507 6.90411 0.0212169 7.06075C0.0605035 9.28537 0.618205 13.4222 1.82883 15.5733C1.92924 15.7518 2.03242 15.9385 2.13924 16.1319C3.32024 18.2698 4.9459 21.2126 8.19543 22.5705C8.86072 22.8485 10.1075 22.7784 11.1922 22.5713C12.6404 22.2948 12.6571 21.1539 11.6204 20.094L9.27218 17.6932C8.94431 17.3579 8.55668 17.1567 8.09291 17.2072C7.52142 17.2694 6.74537 17.2559 6.35467 16.3894C5.89514 15.3701 3.74209 10.3783 3.4508 8.72286C3.30736 7.90763 3.59238 7.34251 3.94496 6.9689C4.01248 6.89735 4.08026 6.8276 4.14719 6.75872L4.14722 6.75869C4.59076 6.30223 4.99722 5.88395 5.04825 5.23152ZM5.56161 1.0556L5.37096 5.36448C5.34215 6.01559 5.78928 6.35471 6.30408 5.95717C6.75541 5.60864 6.92684 5.1225 6.95236 4.55168L7.11337 0.950998C7.10081 0.728036 6.90613 0.448558 6.65632 0.220383C6.09459 -0.292682 5.59518 0.296993 5.56161 1.0556ZM12.9667 20.8566L9.94862 17.7986C9.4057 17.2485 9.30139 16.4551 10.0573 16.3689C10.3862 16.3313 10.7139 16.3695 10.8824 16.5081L13.3171 18.9774C13.7577 19.4242 14.0225 19.9904 13.958 20.6249C13.895 21.2438 13.3966 21.2922 12.9667 20.8566Z" fill="url(#paint0_linear_268_624)"/>
<defs>
<linearGradient id="paint0_linear_268_624" x1="10.706" y1="5.50551" x2="-0.375252" y2="19.091" gradientUnits="userSpaceOnUse">
<stop stop-color="#FECF9A"/>
<stop offset="1" stop-color="#DE922F"/>
</linearGradient>
</defs>
</svg>
