<svg width="25" height="25" viewBox="0 0 25 25" fill="none" xmlns="http://www.w3.org/2000/svg">
<path fill-rule="evenodd" clip-rule="evenodd" d="M10.0482 6.23152C10.1089 5.45573 10.174 4.14184 10.2205 1.91665C10.2321 1.36048 9.9894 0.916101 9.44317 1.01345C8.18969 1.23685 5.85981 2.20061 5.50417 3.60828C4.9652 5.7416 4.98312 6.46932 5.01137 7.61641L5.01137 7.61642L5.01137 7.61648C5.01483 7.75714 5.01845 7.90411 5.02122 8.06075C5.0605 10.2854 5.6182 14.4222 6.82883 16.5733C6.92923 16.7517 7.03241 16.9385 7.13922 17.1319L7.13924 17.1319C8.32024 19.2698 9.9459 22.2126 13.1954 23.5705C13.8607 23.8485 15.1075 23.7784 16.1922 23.5713C17.6404 23.2948 17.6571 22.1539 16.6204 21.094L14.2722 18.6932C13.9443 18.3579 13.5567 18.1567 13.0929 18.2072C12.5214 18.2694 11.7454 18.2559 11.3547 17.3894C10.8951 16.3701 8.74209 11.3783 8.4508 9.72286C8.30736 8.90763 8.59238 8.34251 8.94496 7.9689C9.01248 7.89735 9.08026 7.8276 9.14719 7.75872L9.14722 7.75869C9.59077 7.30223 9.99722 6.88395 10.0482 6.23152ZM10.5616 2.0556L10.371 6.36448C10.3422 7.01559 10.7893 7.35471 11.3041 6.95717C11.7554 6.60864 11.9268 6.1225 11.9524 5.55168L12.1134 1.951C12.1008 1.72804 11.9061 1.44856 11.6563 1.22038C11.0946 0.707318 10.5952 1.29699 10.5616 2.0556ZM17.9667 21.8566L14.9486 18.7986C14.4057 18.2485 14.3014 17.4551 15.0573 17.3689C15.3862 17.3313 15.7139 17.3695 15.8824 17.5081L18.3171 19.9774C18.7577 20.4242 19.0225 20.9904 18.958 21.6249C18.895 22.2438 18.3966 22.2922 17.9667 21.8566Z" fill="#4A3112"/>
</svg>
