<svg width="36" height="55" viewBox="0 0 36 55" fill="none" xmlns="http://www.w3.org/2000/svg">
<path fill-rule="evenodd" clip-rule="evenodd" d="M16.1329 13.9596C17.0495 13.4338 17.2839 12.6405 17.3349 12.4041C17.3449 12.3579 17.3494 12.3118 17.3532 12.2646L18.1794 1.8476C18.1639 1.33266 17.7729 0.821144 17.2237 0.385943C15.9109 -0.654473 14.3502 0.559776 14.2186 2.22969L13.4906 11.4673C13.3618 13.1009 14.7115 14.7751 16.1329 13.9596ZM12.4969 9.84264C12.5913 8.70186 12.693 7.44904 12.7919 6.18744C13.1004 2.25031 9.89747 -1.12836 6.25661 0.401463C3.92494 1.38118 1.88359 2.92588 1.28863 5.20501C0.274059 9.09155 0.260818 10.2626 0.239292 12.1663V12.1664C0.228268 13.1413 0.215069 14.3084 0.0641174 16.1307C-0.386616 21.5718 1.57777 31.7406 4.64727 37.0192C4.90185 37.457 5.16344 37.9153 5.43425 38.3897L5.43432 38.3898C8.42871 43.6358 12.5506 50.8571 20.7897 54.1891C21.4735 54.4656 22.2588 54.6008 23.1042 54.6298C28.1688 54.8031 29.458 48.0966 25.8558 44.5324L25.6613 44.3399C24.5046 43.1954 22.8805 42.7331 21.2483 42.2686C19.9934 41.9114 18.7336 41.5529 17.6777 40.8818C17.0814 40.5028 16.5373 39.912 16.1225 39.0216C14.9573 36.5204 9.49831 24.2715 8.75976 20.2092C8.6032 19.3482 8.63616 18.6126 8.79027 17.9864C9.10603 16.7033 9.84314 15.5132 10.5789 14.3252C11.4727 12.8821 12.3645 11.4422 12.4969 9.84264ZM35.2781 46.9338C35.425 47.1258 35.8773 47.8185 35.6838 48.8573C35.3837 50.4683 33.234 50.4112 32.0733 49.2545L25.5097 42.7137C24.3232 41.5313 24.4099 39.5557 26.053 39.2301C26.7403 39.0939 27.3833 39.1276 27.7855 39.4495L35.1837 46.8295C35.2172 46.8629 35.2494 46.8963 35.2781 46.9338Z" fill="url(#paint0_linear_330_202)"/>
<defs>
<linearGradient id="paint0_linear_330_202" x1="24.9145" y1="23.6194" x2="0.400712" y2="46.1978" gradientUnits="userSpaceOnUse">
<stop stop-color="#895D26"/>
<stop offset="1" stop-color="#4A3112"/>
</linearGradient>
</defs>
</svg>
