<svg width="157" height="157" viewBox="0 0 157 157" fill="none" xmlns="http://www.w3.org/2000/svg">
<path fill-rule="evenodd" clip-rule="evenodd" d="M96.3094 1.41421L78.9129 18.8106L85.2046 25.1023L85.9117 25.8094L85.2046 26.5165L78.5594 33.1617L88.3535 42.9558L95.6023 35.7071L96.3094 35L97.0165 35.7071L103.558 42.2487L112.999 32.8082L106.707 26.5165L106 25.8094L106.707 25.1023L113.352 18.4571L96.3094 1.41421ZM77.8523 33.8688L87.6464 43.6629L78.2058 53.1035L68.4117 43.3094L77.8523 33.8688ZM67.7046 44.0165L77.4987 53.8106L70.8535 60.4558L70.1464 61.1629L70.8535 61.8701L77.1452 68.1617L67.7046 77.6023L61.1629 71.0607L60.4558 70.3536L59.7487 71.0607L53.2071 77.6023L43.663 68.0581L50.2046 61.5165L50.9117 60.8094L50.2046 60.1023L43.663 53.5607L53.2071 44.0165L59.7487 50.5581L60.4558 51.2652L61.1629 50.5581L67.7046 44.0165ZM52.5 78.3094L42.9558 68.7652L33.4117 78.3094L42.9558 87.8536L52.5 78.3094ZM42.2487 88.5607L32.7046 79.0165L26.163 85.5581L25.4558 86.2652L24.7487 85.5581L18.2071 79.0165L1.41421 95.8094L18.2071 112.602L24.7487 106.061L25.4558 105.354L26.163 106.061L32.7046 112.602L42.2487 103.058L35.7071 96.5165L35 95.8094L35.7071 95.1023L42.2487 88.5607ZM0.707107 96.5165L17.5 113.309L0.707107 130.102L0 130.809L0.707107 131.517L24.7487 155.558L25.4558 156.265L26.163 155.558L42.9558 138.765L59.7487 155.558L60.4558 156.265L61.1629 155.558L77.8523 138.869L94.8952 155.912L95.6023 156.619L96.3094 155.912L113.706 138.515L130.749 155.558L131.456 156.265L132.163 155.558L156.205 131.517L156.912 130.809L156.205 130.102L139.412 113.309L156.205 96.5165L156.912 95.8094L156.205 95.1023L139.412 78.3094L156.205 61.5165L156.912 60.8094L156.205 60.1023L139.412 43.3094L156.205 26.5165L156.912 25.8094L156.205 25.1023L132.163 1.06067L131.456 0.353559L130.749 1.06067L114.059 17.75L97.0165 0.707105L96.3094 0L95.6023 0.707105L78.2058 18.1035L61.1629 1.06067L60.4558 0.353559L59.7487 1.06067L42.9558 17.8536L26.163 1.06067L25.4558 0.353559L24.7487 1.06067L0.707107 25.1023L0 25.8094L0.707107 26.5165L17.5 43.3094L0.707107 60.1023L0 60.8094L0.707107 61.5165L17.5 78.3094L0.707107 95.1023L0 95.8094L0.707107 96.5165ZM138.705 112.602L155.497 95.8094L138.705 79.0165L132.163 85.5581L131.456 86.2652L130.749 85.5581L124.207 79.0165L114.766 88.4571L121.058 94.7487L121.765 95.4558L121.058 96.1629L114.413 102.808L124.207 112.602L130.749 106.061L131.456 105.354L132.163 106.061L138.705 112.602ZM123.5 113.309L113.706 103.515L104.265 112.956L114.059 122.75L123.5 113.309ZM113.352 123.457L103.558 113.663L96.3094 120.912L95.6023 121.619L94.8952 120.912L88.3535 114.37L78.9129 123.811L85.2046 130.102L85.9117 130.809L85.2046 131.517L78.5594 138.162L95.6023 155.205L112.999 137.808L106.707 131.517L106 130.809L106.707 130.102L113.352 123.457ZM70.8535 131.87L77.1452 138.162L60.4558 154.851L43.663 138.058L50.2046 131.517L50.9117 130.809L50.2046 130.102L43.663 123.561L53.2071 114.017L59.7487 120.558L60.4558 121.265L61.1629 120.558L67.7046 114.017L77.4987 123.811L70.8535 130.456L70.1464 131.163L70.8535 131.87ZM87.6464 113.663L78.2058 123.104L68.4117 113.309L77.8523 103.869L87.6464 113.663ZM95.6023 105.707L88.3535 112.956L78.5594 103.162L85.2046 96.5165L85.9117 95.8094L85.2046 95.1023L78.9129 88.8107L88.3535 79.3701L94.8952 85.9117L95.6023 86.6188L96.3094 85.9117L103.558 78.6629L113.352 88.4571L106.707 95.1023L106 95.8094L106.707 96.5165L112.999 102.808L103.558 112.249L97.0165 105.707L96.3094 105L95.6023 105.707ZM121.058 129.749L114.766 123.457L124.207 114.017L130.749 120.558L131.456 121.265L132.163 120.558L138.705 114.017L155.497 130.809L131.456 154.851L114.413 137.808L121.058 131.163L121.765 130.456L121.058 129.749ZM113.706 137.101L120.351 130.456L114.059 124.164L107.414 130.809L113.706 137.101ZM137.997 113.309L131.456 106.768L124.914 113.309L131.456 119.851L137.997 113.309ZM138.705 77.6023L155.497 60.8094L138.705 44.0165L132.163 50.5581L131.456 51.2652L130.749 50.5581L124.207 44.0165L114.766 53.4571L121.058 59.7487L121.765 60.4558L121.058 61.1629L114.413 67.8082L124.207 77.6023L130.749 71.0607L131.456 70.3536L132.163 71.0607L138.705 77.6023ZM123.5 78.3094L113.706 68.5153L104.265 77.9558L114.059 87.75L123.5 78.3094ZM96.3094 106.414L102.851 112.956L95.6023 120.205L89.0606 113.663L96.3094 106.414ZM71.5606 131.163L78.2058 124.518L84.4975 130.809L77.8523 137.455L71.5606 131.163ZM137.997 78.3094L131.456 71.7678L124.914 78.3094L131.456 84.851L137.997 78.3094ZM114.059 89.1642L120.351 95.4558L113.706 102.101L107.414 95.8094L114.059 89.1642ZM112.999 67.8082L103.558 77.2487L97.0165 70.7071L96.3094 70L95.6023 70.7071L88.3535 77.9558L78.5594 68.1617L85.2046 61.5165L85.9117 60.8094L85.2046 60.1023L78.9129 53.8106L88.3535 44.3701L94.8952 50.9117L95.6023 51.6188L96.3094 50.9117L103.558 43.6629L113.352 53.4571L106.707 60.1023L106 60.8094L106.707 61.5165L112.999 67.8082ZM78.2058 88.1035L87.6464 78.6629L77.8523 68.8688L68.4117 78.3094L78.2058 88.1035ZM67.7046 79.0165L77.4987 88.8106L70.8535 95.4558L70.1464 96.1629L70.8535 96.8701L77.1452 103.162L67.7046 112.602L61.1629 106.061L60.4558 105.354L59.7487 106.061L53.2071 112.602L43.663 103.058L50.2046 96.5165L50.9117 95.8094L50.2046 95.1023L43.663 88.5607L53.2071 79.0165L59.7487 85.5581L60.4558 86.2652L61.1629 85.5581L67.7046 79.0165ZM52.5 113.309L42.9558 103.765L33.4117 113.309L42.9558 122.854L52.5 113.309ZM42.2487 123.561L32.7046 114.017L26.163 120.558L25.4558 121.265L24.7487 120.558L18.2071 114.017L1.41421 130.809L25.4558 154.851L42.2487 138.058L35.7071 131.517L35 130.809L35.7071 130.102L42.2487 123.561ZM66.9975 113.309L60.4558 106.768L53.9142 113.309L60.4558 119.851L66.9975 113.309ZM42.9558 124.268L36.4142 130.809L42.9558 137.351L49.4975 130.809L42.9558 124.268ZM96.3094 71.4142L102.851 77.9558L95.6023 85.2046L89.0606 78.6629L96.3094 71.4142ZM84.4975 95.8094L78.2058 89.5178L71.5606 96.1629L77.8523 102.455L84.4975 95.8094ZM42.2487 68.0581L32.7046 77.6023L26.163 71.0607L25.4558 70.3536L24.7487 71.0607L18.2071 77.6023L1.41421 60.8094L18.2071 44.0165L24.7487 50.5581L25.4558 51.2652L26.163 50.5581L32.7046 44.0165L42.2487 53.5607L35.7071 60.1023L35 60.8094L35.7071 61.5165L42.2487 68.0581ZM25.4558 119.851L18.9142 113.309L25.4558 106.768L31.9975 113.309L25.4558 119.851ZM66.9975 78.3094L60.4558 71.7678L53.9142 78.3094L60.4558 84.851L66.9975 78.3094ZM42.9558 89.2678L36.4142 95.8094L42.9558 102.351L49.4975 95.8094L42.9558 89.2678ZM25.4558 84.851L31.9975 78.3094L25.4558 71.7678L18.9142 78.3094L25.4558 84.851ZM138.705 42.6023L155.497 25.8094L131.456 1.76777L114.766 18.4571L121.058 24.7487L121.765 25.4558L121.058 26.1629L114.413 32.8082L124.207 42.6023L130.749 36.0607L131.456 35.3536L132.163 36.0607L138.705 42.6023ZM123.5 43.3094L113.706 33.5153L104.265 42.9558L114.059 52.75L123.5 43.3094ZM137.997 43.3094L131.456 36.7678L124.914 43.3094L131.456 49.851L137.997 43.3094ZM114.059 54.1642L107.414 60.8094L113.706 67.1011L120.351 60.4558L114.059 54.1642ZM71.5606 26.1629L78.2058 19.5178L84.4975 25.8094L77.8523 32.4546L71.5606 26.1629ZM95.6023 50.2046L89.0606 43.6629L96.3094 36.4142L102.851 42.9558L95.6023 50.2046ZM84.4975 60.8094L77.8523 67.4546L71.5606 61.1629L78.2058 54.5178L84.4975 60.8094ZM120.351 25.4558L113.706 32.101L107.414 25.8094L114.059 19.1642L120.351 25.4558ZM60.4558 1.76777L77.4987 18.8106L70.8535 25.4558L70.1464 26.1629L70.8535 26.8701L77.1452 33.1617L67.7046 42.6023L61.1629 36.0607L60.4558 35.3536L59.7487 36.0607L53.2071 42.6023L43.663 33.0581L50.2046 26.5165L50.9117 25.8094L50.2046 25.1023L43.663 18.5607L60.4558 1.76777ZM42.9558 52.8536L52.5 43.3094L42.9558 33.7652L33.4117 43.3094L42.9558 52.8536ZM66.9975 43.3094L60.4558 36.7678L53.9142 43.3094L60.4558 49.851L66.9975 43.3094ZM42.9558 67.351L49.4975 60.8094L42.9558 54.2678L36.4142 60.8094L42.9558 67.351ZM26.163 36.0607L32.7046 42.6023L42.2487 33.0581L35.7071 26.5165L35 25.8094L35.7071 25.1023L42.2487 18.5607L25.4558 1.76777L1.41421 25.8094L18.2071 42.6023L24.7487 36.0607L25.4558 35.3536L26.163 36.0607ZM25.4558 49.851L18.9142 43.3094L25.4558 36.7678L31.9975 43.3094L25.4558 49.851ZM42.9558 19.2678L36.4142 25.8094L42.9558 32.351L49.4975 25.8094L42.9558 19.2678Z" fill="url(#paint0_linear_457_3)"/>
<defs>
<linearGradient id="paint0_linear_457_3" x1="156.456" y1="-0.190609" x2="0.45581" y2="156.809" gradientUnits="userSpaceOnUse">
<stop stop-color="#DE922F"/>
<stop offset="1" stop-color="#784F19"/>
</linearGradient>
</defs>
</svg>
