<svg width="162" height="162" viewBox="0 0 162 162" fill="none" xmlns="http://www.w3.org/2000/svg">
<path fill-rule="evenodd" clip-rule="evenodd" d="M43.97 117.942C42.8215 116.793 40.9593 116.793 39.8108 117.942C38.6622 119.09 38.6622 120.952 39.8108 122.101C40.9593 123.249 42.8215 123.249 43.97 122.101C45.1185 120.952 45.1185 119.09 43.97 117.942ZM24.5603 98.5318C23.4117 97.3833 21.5496 97.3833 20.401 98.5318C19.2525 99.6803 19.2525 101.543 20.401 102.691C21.5496 103.84 23.4117 103.84 24.5603 102.691C25.7088 101.543 25.7088 99.6803 24.5603 98.5318ZM78.6303 156.761C79.7789 155.613 81.641 155.613 82.7896 156.761C83.9381 157.91 83.9381 159.772 82.7896 160.92C81.641 162.069 79.7789 162.069 78.6303 160.92C77.4818 159.772 77.4818 157.91 78.6303 156.761ZM59.2206 137.351C60.3692 136.203 62.2313 136.203 63.3798 137.351C64.5284 138.5 64.5284 140.362 63.3798 141.511C62.2313 142.659 60.3692 142.659 59.2206 141.511C58.0721 140.362 58.0721 138.5 59.2206 137.351ZM0.9913 79.122C2.13984 77.9735 4.00199 77.9735 5.15054 79.122C6.29908 80.2706 6.29908 82.1327 5.15054 83.2813C4.002 84.4298 2.13984 84.4298 0.991301 83.2813C-0.15724 82.1327 -0.157241 80.2706 0.9913 79.122ZM98.0401 137.351C99.1886 136.203 101.051 136.203 102.199 137.351C103.348 138.5 103.348 140.362 102.199 141.511C101.051 142.659 99.1886 142.659 98.0401 141.511C96.8915 140.362 96.8915 138.5 98.0401 137.351ZM82.7896 117.942C81.641 116.793 79.7789 116.793 78.6303 117.942C77.4818 119.09 77.4818 120.952 78.6303 122.101C79.7789 123.249 81.641 123.249 82.7896 122.101C83.9381 120.952 83.9381 119.09 82.7896 117.942ZM39.8108 79.122C40.9593 77.9735 42.8215 77.9735 43.97 79.122C45.1185 80.2706 45.1185 82.1327 43.97 83.2813C42.8215 84.4298 40.9593 84.4298 39.8108 83.2813C38.6622 82.1327 38.6622 80.2706 39.8108 79.122ZM24.5603 59.7123C23.4117 58.5637 21.5496 58.5637 20.401 59.7123C19.2525 60.8608 19.2525 62.723 20.401 63.8715C21.5496 65.02 23.4117 65.02 24.5603 63.8715C25.7088 62.723 25.7088 60.8608 24.5603 59.7123ZM59.2206 98.5318C60.3692 97.3833 62.2313 97.3833 63.3798 98.5318C64.5284 99.6803 64.5284 101.543 63.3799 102.691C62.2313 103.84 60.3692 103.84 59.2206 102.691C58.0721 101.543 58.0721 99.6803 59.2206 98.5318ZM121.609 117.942C120.461 116.793 118.598 116.793 117.45 117.942C116.301 119.09 116.301 120.952 117.45 122.101C118.598 123.249 120.461 123.249 121.609 122.101C122.758 120.952 122.758 119.09 121.609 117.942ZM98.0401 98.5318C99.1886 97.3833 101.051 97.3833 102.199 98.5318C103.348 99.6803 103.348 101.543 102.199 102.691C101.051 103.84 99.1886 103.84 98.0401 102.691C96.8915 101.543 96.8915 99.6803 98.0401 98.5318ZM63.3798 59.7123C62.2313 58.5637 60.3692 58.5637 59.2206 59.7123C58.0721 60.8608 58.0721 62.723 59.2206 63.8715C60.3692 65.02 62.2313 65.02 63.3798 63.8715C64.5284 62.723 64.5284 60.8608 63.3798 59.7123ZM39.8108 40.3025C40.9593 39.154 42.8215 39.154 43.97 40.3025C45.1185 41.4511 45.1185 43.3132 43.97 44.4617C42.8215 45.6103 40.9593 45.6103 39.8108 44.4617C38.6622 43.3132 38.6622 41.4511 39.8108 40.3025ZM82.7896 79.122C81.641 77.9735 79.7789 77.9735 78.6303 79.122C77.4818 80.2706 77.4818 82.1327 78.6303 83.2813C79.7789 84.4298 81.641 84.4298 82.7896 83.2813C83.9381 82.1327 83.9381 80.2706 82.7896 79.122ZM136.86 98.5318C138.008 97.3833 139.87 97.3833 141.019 98.5318C142.167 99.6803 142.167 101.543 141.019 102.691C139.87 103.84 138.008 103.84 136.86 102.691C135.711 101.543 135.711 99.6803 136.86 98.5318ZM121.609 79.122C120.461 77.9735 118.598 77.9735 117.45 79.122C116.301 80.2706 116.301 82.1327 117.45 83.2813C118.598 84.4298 120.461 84.4298 121.609 83.2813C122.758 82.1327 122.758 80.2706 121.609 79.122ZM78.6303 40.3025C79.7789 39.154 81.641 39.154 82.7896 40.3025C83.9381 41.451 83.9381 43.3132 82.7896 44.4617C81.641 45.6103 79.7789 45.6103 78.6303 44.4617C77.4818 43.3132 77.4818 41.451 78.6303 40.3025ZM63.3799 20.8927C62.2313 19.7442 60.3692 19.7442 59.2206 20.8927C58.0721 22.0413 58.0721 23.9034 59.2206 25.052C60.3692 26.2005 62.2313 26.2005 63.3799 25.052C64.5284 23.9034 64.5284 22.0413 63.3799 20.8927ZM98.0401 59.7123C99.1886 58.5637 101.051 58.5637 102.199 59.7123C103.348 60.8608 103.348 62.723 102.199 63.8715C101.051 65.02 99.1886 65.02 98.0401 63.8715C96.8915 62.723 96.8915 60.8608 98.0401 59.7123ZM160.429 79.122C159.28 77.9735 157.418 77.9735 156.269 79.122C155.121 80.2706 155.121 82.1327 156.269 83.2813C157.418 84.4298 159.28 84.4298 160.429 83.2813C161.577 82.1327 161.577 80.2706 160.429 79.122ZM136.86 59.7123C138.008 58.5637 139.87 58.5637 141.019 59.7123C142.167 60.8608 142.167 62.723 141.019 63.8715C139.87 65.02 138.008 65.02 136.86 63.8715C135.711 62.723 135.711 60.8608 136.86 59.7123ZM102.199 20.8927C101.051 19.7442 99.1886 19.7442 98.0401 20.8927C96.8915 22.0413 96.8915 23.9034 98.0401 25.052C99.1886 26.2005 101.051 26.2005 102.199 25.052C103.348 23.9034 103.348 22.0413 102.199 20.8927ZM78.6303 1.48298C79.7789 0.334434 81.641 0.334434 82.7896 1.48298C83.9381 2.63152 83.9381 4.49367 82.7896 5.64221C81.641 6.79075 79.7789 6.79075 78.6303 5.64221C77.4818 4.49367 77.4818 2.63152 78.6303 1.48298ZM121.609 40.3025C120.461 39.154 118.598 39.154 117.45 40.3025C116.301 41.4511 116.301 43.3132 117.45 44.4617C118.598 45.6103 120.461 45.6103 121.609 44.4617C122.758 43.3132 122.758 41.4511 121.609 40.3025ZM79.1849 138.46C79.7209 137.924 80.5899 137.924 81.1259 138.46C81.6619 138.996 81.6619 139.865 81.1259 140.401C80.5899 140.937 79.7209 140.937 79.1849 140.401C78.6489 139.865 78.6489 138.996 79.1849 138.46ZM61.7162 119.051C61.1802 118.515 60.3112 118.515 59.7752 119.051C59.2392 119.587 59.2392 120.456 59.7752 120.992C60.3112 121.528 61.1802 121.528 61.7162 120.992C62.2521 120.456 62.2521 119.587 61.7162 119.051ZM20.9556 80.2312C21.4916 79.6952 22.3606 79.6952 22.8966 80.2312C23.4326 80.7671 23.4326 81.6361 22.8966 82.1721C22.3606 82.7081 21.4916 82.7081 20.9556 82.1721C20.4196 81.6362 20.4196 80.7671 20.9556 80.2312ZM42.3064 99.6409C41.7704 99.1049 40.9014 99.1049 40.3654 99.6409C39.8294 100.177 39.8294 101.046 40.3654 101.582C40.9014 102.118 41.7704 102.118 42.3064 101.582C42.8423 101.046 42.8423 100.177 42.3064 99.6409ZM98.5947 119.051C99.1307 118.515 99.9997 118.515 100.536 119.051C101.072 119.587 101.072 120.456 100.536 120.992C99.9997 121.528 99.1307 121.528 98.5947 120.992C98.0587 120.456 98.0587 119.587 98.5947 119.051ZM81.1259 99.6409C80.5899 99.1049 79.7209 99.1049 79.1849 99.6409C78.6489 100.177 78.6489 101.046 79.1849 101.582C79.7209 102.118 80.5899 102.118 81.1259 101.582C81.6619 101.046 81.6619 100.177 81.1259 99.6409ZM40.3654 60.8214C40.9014 60.2854 41.7704 60.2854 42.3064 60.8214C42.8423 61.3574 42.8423 62.2264 42.3064 62.7624C41.7704 63.2984 40.9014 63.2984 40.3654 62.7624C39.8294 62.2264 39.8294 61.3574 40.3654 60.8214ZM61.7162 80.2312C61.1802 79.6952 60.3112 79.6952 59.7752 80.2312C59.2392 80.7671 59.2392 81.6362 59.7752 82.1721C60.3112 82.7081 61.1802 82.7081 61.7162 82.1721C62.2521 81.6361 62.2521 80.7671 61.7162 80.2312ZM118.004 99.6409C118.54 99.1049 119.409 99.1049 119.945 99.6409C120.481 100.177 120.481 101.046 119.945 101.582C119.409 102.118 118.54 102.118 118.004 101.582C117.469 101.046 117.469 100.177 118.004 99.6409ZM100.536 80.2312C99.9997 79.6952 99.1307 79.6952 98.5947 80.2312C98.0587 80.7671 98.0587 81.6361 98.5947 82.1721C99.1307 82.7081 99.9997 82.7081 100.536 82.1721C101.072 81.6362 101.072 80.7671 100.536 80.2312ZM59.7752 41.4117C60.3112 40.8757 61.1802 40.8757 61.7162 41.4117C62.2521 41.9476 62.2521 42.8166 61.7162 43.3526C61.1802 43.8886 60.3112 43.8886 59.7752 43.3526C59.2392 42.8166 59.2392 41.9476 59.7752 41.4117ZM81.1259 60.8214C80.5899 60.2854 79.7209 60.2854 79.1849 60.8214C78.6489 61.3574 78.6489 62.2264 79.1849 62.7624C79.7209 63.2984 80.5899 63.2984 81.1259 62.7624C81.6619 62.2264 81.6619 61.3574 81.1259 60.8214ZM137.414 80.2312C137.95 79.6952 138.819 79.6952 139.355 80.2312C139.891 80.7671 139.891 81.6362 139.355 82.1721C138.819 82.7081 137.95 82.7081 137.414 82.1721C136.878 81.6362 136.878 80.7671 137.414 80.2312ZM119.945 60.8214C119.409 60.2854 118.54 60.2854 118.004 60.8214C117.469 61.3574 117.469 62.2264 118.004 62.7624C118.54 63.2984 119.409 63.2984 119.945 62.7624C120.481 62.2264 120.481 61.3574 119.945 60.8214ZM79.1849 22.0019C79.7209 21.4659 80.5899 21.4659 81.1259 22.0019C81.6619 22.5379 81.6619 23.4069 81.1259 23.9429C80.5899 24.4789 79.7209 24.4789 79.1849 23.9429C78.6489 23.4069 78.6489 22.5379 79.1849 22.0019ZM100.536 41.4117C99.9997 40.8757 99.1307 40.8757 98.5947 41.4116C98.0587 41.9476 98.0587 42.8166 98.5947 43.3526C99.1307 43.8886 99.9997 43.8886 100.536 43.3526C101.072 42.8166 101.072 41.9476 100.536 41.4117Z" fill="url(#paint0_linear_183_571)"/>
<defs>
<linearGradient id="paint0_linear_183_571" x1="39.8108" y1="122.101" x2="121.609" y2="40.3026" gradientUnits="userSpaceOnUse">
<stop stop-color="#884D05"/>
<stop offset="1" stop-color="#DE922F"/>
</linearGradient>
</defs>
</svg>
