<svg width="1728" height="2200" viewBox="0 0 1728 2200" fill="none" xmlns="http://www.w3.org/2000/svg">
<ellipse cx="982" cy="1354.5" rx="746" ry="706.5" fill="#FBE8D7"/>
<ellipse cx="366" cy="1505.5" rx="327" ry="309.5" fill="#FDCE9A"/>
<ellipse cx="824" cy="1722" rx="504" ry="477" fill="url(#paint0_radial_330_301)"/>
<ellipse cx="420.5" cy="579.5" rx="420.5" ry="398.5" fill="#FBE8D7"/>
<ellipse cx="583.5" cy="1041" rx="347.5" ry="329" fill="url(#paint1_radial_330_301)"/>
<ellipse cx="888" cy="712" rx="322" ry="305" fill="url(#paint2_radial_330_301)" fill-opacity="0.8"/>
<circle cx="609" cy="454" r="120" fill="#DE922F"/>
<ellipse cx="819.5" cy="185.5" rx="190.5" ry="185.5" fill="url(#paint3_radial_330_301)"/>
<path d="M703.358 1687.5C764.958 1933.9 953.692 2108.5 1040.36 2165L1024.86 2182.5L1015.86 2199.5C1015.86 2199.5 820.688 2112.11 686.861 1768C553.855 1426 636.54 1101.07 659.356 1014.5C676.356 950 803.855 700.5 873.355 628C973.355 492.5 1100.53 367.833 1163.36 333C994.355 474 986.329 491 873.355 647.5C753.909 812.967 718.025 935.167 703.358 971C643.858 1183 626.358 1379.5 703.358 1687.5Z" fill="#4A3112"/>
<path d="M759.5 1934.19C640.333 1960.02 371.8 1963.79 251 1772.19C379 1737.02 659.9 1720.19 759.5 1934.19Z" fill="#FECF9A"/>
<path d="M765.482 1868.96C836.952 1770.16 1034.35 1588.07 1252.21 1650.06C1180.39 1761.7 982.509 1961.78 765.482 1868.96Z" fill="#DE922F"/>
<path d="M753.263 1828.14C763.864 1720.95 853.161 1508.59 1125.54 1516.65C1123.07 1635.75 1045.15 1864.8 753.263 1828.14Z" fill="url(#paint4_linear_330_301)"/>
<path d="M396.231 1691.08C452.64 1657.58 589.314 1621.66 684.735 1745.93C625.447 1787.3 484.742 1834.25 396.231 1691.08Z" fill="url(#paint5_linear_330_301)"/>
<path d="M687.18 1607.72C719.136 1497.74 851.909 1290.65 1127.35 1342.14C1101.31 1465.83 976.808 1692.1 687.18 1607.72Z" fill="#DE922F"/>
<path d="M659.559 1470.09C682.56 1367.41 801.06 1180.72 1091.05 1255.45C1075.43 1371.84 967.262 1577.71 659.559 1470.09Z" fill="url(#paint6_linear_330_301)"/>
<path d="M239.202 1436.88C318.472 1387.3 510.823 1343.62 646.065 1565.62C562.788 1628.16 364.828 1689.97 239.202 1436.88Z" fill="#774304"/>
<path d="M279.066 971.773C370.036 939.151 562.23 958.941 603.247 1299.08C503.79 1346.83 299.714 1348.23 279.066 971.773Z" fill="url(#paint7_linear_330_301)"/>
<path d="M380.25 1047.25C444.801 1032.8 583.649 1048.45 622.632 1226.63C552.395 1248.72 405.587 1243.76 380.25 1047.25Z" fill="#884D05"/>
<path d="M653.508 1180.67C668.076 1116.15 741.643 997.355 919.363 1038.38C909.265 1111.31 841.958 1241.87 653.508 1180.67Z" fill="#FECF9A"/>
<path d="M863.486 668.151C883.345 608.851 968.505 513.613 1150.27 607.06C1134.45 675.986 1054.94 784.702 863.486 668.151Z" fill="url(#paint8_linear_330_301)"/>
<path d="M541.023 555.416C606.947 530.052 755.6 526.1 822.816 713.203C752.018 747.696 596.543 764.428 541.023 555.416Z" fill="#FECF9A"/>
<path d="M1045.29 143.12C1110.32 244.825 1163.85 491.667 857.698 665.394C775.173 558.556 697.158 304.528 1045.29 143.12Z" fill="url(#paint9_linear_330_301)"/>
<defs>
<radialGradient id="paint0_radial_330_301" cx="0" cy="0" r="1" gradientUnits="userSpaceOnUse" gradientTransform="translate(1137.5 1375) rotate(126.92) scale(797.4 742.759)">
<stop stop-color="#DE922F" stop-opacity="0"/>
<stop offset="0.28" stop-color="#DE922F" stop-opacity="0.0600443"/>
<stop offset="0.999263" stop-color="#DE9232"/>
</radialGradient>
<radialGradient id="paint1_radial_330_301" cx="0" cy="0" r="1" gradientUnits="userSpaceOnUse" gradientTransform="translate(393.5 1409.5) rotate(-61.5629) scale(752.173 794.52)">
<stop stop-color="#DE9232" stop-opacity="0"/>
<stop offset="0.425" stop-color="#DE9232"/>
<stop offset="0.9999" stop-color="#A26B25"/>
<stop offset="1" stop-color="#4A3112"/>
</radialGradient>
<radialGradient id="paint2_radial_330_301" cx="0" cy="0" r="1" gradientUnits="userSpaceOnUse" gradientTransform="translate(988.5 934) rotate(-123.552) scale(632.36 667.606)">
<stop stop-color="#DE9232"/>
<stop offset="1" stop-color="#FDCE9A"/>
</radialGradient>
<radialGradient id="paint3_radial_330_301" cx="0" cy="0" r="1" gradientUnits="userSpaceOnUse" gradientTransform="translate(751.5 297) rotate(-56.8723) scale(381.513 391.797)">
<stop stop-color="#DE922F"/>
<stop offset="1" stop-color="#784F19"/>
</radialGradient>
<linearGradient id="paint4_linear_330_301" x1="648.5" y1="1926" x2="934" y2="1687.5" gradientUnits="userSpaceOnUse">
<stop stop-color="#141414"/>
<stop offset="1" stop-color="#774304"/>
</linearGradient>
<linearGradient id="paint5_linear_330_301" x1="524.03" y1="1650.42" x2="558.425" y2="1792.75" gradientUnits="userSpaceOnUse">
<stop stop-color="#FBE8D7"/>
<stop offset="1" stop-color="#FECF9A"/>
</linearGradient>
<linearGradient id="paint6_linear_330_301" x1="997.065" y1="1192.42" x2="763.936" y2="1540.08" gradientUnits="userSpaceOnUse">
<stop stop-color="#FBE8D7"/>
<stop offset="1" stop-color="#FECF9A"/>
</linearGradient>
<linearGradient id="paint7_linear_330_301" x1="307" y1="984" x2="590" y2="1335" gradientUnits="userSpaceOnUse">
<stop stop-color="#FECF9A"/>
<stop offset="1" stop-color="#DE922F"/>
</linearGradient>
<linearGradient id="paint8_linear_330_301" x1="1034.5" y1="606" x2="756.5" y2="669.5" gradientUnits="userSpaceOnUse">
<stop stop-color="#DE922F"/>
<stop offset="1" stop-color="#784F19"/>
</linearGradient>
<linearGradient id="paint9_linear_330_301" x1="899.665" y1="170.764" x2="988.833" y2="640.501" gradientUnits="userSpaceOnUse">
<stop stop-color="#FECF9A"/>
<stop offset="1" stop-color="#DE922F"/>
</linearGradient>
</defs>
</svg>
