<svg width="27" height="23" viewBox="0 0 27 23" fill="none" xmlns="http://www.w3.org/2000/svg">
<path d="M26.5669 19.75H0.816895L0.87767 20.1748C1.08906 21.6525 2.35471 22.75 3.84744 22.75H23.5364C25.0291 22.75 26.2947 21.6525 26.5061 20.1748L26.5669 19.75Z" fill="#884D05"/>
<path d="M0.816895 6.48572C0.816895 4.82886 2.16004 3.48572 3.81689 3.48572H23.6112C25.268 3.48572 26.6112 4.82886 26.6112 6.48572V19.3086C26.6112 20.9654 25.268 22.3086 23.6112 22.3086H3.81689C2.16004 22.3086 0.816895 20.9654 0.816895 19.3086V6.48572Z" fill="url(#paint0_linear_268_541)"/>
<path fill-rule="evenodd" clip-rule="evenodd" d="M3.81689 3.48572C2.16004 3.48572 0.816895 4.82887 0.816895 6.48572V6.82738H26.6112V6.48572C26.6112 4.82886 25.268 3.48572 23.6112 3.48572H3.81689Z" fill="#FDCE9A"/>
<path d="M8.00993 15.9799H3.77555V15.2728C3.96045 15.0853 4.16227 14.9148 4.38102 14.7611C4.60238 14.6049 4.82633 14.4668 5.0529 14.347C5.29508 14.2194 5.49821 14.1062 5.66227 14.0072C5.82633 13.9056 5.95524 13.8002 6.04899 13.6908C6.14274 13.5892 6.20915 13.4786 6.24821 13.3588C6.28988 13.239 6.31071 13.1049 6.31071 12.9564C6.31071 12.6257 6.23258 12.3848 6.07633 12.2338C5.92008 12.0827 5.71305 12.0072 5.45524 12.0072C5.37451 12.0072 5.29769 12.0137 5.22477 12.0267C5.15446 12.0372 5.08024 12.058 5.00212 12.0892C5.04118 12.2064 5.07894 12.3275 5.1154 12.4525C5.15185 12.5775 5.17008 12.7168 5.17008 12.8705C5.17008 13.0554 5.10368 13.2025 4.97087 13.3119C4.83805 13.4213 4.66878 13.476 4.46305 13.476C4.26774 13.476 4.11149 13.4122 3.9943 13.2845C3.87972 13.1569 3.82243 13.002 3.82243 12.8197C3.82243 12.502 4.00732 12.2273 4.37712 11.9955C4.74691 11.7637 5.19743 11.6478 5.72868 11.6478C6.34326 11.6478 6.83935 11.7533 7.21696 11.9642C7.59717 12.1752 7.78727 12.515 7.78727 12.9838C7.78727 13.226 7.73649 13.4213 7.63493 13.5697C7.53597 13.7181 7.38883 13.8483 7.19352 13.9603C7.01904 14.0619 6.82503 14.1452 6.61149 14.2103C6.40055 14.2754 6.17399 14.3379 5.9318 14.3978C5.67399 14.4629 5.44873 14.5319 5.25602 14.6049C5.06592 14.6778 4.89665 14.765 4.74821 14.8666V14.9095H8.00993V15.9799ZM12.9865 12.3392C13.1844 12.5476 13.3302 12.7858 13.424 13.0541C13.5203 13.3197 13.5685 13.5957 13.5685 13.8822C13.5685 14.2233 13.5086 14.5319 13.3888 14.808C13.2716 15.0814 13.1102 15.3132 12.9045 15.5033C12.6883 15.7012 12.437 15.8523 12.1506 15.9564C11.8641 16.0606 11.5347 16.1127 11.1623 16.1127C10.769 16.1127 10.4214 16.0515 10.1193 15.9291C9.81982 15.8067 9.56982 15.6452 9.3693 15.4447C9.17139 15.2468 9.02034 15.0137 8.91618 14.7455C8.81462 14.4773 8.76383 14.1895 8.76383 13.8822C8.76383 13.5775 8.81201 13.295 8.90837 13.0345C9.00732 12.7741 9.15837 12.5385 9.36149 12.3275C9.55941 12.1218 9.81071 11.9577 10.1154 11.8353C10.4201 11.7103 10.7703 11.6478 11.1662 11.6478C11.575 11.6478 11.9318 11.7116 12.2365 11.8392C12.5412 11.9668 12.7912 12.1335 12.9865 12.3392ZM11.8849 15.2494C11.9604 15.0749 12.0138 14.8809 12.0451 14.6674C12.0789 14.4512 12.0959 14.1895 12.0959 13.8822C12.0959 13.6062 12.0802 13.3575 12.049 13.1361C12.0203 12.9148 11.9709 12.7181 11.9006 12.5463C11.8276 12.3692 11.7313 12.2325 11.6115 12.1361C11.4917 12.0398 11.3446 11.9916 11.1701 11.9916C10.993 11.9916 10.8446 12.0398 10.7248 12.1361C10.605 12.2299 10.5073 12.364 10.4318 12.5385C10.3641 12.6973 10.3146 12.8926 10.2834 13.1244C10.2521 13.3536 10.2365 13.6062 10.2365 13.8822C10.2365 14.1713 10.2495 14.4174 10.2756 14.6205C10.3042 14.8236 10.355 15.0189 10.4279 15.2064C10.493 15.3757 10.5868 15.5124 10.7091 15.6166C10.8315 15.7207 10.9826 15.7728 11.1623 15.7728C11.3289 15.7728 11.4735 15.726 11.5959 15.6322C11.7183 15.5385 11.8146 15.4108 11.8849 15.2494ZM18.6349 15.9799H14.4006V15.2728C14.5854 15.0853 14.7873 14.9148 15.006 14.7611C15.2274 14.6049 15.4513 14.4668 15.6779 14.347C15.9201 14.2194 16.1232 14.1062 16.2873 14.0072C16.4513 13.9056 16.5802 13.8002 16.674 13.6908C16.7677 13.5892 16.8341 13.4786 16.8732 13.3588C16.9149 13.239 16.9357 13.1049 16.9357 12.9564C16.9357 12.6257 16.8576 12.3848 16.7013 12.2338C16.5451 12.0827 16.3381 12.0072 16.0802 12.0072C15.9995 12.0072 15.9227 12.0137 15.8498 12.0267C15.7795 12.0372 15.7052 12.058 15.6271 12.0892C15.6662 12.2064 15.7039 12.3275 15.7404 12.4525C15.7769 12.5775 15.7951 12.7168 15.7951 12.8705C15.7951 13.0554 15.7287 13.2025 15.5959 13.3119C15.4631 13.4213 15.2938 13.476 15.0881 13.476C14.8927 13.476 14.7365 13.4122 14.6193 13.2845C14.5047 13.1569 14.4474 13.002 14.4474 12.8197C14.4474 12.502 14.6323 12.2273 15.0021 11.9955C15.3719 11.7637 15.8224 11.6478 16.3537 11.6478C16.9683 11.6478 17.4644 11.7533 17.842 11.9642C18.2222 12.1752 18.4123 12.515 18.4123 12.9838C18.4123 13.226 18.3615 13.4213 18.2599 13.5697C18.161 13.7181 18.0138 13.8483 17.8185 13.9603C17.644 14.0619 17.45 14.1452 17.2365 14.2103C17.0256 14.2754 16.799 14.3379 16.5568 14.3978C16.299 14.4629 16.0737 14.5319 15.881 14.6049C15.6909 14.6778 15.5216 14.765 15.3732 14.8666V14.9095H18.6349V15.9799ZM23.9123 15.9408H23.0724V17.4213H21.7638V15.9408H19.1779V15.222L21.9826 11.6713H23.0724V15.1166H23.9123V15.9408ZM21.7638 15.1166V12.6049L19.7756 15.1166H21.7638Z" fill="#884D05"/>
<rect x="6.21143" width="2.15782" height="5.39456" rx="1.07891" fill="#DE922F"/>
<rect x="19.1584" width="2.15782" height="5.39456" rx="1.07891" fill="#DE922F"/>
<defs>
<linearGradient id="paint0_linear_268_541" x1="13.714" y1="3.48572" x2="13.714" y2="22.3086" gradientUnits="userSpaceOnUse">
<stop stop-color="#FBE8D7"/>
<stop offset="1" stop-color="#FDCE9A"/>
</linearGradient>
</defs>
</svg>
