<svg width="21" height="21" viewBox="0 0 21 21" fill="none" xmlns="http://www.w3.org/2000/svg">
<path fill-rule="evenodd" clip-rule="evenodd" d="M20.5239 1.70711C20.9144 1.31658 20.9144 0.683416 20.5239 0.292892C20.1333 -0.0976321 19.5002 -0.0976321 19.1096 0.292892L10.7941 8.60843L2.47862 0.292946C2.0881 -0.097578 1.45493 -0.097578 1.06441 0.292946C0.673884 0.68347 0.673884 1.31664 1.06441 1.70716L9.37989 10.0226L1.06441 18.3381C0.673884 18.7287 0.673884 19.3618 1.06441 19.7523C1.45493 20.1429 2.0881 20.1429 2.47862 19.7523L10.7941 11.4369L19.1096 19.7524C19.5002 20.1429 20.1333 20.1429 20.5239 19.7524C20.9144 19.3619 20.9144 18.7287 20.5239 18.3382L12.2083 10.0226L20.5239 1.70711Z" fill="url(#paint0_linear_446_2782)"/>
<defs>
<linearGradient id="paint0_linear_446_2782" x1="12.3087" y1="-4.01643" x2="2.79297" y2="24.8905" gradientUnits="userSpaceOnUse">
<stop stop-color="#FDCE9A"/>
<stop offset="1" stop-color="#DE922F"/>
</linearGradient>
</defs>
</svg>
