<svg width="24" height="23" viewBox="0 0 24 23" fill="none" xmlns="http://www.w3.org/2000/svg">
<circle cx="16.385" cy="4.49629" r="4.49629" fill="url(#paint0_linear_183_203)"/>
<path fill-rule="evenodd" clip-rule="evenodd" d="M9.00806 20.0954H23.8607C23.7416 14.3354 20.4623 9.71863 16.4344 9.71863C12.4064 9.71863 9.1271 14.3354 9.00806 20.0954Z" fill="url(#paint1_linear_183_203)"/>
<g clip-path="url(#clip0_183_203)">
<path d="M0.479714 12.2799C0.634185 12.4758 1.04483 12.5699 1.24604 12.7347C1.53129 12.9695 1.63978 13.261 2.00507 13.4282C2.26444 13.548 2.65763 13.5235 2.94482 13.6083C3.31342 13.7168 3.60135 13.9156 4.02029 13.9602C4.64535 14.0258 4.98139 13.9011 5.66746 13.8161C6.15552 13.755 6.98469 13.7725 7.48576 13.6288C7.86539 13.5199 8.23112 13.3914 8.57967 13.2443C8.39036 13.0055 8.05539 12.8284 7.79856 12.6349C7.51174 12.4193 7.29445 12.1944 6.9365 12.0404C6.62057 11.905 6.24943 11.9114 5.888 11.8279C5.54799 11.7489 5.22145 11.5765 4.85079 11.5474C4.37542 11.5084 3.9919 11.5996 3.48071 11.6462C3.21644 11.6702 2.83454 11.6185 2.56417 11.6666C2.23644 11.7253 1.89165 11.8525 1.56016 11.9476C1.18053 12.0565 0.828885 12.135 0.480026 12.281L0.479714 12.2799Z" fill="#009444"/>
<path d="M12.148 7.12267C11.7714 7.25429 11.4978 7.47288 11.1577 7.66582C10.8175 7.85877 10.4021 8.02859 10.1035 8.27555C9.85199 8.48428 9.68448 8.81254 9.47154 9.05259C9.23812 9.31618 8.96347 9.49387 8.78192 9.78966C8.65775 9.99247 8.57512 10.2905 8.47955 10.5063C8.38398 10.7221 8.27234 10.853 8.20662 11.0779C8.14089 11.3028 8.15374 11.5828 8.12036 11.809C8.08353 12.0562 8.00423 12.2462 8.00709 12.4997C8.01009 12.8073 8.04341 13.105 8.10423 13.3913C8.46809 13.2645 8.73841 12.948 9.06838 12.765C9.37881 12.5923 9.74872 12.5569 10.0229 12.3404C10.2971 12.124 10.3227 11.8294 10.5206 11.5536C10.7186 11.2779 11.096 11.0165 11.1578 10.708C11.25 10.2495 11.1389 9.5196 11.2779 9.05472C11.4168 8.58984 11.788 8.51749 11.7823 8.02701C11.7793 7.71941 12.2096 7.40757 12.1488 7.12127L12.148 7.12267Z" fill="#009444"/>
<path d="M7.94609 12.9586C7.1852 13.8514 7.1427 14.7355 7.52271 15.4896C7.71218 15.8636 7.97413 16.2088 8.23625 16.5542C8.27876 16.6102 8.32128 16.6662 8.36349 16.7224C8.66597 17.1247 8.91374 17.5197 9.10194 17.9516C9.32071 18.4492 9.46294 18.9722 9.5338 19.5112C9.55325 19.6536 9.8279 19.701 10.0565 19.6354C10.3176 19.5605 10.4533 19.3954 10.4339 19.2529C10.3142 18.3331 9.97669 17.4692 9.44102 16.6819C9.32086 16.5054 9.18664 16.332 9.0519 16.158C8.63899 15.6247 8.22124 15.0851 8.18866 14.4288C8.16732 14.0149 8.3199 13.562 8.68569 13.1325C8.81236 12.9832 8.79396 12.8239 8.58278 12.7737C8.39459 12.729 8.07398 12.8068 7.94551 12.9566L7.94609 12.9586Z" fill="#009444"/>
<path d="M7.94609 12.9586C7.1852 13.8514 7.1427 14.7355 7.52271 15.4896C7.71218 15.8636 7.97413 16.2088 8.23625 16.5542C8.27876 16.6102 8.32128 16.6662 8.36349 16.7224C8.66597 17.1247 8.91374 17.5197 9.10194 17.9516C9.32071 18.4492 9.46294 18.9722 9.5338 19.5112C9.55325 19.6536 9.8279 19.701 10.0565 19.6354C10.3176 19.5605 10.4533 19.3954 10.4339 19.2529C10.3142 18.3331 9.97669 17.4692 9.44102 16.6819C9.32086 16.5054 9.18664 16.332 9.0519 16.158C8.63899 15.6247 8.22124 15.0851 8.18866 14.4288C8.16732 14.0149 8.3199 13.562 8.68569 13.1325C8.81236 12.9832 8.79396 12.8239 8.58278 12.7737C8.39459 12.729 8.07398 12.8068 7.94551 12.9566L7.94609 12.9586Z" stroke="#009444"/>
</g>
<defs>
<linearGradient id="paint0_linear_183_203" x1="16.385" y1="0" x2="16.385" y2="8.99257" gradientUnits="userSpaceOnUse">
<stop stop-color="#DE922F"/>
<stop offset="1" stop-color="#FECF9A"/>
</linearGradient>
<linearGradient id="paint1_linear_183_203" x1="16.4344" y1="9.71863" x2="16.4344" y2="20.0954" gradientUnits="userSpaceOnUse">
<stop stop-color="#DE922F"/>
<stop offset="1" stop-color="#FECF9A"/>
</linearGradient>
<clipPath id="clip0_183_203">
<rect width="12.6383" height="11.9731" fill="white" transform="translate(0 10.608) rotate(-16.0085)"/>
</clipPath>
</defs>
</svg>
