<svg width="15" height="20" viewBox="0 0 15 20" fill="none" xmlns="http://www.w3.org/2000/svg">
<path fill-rule="evenodd" clip-rule="evenodd" d="M3.39975 1.94757C3.39975 0.871957 4.27171 0 5.34732 0H8.98352C10.0591 0 10.9311 0.871957 10.9311 1.94757C10.9311 2.03365 10.9255 2.11843 10.9147 2.20157H12.6637C13.1314 2.20157 13.5105 2.58068 13.5105 3.04834H10.5904C10.5904 3.04835 10.5904 3.04836 10.5904 3.04837H13.9263C14.1601 3.04837 14.3497 3.23792 14.3497 3.47175C14.3497 3.70558 14.1601 3.89513 13.9263 3.89513L8.98352 3.89513H5.34732L0.423384 3.89513C0.189556 3.89513 0 3.70558 0 3.47175C0 3.23792 0.189555 3.04837 0.423384 3.04837H3.74046C3.74046 3.04836 3.74045 3.04835 3.74044 3.04834H0.838651C0.838651 2.58068 1.21776 2.20157 1.68542 2.20157H3.41616C3.40534 2.11843 3.39975 2.03365 3.39975 1.94757ZM4.20205 2.20157H10.0845C10.0845 1.59362 9.59167 1.10077 8.98372 1.10077H5.30285C4.6949 1.10077 4.20205 1.59362 4.20205 2.20157Z" fill="url(#paint0_linear_268_564)"/>
<path d="M13.7626 4.36865H0.587049C0.262831 4.36865 0 4.63148 0 4.9557V5.16575C0 5.37396 0.168789 5.54275 0.377 5.54275C0.567092 5.54275 0.727449 5.68427 0.751077 5.87289L2.32996 18.4767C2.39264 18.977 2.81799 19.3524 3.32221 19.3524H10.9222C11.424 19.3524 11.8481 18.9805 11.9136 18.483L13.5731 5.88178C13.5987 5.68778 13.764 5.54275 13.9597 5.54275C14.1751 5.54275 14.3497 5.36817 14.3497 5.15281V4.9557C14.3497 4.63148 14.0868 4.36865 13.7626 4.36865Z" fill="url(#paint1_linear_268_564)"/>
<path d="M6.66235 7.87797C6.66235 7.59493 6.8918 7.36548 7.17484 7.36548C7.45788 7.36548 7.68733 7.59493 7.68733 7.87797V17.8411C7.68733 18.1241 7.45788 18.3535 7.17484 18.3535C6.8918 18.3535 6.66235 18.1241 6.66235 17.8411V7.87797Z" fill="#DE922F"/>
<path d="M10.7462 7.98133C10.7806 7.70768 11.0306 7.51241 11.3045 7.54518C11.5783 7.57795 11.7724 7.82635 11.7379 8.1L10.4809 18.077C10.4465 18.3506 10.1965 18.5459 9.92264 18.5131C9.64877 18.4804 9.45471 18.232 9.48919 17.9583L10.7462 7.98133Z" fill="#DE922F"/>
<path d="M2.36467 8.14857C2.33019 7.87491 2.52425 7.62651 2.79812 7.59374C3.07198 7.56097 3.32193 7.75624 3.35641 8.02989L4.61339 18.0069C4.64786 18.2805 4.4538 18.5289 4.17994 18.5617C3.90608 18.5945 3.65612 18.3992 3.62165 18.1255L2.36467 8.14857Z" fill="#DE922F"/>
<defs>
<linearGradient id="paint0_linear_268_564" x1="7.64658" y1="3.99872" x2="7.64658" y2="3.32463e-08" gradientUnits="userSpaceOnUse">
<stop stop-color="#FBE8D7"/>
<stop offset="1" stop-color="#FDCE9A"/>
</linearGradient>
<linearGradient id="paint1_linear_268_564" x1="7.17483" y1="4.36865" x2="7.17483" y2="19.3524" gradientUnits="userSpaceOnUse">
<stop stop-color="#FBE8D7"/>
<stop offset="1" stop-color="#FDCE9A"/>
</linearGradient>
</defs>
</svg>
