<svg width="117" height="117" viewBox="0 0 117 117" fill="none" xmlns="http://www.w3.org/2000/svg">
<path fill-rule="evenodd" clip-rule="evenodd" d="M58.7518 6.75456C60.3761 6.75456 61.6928 5.43782 61.6928 3.81354C61.6928 2.18926 60.3761 0.872515 58.7518 0.872515C57.1275 0.872515 55.8108 2.18926 55.8108 3.81354C55.8108 5.43782 57.1275 6.75456 58.7518 6.75456ZM86.2013 6.75458C87.8256 6.75458 89.1423 5.43784 89.1423 3.81356C89.1423 2.18928 87.8256 0.872537 86.2013 0.872537C84.577 0.872537 83.2603 2.18928 83.2603 3.81356C83.2603 5.43784 84.577 6.75458 86.2013 6.75458ZM6.79367 3.81358C6.79367 5.43786 5.47693 6.7546 3.85264 6.7546C2.22836 6.7546 0.911621 5.43786 0.911621 3.81358C0.911621 2.1893 2.22836 0.872559 3.85264 0.872559C5.47693 0.872559 6.79367 2.1893 6.79367 3.81358ZM34.2432 3.8136C34.2432 5.43789 32.9264 6.75463 31.3022 6.75463C29.6779 6.75463 28.3611 5.43789 28.3611 3.8136C28.3611 2.18932 29.6779 0.87258 31.3022 0.87258C32.9264 0.87258 34.2432 2.18932 34.2432 3.8136ZM116.592 3.81359C116.592 5.43787 115.275 6.75462 113.651 6.75462C112.027 6.75462 110.71 5.43787 110.71 3.81359C110.71 2.18931 112.027 0.872569 113.651 0.872569C115.275 0.872569 116.592 2.18931 116.592 3.81359ZM6.79369 31.2631C6.79369 32.8874 5.47695 34.2041 3.85267 34.2041C2.22838 34.2041 0.911643 32.8874 0.911643 31.2631C0.911643 29.6388 2.22838 28.3221 3.85267 28.3221C5.47695 28.3221 6.79369 29.6388 6.79369 31.2631ZM31.3022 34.2042C32.9265 34.2042 34.2432 32.8874 34.2432 31.2631C34.2432 29.6388 32.9265 28.3221 31.3022 28.3221C29.6779 28.3221 28.3612 29.6388 28.3612 31.2631C28.3612 32.8874 29.6779 34.2042 31.3022 34.2042ZM89.1423 31.2631C89.1423 32.8874 87.8256 34.2041 86.2013 34.2041C84.577 34.2041 83.2603 32.8874 83.2603 31.2631C83.2603 29.6388 84.577 28.3221 86.2013 28.3221C87.8256 28.3221 89.1423 29.6388 89.1423 31.2631ZM113.651 34.2041C115.275 34.2041 116.592 32.8874 116.592 31.2631C116.592 29.6388 115.275 28.3221 113.651 28.3221C112.027 28.3221 110.71 29.6388 110.71 31.2631C110.71 32.8874 112.027 34.2041 113.651 34.2041ZM61.6927 31.2631C61.6927 32.8874 60.376 34.2042 58.7517 34.2042C57.1274 34.2042 55.8107 32.8874 55.8107 31.2631C55.8107 29.6389 57.1274 28.3221 58.7517 28.3221C60.376 28.3221 61.6927 29.6389 61.6927 31.2631ZM3.8526 61.6537C5.47688 61.6537 6.79362 60.337 6.79362 58.7127C6.79362 57.0884 5.47688 55.7717 3.8526 55.7717C2.22832 55.7717 0.911578 57.0884 0.911578 58.7127C0.911578 60.337 2.22832 61.6537 3.8526 61.6537ZM34.2432 58.7127C34.2432 60.3369 32.9265 61.6537 31.3022 61.6537C29.6779 61.6537 28.3612 60.3369 28.3612 58.7127C28.3612 57.0884 29.6779 55.7716 31.3022 55.7716C32.9265 55.7716 34.2432 57.0884 34.2432 58.7127ZM86.2013 61.6537C87.8256 61.6537 89.1423 60.337 89.1423 58.7127C89.1423 57.0884 87.8256 55.7717 86.2013 55.7717C84.577 55.7717 83.2602 57.0884 83.2602 58.7127C83.2602 60.337 84.577 61.6537 86.2013 61.6537ZM116.592 58.7126C116.592 60.3369 115.275 61.6537 113.651 61.6537C112.027 61.6537 110.71 60.3369 110.71 58.7126C110.71 57.0884 112.027 55.7716 113.651 55.7716C115.275 55.7716 116.592 57.0884 116.592 58.7126ZM58.7517 61.6537C60.376 61.6537 61.6928 60.337 61.6928 58.7127C61.6928 57.0884 60.376 55.7717 58.7517 55.7717C57.1275 55.7717 55.8107 57.0884 55.8107 58.7127C55.8107 60.337 57.1275 61.6537 58.7517 61.6537ZM6.79365 86.1622C6.79365 87.7865 5.4769 89.1033 3.85262 89.1033C2.22834 89.1033 0.9116 87.7865 0.9116 86.1622C0.9116 84.538 2.22834 83.2212 3.85262 83.2212C5.4769 83.2212 6.79365 84.538 6.79365 86.1622ZM31.3021 89.1033C32.9264 89.1033 34.2432 87.7865 34.2432 86.1623C34.2432 84.538 32.9264 83.2212 31.3021 83.2212C29.6779 83.2212 28.3611 84.538 28.3611 86.1623C28.3611 87.7865 29.6779 89.1033 31.3021 89.1033ZM89.1423 86.1622C89.1423 87.7865 87.8256 89.1033 86.2013 89.1033C84.577 89.1033 83.2603 87.7865 83.2603 86.1622C83.2603 84.5379 84.577 83.2212 86.2013 83.2212C87.8256 83.2212 89.1423 84.5379 89.1423 86.1622ZM113.651 89.1033C115.275 89.1033 116.592 87.7865 116.592 86.1623C116.592 84.538 115.275 83.2212 113.651 83.2212C112.027 83.2212 110.71 84.538 110.71 86.1623C110.71 87.7865 112.027 89.1033 113.651 89.1033ZM61.6928 86.1622C61.6928 87.7865 60.376 89.1032 58.7518 89.1032C57.1275 89.1032 55.8107 87.7865 55.8107 86.1622C55.8107 84.5379 57.1275 83.2212 58.7518 83.2212C60.376 83.2212 61.6928 84.5379 61.6928 86.1622ZM3.85265 116.553C5.47694 116.553 6.79368 115.236 6.79368 113.612C6.79368 111.987 5.47694 110.671 3.85265 110.671C2.22837 110.671 0.911632 111.987 0.911632 113.612C0.911632 115.236 2.22837 116.553 3.85265 116.553ZM34.2432 113.612C34.2432 115.236 32.9265 116.553 31.3022 116.553C29.6779 116.553 28.3612 115.236 28.3612 113.612C28.3612 111.988 29.6779 110.671 31.3022 110.671C32.9265 110.671 34.2432 111.988 34.2432 113.612ZM86.2013 116.553C87.8256 116.553 89.1423 115.236 89.1423 113.612C89.1423 111.987 87.8256 110.671 86.2013 110.671C84.577 110.671 83.2603 111.987 83.2603 113.612C83.2603 115.236 84.577 116.553 86.2013 116.553ZM116.592 113.612C116.592 115.236 115.275 116.553 113.651 116.553C112.027 116.553 110.71 115.236 110.71 113.612C110.71 111.988 112.027 110.671 113.651 110.671C115.275 110.671 116.592 111.988 116.592 113.612ZM58.7517 116.553C60.376 116.553 61.6927 115.236 61.6927 113.612C61.6927 111.988 60.376 110.671 58.7517 110.671C57.1274 110.671 55.8107 111.988 55.8107 113.612C55.8107 115.236 57.1274 116.553 58.7517 116.553ZM19.342 17.1462C19.342 17.9042 18.7275 18.5187 17.9696 18.5187C17.2116 18.5187 16.5971 17.9042 16.5971 17.1462C16.5971 16.3882 17.2116 15.7737 17.9696 15.7737C18.7275 15.7737 19.342 16.3882 19.342 17.1462ZM45.4191 18.5187C46.1771 18.5187 46.7916 17.9042 46.7916 17.1462C46.7916 16.3882 46.1771 15.7738 45.4191 15.7738C44.6611 15.7738 44.0466 16.3882 44.0466 17.1462C44.0466 17.9042 44.6611 18.5187 45.4191 18.5187ZM101.691 17.1462C101.691 17.9042 101.076 18.5187 100.318 18.5187C99.5602 18.5187 98.9457 17.9042 98.9457 17.1462C98.9457 16.3882 99.5602 15.7737 100.318 15.7737C101.076 15.7737 101.691 16.3882 101.691 17.1462ZM72.8686 18.5187C73.6266 18.5187 74.2411 17.9042 74.2411 17.1462C74.2411 16.3882 73.6266 15.7737 72.8686 15.7737C72.1106 15.7737 71.4962 16.3882 71.4962 17.1462C71.4962 17.9042 72.1106 18.5187 72.8686 18.5187ZM19.342 44.5958C19.342 45.3538 18.7275 45.9683 17.9695 45.9683C17.2115 45.9683 16.5971 45.3538 16.5971 44.5958C16.5971 43.8378 17.2115 43.2233 17.9695 43.2233C18.7275 43.2233 19.342 43.8378 19.342 44.5958ZM45.4191 45.9682C46.1771 45.9682 46.7916 45.3538 46.7916 44.5958C46.7916 43.8378 46.1771 43.2233 45.4191 43.2233C44.6611 43.2233 44.0466 43.8378 44.0466 44.5958C44.0466 45.3538 44.6611 45.9682 45.4191 45.9682ZM101.691 44.5958C101.691 45.3538 101.076 45.9682 100.318 45.9682C99.5602 45.9682 98.9457 45.3538 98.9457 44.5958C98.9457 43.8378 99.5602 43.2233 100.318 43.2233C101.076 43.2233 101.691 43.8378 101.691 44.5958ZM72.8686 45.9683C73.6266 45.9683 74.2411 45.3538 74.2411 44.5958C74.2411 43.8378 73.6266 43.2233 72.8686 43.2233C72.1106 43.2233 71.4962 43.8378 71.4962 44.5958C71.4962 45.3538 72.1106 45.9683 72.8686 45.9683ZM19.342 72.0454C19.342 72.8034 18.7275 73.4178 17.9695 73.4178C17.2115 73.4178 16.597 72.8034 16.597 72.0454C16.597 71.2874 17.2115 70.6729 17.9695 70.6729C18.7275 70.6729 19.342 71.2874 19.342 72.0454ZM45.4191 73.4178C46.1771 73.4178 46.7916 72.8033 46.7916 72.0453C46.7916 71.2873 46.1771 70.6729 45.4191 70.6729C44.6611 70.6729 44.0466 71.2873 44.0466 72.0453C44.0466 72.8033 44.6611 73.4178 45.4191 73.4178ZM101.691 72.0453C101.691 72.8033 101.076 73.4178 100.318 73.4178C99.5602 73.4178 98.9457 72.8033 98.9457 72.0453C98.9457 71.2873 99.5602 70.6729 100.318 70.6729C101.076 70.6729 101.691 71.2873 101.691 72.0453ZM72.8686 73.4178C73.6266 73.4178 74.2411 72.8033 74.2411 72.0453C74.2411 71.2873 73.6266 70.6728 72.8686 70.6728C72.1106 70.6728 71.4962 71.2873 71.4962 72.0453C71.4962 72.8033 72.1106 73.4178 72.8686 73.4178ZM19.342 99.4949C19.342 100.253 18.7275 100.867 17.9695 100.867C17.2115 100.867 16.5971 100.253 16.5971 99.4949C16.5971 98.7369 17.2115 98.1224 17.9695 98.1224C18.7275 98.1224 19.342 98.7369 19.342 99.4949ZM45.4191 100.867C46.1771 100.867 46.7915 100.253 46.7915 99.4949C46.7915 98.7369 46.1771 98.1224 45.4191 98.1224C44.6611 98.1224 44.0466 98.7369 44.0466 99.4949C44.0466 100.253 44.6611 100.867 45.4191 100.867ZM101.691 99.4949C101.691 100.253 101.076 100.867 100.318 100.867C99.5602 100.867 98.9457 100.253 98.9457 99.4949C98.9457 98.7369 99.5602 98.1224 100.318 98.1224C101.076 98.1224 101.691 98.7369 101.691 99.4949ZM72.8686 100.867C73.6266 100.867 74.2411 100.253 74.2411 99.4949C74.2411 98.7369 73.6266 98.1224 72.8686 98.1224C72.1106 98.1224 71.4961 98.7369 71.4961 99.4949C71.4961 100.253 72.1106 100.867 72.8686 100.867Z" fill="url(#paint0_linear_183_571)"/>
<defs>
<linearGradient id="paint0_linear_183_571" x1="0.999998" y1="117" x2="117" y2="1" gradientUnits="userSpaceOnUse">
<stop stop-color="#884D05"/>
<stop offset="1" stop-color="#DE922F"/>
</linearGradient>
</defs>
</svg>
