<svg width="446" height="117" viewBox="0 0 446 117" fill="none" xmlns="http://www.w3.org/2000/svg">
<path fill-rule="evenodd" clip-rule="evenodd" d="M61.6929 3.41016C61.6929 5.03442 60.3762 6.35132 58.7517 6.35132C57.1274 6.35132 55.8108 5.03442 55.8108 3.41016C55.8108 1.78589 57.1274 0.469238 58.7517 0.469238C60.3762 0.469238 61.6929 1.78589 61.6929 3.41016ZM89.1423 3.4104C89.1423 5.03467 87.8257 6.35132 86.2014 6.35132C84.5771 6.35132 83.2603 5.03467 83.2603 3.4104C83.2603 1.78589 84.5771 0.469238 86.2014 0.469238C87.8257 0.469238 89.1423 1.78589 89.1423 3.4104ZM3.85278 6.35132C5.47705 6.35132 6.7937 5.03467 6.7937 3.4104C6.7937 1.78613 5.47705 0.469238 3.85278 0.469238C2.22852 0.469238 0.911621 1.78613 0.911621 3.4104C0.911621 5.03467 2.22852 6.35132 3.85278 6.35132ZM31.3022 6.35132C32.9265 6.35132 34.2432 5.03467 34.2432 3.4104C34.2432 1.78613 32.9265 0.469238 31.3022 0.469238C29.678 0.469238 28.3611 1.78613 28.3611 3.4104C28.3611 5.03467 29.678 6.35132 31.3022 6.35132ZM116.449 4.31665C116.542 4.03125 116.592 3.72656 116.592 3.4104C116.592 1.78613 115.275 0.469238 113.651 0.469238C112.338 0.469238 111.226 1.32959 110.848 2.51709C110.752 2.80786 110.7 3.11816 110.7 3.44116C110.7 5.06543 112.017 6.38208 113.641 6.38208C114.961 6.38208 116.077 5.51343 116.449 4.31665ZM3.85278 33.8008C5.47705 33.8008 6.7937 32.4841 6.7937 30.8599C6.7937 29.2356 5.47705 27.9187 3.85278 27.9187C2.22852 27.9187 0.911621 29.2356 0.911621 30.8599C0.911621 32.4841 2.22852 33.8008 3.85278 33.8008ZM34.2432 30.8599C34.2432 32.4841 32.9265 33.8008 31.3022 33.8008C29.678 33.8008 28.3613 32.4841 28.3613 30.8599C28.3613 29.2356 29.678 27.9189 31.3022 27.9189C32.9265 27.9189 34.2432 29.2356 34.2432 30.8599ZM86.2014 33.8008C87.8257 33.8008 89.1423 32.4841 89.1423 30.8599C89.1423 29.2356 87.8257 27.9187 86.2014 27.9187C84.5771 27.9187 83.2603 29.2356 83.2603 30.8599C83.2603 32.4841 84.5771 33.8008 86.2014 33.8008ZM116.556 31.3232C116.58 31.1724 116.592 31.0176 116.592 30.8599C116.592 29.2356 115.275 27.9187 113.651 27.9187C112.338 27.9187 111.226 28.7791 110.848 29.9666C110.752 30.2573 110.7 30.5676 110.7 30.8906C110.7 32.5149 112.017 33.8315 113.641 33.8315C114.954 33.8315 116.066 32.9717 116.444 31.7842C116.493 31.6353 116.531 31.4812 116.556 31.3232ZM58.7517 33.8008C60.376 33.8008 61.6929 32.4841 61.6929 30.8599C61.6929 29.2356 60.376 27.9189 58.7517 27.9189C57.1274 27.9189 55.8108 29.2356 55.8108 30.8599C55.8108 32.4841 57.1274 33.8008 58.7517 33.8008ZM6.7937 58.3093C6.7937 59.9338 5.47681 61.2505 3.85254 61.2505C2.22827 61.2505 0.911621 59.9338 0.911621 58.3093C0.911621 56.6851 2.22827 55.3684 3.85254 55.3684C5.47681 55.3684 6.7937 56.6851 6.7937 58.3093ZM31.3022 61.2505C32.9265 61.2505 34.2432 59.9336 34.2432 58.3093C34.2432 56.6851 32.9265 55.3684 31.3022 55.3684C29.678 55.3684 28.3613 56.6851 28.3613 58.3093C28.3613 59.9336 29.678 61.2505 31.3022 61.2505ZM89.1423 58.3093C89.1423 59.9336 87.8257 61.2505 86.2014 61.2505C84.5771 61.2505 83.2603 59.9336 83.2603 58.3093C83.2603 56.6851 84.5771 55.3684 86.2014 55.3684C87.8257 55.3684 89.1423 56.6851 89.1423 58.3093ZM116.444 59.2332C116.54 58.9426 116.592 58.6321 116.592 58.3093C116.592 56.6851 115.275 55.3684 113.651 55.3684C112.339 55.3684 111.228 56.2275 110.849 57.4138C110.752 57.7051 110.7 58.0164 110.7 58.3401C110.7 59.9646 112.017 61.2812 113.641 61.2812C114.954 61.2812 116.066 60.4211 116.444 59.2332ZM61.6929 58.3093C61.6929 59.9336 60.376 61.2505 58.7517 61.2505C57.1274 61.2505 55.8108 59.9336 55.8108 58.3093C55.8108 56.6851 57.1274 55.3684 58.7517 55.3684C60.376 55.3684 61.6929 56.6851 61.6929 58.3093ZM3.85278 88.7C5.47705 88.7 6.7937 87.3833 6.7937 85.759C6.7937 84.1348 5.47705 82.8179 3.85278 82.8179C2.22827 82.8179 0.911621 84.1348 0.911621 85.759C0.911621 87.3833 2.22827 88.7 3.85278 88.7ZM34.2432 85.759C34.2432 87.3833 32.9265 88.7 31.3022 88.7C29.678 88.7 28.3611 87.3833 28.3611 85.759C28.3611 84.1348 29.678 82.8179 31.3022 82.8179C32.9265 82.8179 34.2432 84.1348 34.2432 85.759ZM86.2014 88.7C87.8257 88.7 89.1423 87.3833 89.1423 85.759C89.1423 84.1348 87.8257 82.8179 86.2014 82.8179C84.5771 82.8179 83.2603 84.1348 83.2603 85.759C83.2603 87.3833 84.5771 88.7 86.2014 88.7ZM116.547 86.2751C116.576 86.1077 116.592 85.9351 116.592 85.759C116.592 84.1348 115.275 82.8179 113.651 82.8179C112.332 82.8179 111.216 83.686 110.843 84.8818C110.75 85.168 110.7 85.4729 110.7 85.7898C110.7 87.4141 112.017 88.7307 113.641 88.7307C114.961 88.7307 116.077 87.8621 116.449 86.6653C116.49 86.5388 116.523 86.4084 116.547 86.2751ZM58.7517 88.7C60.376 88.7 61.6929 87.3833 61.6929 85.759C61.6929 84.1348 60.376 82.8179 58.7517 82.8179C57.1274 82.8179 55.8108 84.1348 55.8108 85.759C55.8108 87.3833 57.1274 88.7 58.7517 88.7ZM6.7937 113.208C6.7937 114.833 5.47705 116.149 3.85278 116.149C2.22852 116.149 0.911621 114.833 0.911621 113.208C0.911621 111.584 2.22852 110.268 3.85278 110.268C5.47705 110.268 6.7937 111.584 6.7937 113.208ZM31.3022 116.15C32.9265 116.15 34.2432 114.833 34.2432 113.208C34.2432 111.584 32.9265 110.268 31.3022 110.268C29.678 110.268 28.3611 111.584 28.3611 113.208C28.3611 114.833 29.678 116.15 31.3022 116.15ZM89.1423 113.208C89.1423 114.833 87.8257 116.149 86.2014 116.149C84.5771 116.149 83.2603 114.833 83.2603 113.208C83.2603 111.584 84.5771 110.267 86.2014 110.267C87.8257 110.267 89.1423 111.584 89.1423 113.208ZM116.524 113.839C116.568 113.636 116.592 113.425 116.592 113.208C116.592 111.584 115.275 110.268 113.651 110.268C112.338 110.268 111.226 111.128 110.848 112.315C110.752 112.606 110.7 112.916 110.7 113.239C110.7 114.864 112.017 116.18 113.641 116.18C114.961 116.18 116.077 115.312 116.449 114.115C116.479 114.025 116.503 113.933 116.524 113.839ZM61.6929 113.208C61.6929 114.833 60.376 116.15 58.7517 116.15C57.1274 116.15 55.8108 114.833 55.8108 113.208C55.8108 111.584 57.1274 110.268 58.7517 110.268C60.376 110.268 61.6929 111.584 61.6929 113.208ZM17.9695 18.1155C18.7275 18.1155 19.342 17.501 19.342 16.7429C19.342 15.9849 18.7275 15.3704 17.9695 15.3704C17.2117 15.3704 16.5972 15.9849 16.5972 16.7429C16.5972 17.501 17.2117 18.1155 17.9695 18.1155ZM46.7915 16.7429C46.7915 17.501 46.177 18.1155 45.4192 18.1155C44.6611 18.1155 44.0466 17.501 44.0466 16.7429C44.0466 15.9849 44.6611 15.3706 45.4192 15.3706C46.177 15.3706 46.7915 15.9849 46.7915 16.7429ZM100.318 18.1155C101.076 18.1155 101.691 17.501 101.691 16.7429C101.691 15.9849 101.076 15.3704 100.318 15.3704C99.5603 15.3704 98.9458 15.9849 98.9458 16.7429C98.9458 17.501 99.5603 18.1155 100.318 18.1155ZM74.2412 16.7429C74.2412 17.501 73.6267 18.1155 72.8687 18.1155C72.1106 18.1155 71.4961 17.501 71.4961 16.7429C71.4961 15.9849 72.1106 15.3704 72.8687 15.3704C73.6267 15.3704 74.2412 15.9849 74.2412 16.7429ZM17.9695 45.5649C18.7275 45.5649 19.342 44.9504 19.342 44.1926C19.342 43.4346 18.7275 42.8201 17.9695 42.8201C17.2117 42.8201 16.5972 43.4346 16.5972 44.1926C16.5972 44.9504 17.2117 45.5649 17.9695 45.5649ZM46.7915 44.1924C46.7915 44.9504 46.1772 45.5649 45.4192 45.5649C44.6611 45.5649 44.0466 44.9504 44.0466 44.1924C44.0466 43.4346 44.6611 42.8201 45.4192 42.8201C46.1772 42.8201 46.7915 43.4346 46.7915 44.1924ZM100.318 45.5649C101.076 45.5649 101.691 44.9504 101.691 44.1924C101.691 43.4346 101.076 42.8201 100.318 42.8201C99.5603 42.8201 98.9458 43.4346 98.9458 44.1924C98.9458 44.9504 99.5603 45.5649 100.318 45.5649ZM74.2412 44.1926C74.2412 44.9504 73.6267 45.5649 72.8687 45.5649C72.1106 45.5649 71.4961 44.9504 71.4961 44.1926C71.4961 43.4346 72.1106 42.8201 72.8687 42.8201C73.6267 42.8201 74.2412 43.4346 74.2412 44.1926ZM17.9695 73.0146C18.7275 73.0146 19.342 72.4001 19.342 71.6421C19.342 70.884 18.7275 70.2695 17.9695 70.2695C17.2117 70.2695 16.5972 70.884 16.5972 71.6421C16.5972 72.4001 17.2117 73.0146 17.9695 73.0146ZM46.7915 71.6421C46.7915 72.4001 46.1772 73.0146 45.4192 73.0146C44.6611 73.0146 44.0466 72.4001 44.0466 71.6421C44.0466 70.884 44.6611 70.2695 45.4192 70.2695C46.1772 70.2695 46.7915 70.884 46.7915 71.6421ZM100.318 73.0146C101.076 73.0146 101.691 72.4001 101.691 71.6421C101.691 70.884 101.076 70.2695 100.318 70.2695C99.5603 70.2695 98.9458 70.884 98.9458 71.6421C98.9458 72.4001 99.5603 73.0146 100.318 73.0146ZM74.2412 71.6421C74.2412 72.4001 73.6267 73.0144 72.8687 73.0144C72.1106 73.0144 71.4961 72.4001 71.4961 71.6421C71.4961 70.884 72.1106 70.2695 72.8687 70.2695C73.6267 70.2695 74.2412 70.884 74.2412 71.6421ZM17.9695 100.464C18.7275 100.464 19.342 99.8496 19.342 99.0916C19.342 98.3335 18.7275 97.7192 17.9695 97.7192C17.2117 97.7192 16.5972 98.3335 16.5972 99.0916C16.5972 99.8496 17.2117 100.464 17.9695 100.464ZM46.7915 99.0916C46.7915 99.8496 46.177 100.464 45.4192 100.464C44.6611 100.464 44.0466 99.8496 44.0466 99.0916C44.0466 98.3337 44.6611 97.7192 45.4192 97.7192C46.177 97.7192 46.7915 98.3337 46.7915 99.0916ZM100.318 100.464C101.076 100.464 101.691 99.8496 101.691 99.0916C101.691 98.3335 101.076 97.719 100.318 97.719C99.5603 97.719 98.9458 98.3335 98.9458 99.0916C98.9458 99.8496 99.5603 100.464 100.318 100.464ZM74.2412 99.0916C74.2412 99.8496 73.6267 100.464 72.8687 100.464C72.1106 100.464 71.4961 99.8496 71.4961 99.0916C71.4961 98.3335 72.1106 97.7192 72.8687 97.7192C73.6267 97.7192 74.2412 98.3335 74.2412 99.0916ZM171.481 3.44092C171.481 5.06519 170.165 6.38208 168.54 6.38208C166.916 6.38208 165.599 5.06519 165.599 3.44092C165.599 1.81665 166.916 0.5 168.54 0.5C170.165 0.5 171.481 1.81665 171.481 3.44092ZM198.931 3.44116C198.931 5.06543 197.614 6.38208 195.99 6.38208C194.365 6.38208 193.049 5.06543 193.049 3.44116C193.049 1.81665 194.365 0.5 195.99 0.5C197.614 0.5 198.931 1.81665 198.931 3.44116ZM141.091 6.38208C142.715 6.38208 144.031 5.06543 144.031 3.44116C144.031 1.81689 142.715 0.5 141.091 0.5C139.466 0.5 138.149 1.81689 138.149 3.44116C138.149 5.06543 139.466 6.38208 141.091 6.38208ZM223.439 6.38208C224.657 6.38208 225.702 5.6416 226.149 4.58594C226.298 4.23389 226.382 3.84741 226.382 3.44116C226.382 3.15698 226.34 2.88306 226.265 2.62305C225.964 1.58252 225.104 0.779297 224.032 0.559814C223.841 0.520996 223.644 0.5 223.441 0.5H223.439C221.815 0.5 220.498 1.81689 220.498 3.44116C220.498 5.06543 221.815 6.38208 223.439 6.38208ZM144.031 30.8906C144.031 32.5149 142.715 33.8315 141.091 33.8315C139.466 33.8315 138.15 32.5149 138.15 30.8906C138.15 29.2664 139.466 27.9497 141.091 27.9497C142.715 27.9497 144.031 29.2664 144.031 30.8906ZM195.99 33.8315C197.614 33.8315 198.931 32.5149 198.931 30.8906C198.931 29.2664 197.614 27.9495 195.99 27.9495C194.365 27.9495 193.049 29.2664 193.049 30.8906C193.049 32.5149 194.365 33.8315 195.99 33.8315ZM226.38 30.8906C226.38 32.4133 225.223 33.6658 223.74 33.8164C223.641 33.8264 223.541 33.8315 223.439 33.8315C221.815 33.8315 220.498 32.5149 220.498 30.8906C220.498 29.2664 221.815 27.9495 223.439 27.9495C225.063 27.9495 226.38 29.2664 226.38 30.8906ZM168.54 33.8315C170.164 33.8315 171.481 32.5149 171.481 30.8906C171.481 29.2664 170.164 27.9497 168.54 27.9497C166.916 27.9497 165.599 29.2664 165.599 30.8906C165.599 32.5149 166.916 33.8315 168.54 33.8315ZM141.091 61.2812C142.715 61.2812 144.031 59.9644 144.031 58.3401C144.031 56.7158 142.715 55.3992 141.091 55.3992C139.466 55.3992 138.15 56.7158 138.15 58.3401C138.15 59.9644 139.466 61.2812 141.091 61.2812ZM198.931 58.3401C198.931 59.9644 197.614 61.2812 195.99 61.2812C194.365 61.2812 193.049 59.9644 193.049 58.3401C193.049 56.7158 194.365 55.3992 195.99 55.3992C197.614 55.3992 198.931 56.7158 198.931 58.3401ZM223.439 61.2812C225.063 61.2812 226.38 59.9644 226.38 58.3401C226.38 56.8174 225.223 55.5649 223.74 55.4143C223.641 55.4043 223.541 55.3992 223.439 55.3992C221.815 55.3992 220.498 56.7158 220.498 58.3401C220.498 59.9644 221.815 61.2812 223.439 61.2812ZM171.481 58.3401C171.481 59.9644 170.164 61.2812 168.54 61.2812C166.916 61.2812 165.599 59.9644 165.599 58.3401C165.599 56.7158 166.916 55.3992 168.54 55.3992C170.164 55.3992 171.481 56.7158 171.481 58.3401ZM144.031 85.7898C144.031 87.4141 142.715 88.7307 141.091 88.7307C139.466 88.7307 138.149 87.4141 138.149 85.7898C138.149 84.1655 139.466 82.8486 141.091 82.8486C142.715 82.8486 144.031 84.1655 144.031 85.7898ZM195.99 88.7307C197.614 88.7307 198.931 87.4141 198.931 85.7898C198.931 84.1655 197.614 82.8486 195.99 82.8486C194.365 82.8486 193.049 84.1655 193.049 85.7898C193.049 87.4141 194.365 88.7307 195.99 88.7307ZM226.301 85.1069C226.263 84.9475 226.212 84.7932 226.149 84.645C225.702 83.5894 224.657 82.8486 223.439 82.8486C222.131 82.8486 221.021 83.7034 220.64 84.885C220.548 85.1699 220.498 85.4741 220.498 85.7898C220.498 86.1958 220.58 86.5828 220.729 86.9346C221.176 87.9902 222.221 88.7307 223.439 88.7307C223.642 88.7307 223.841 88.71 224.032 88.6709C225.032 88.4663 225.847 87.7544 226.196 86.8157C226.315 86.4961 226.382 86.1509 226.382 85.7898C226.382 85.5547 226.354 85.3259 226.301 85.1069ZM168.54 88.7307C170.164 88.7307 171.481 87.4141 171.481 85.7898C171.481 84.1655 170.164 82.8486 168.54 82.8486C166.916 82.8486 165.599 84.1655 165.599 85.7898C165.599 87.4141 166.916 88.7307 168.54 88.7307ZM141.091 116.18C142.715 116.18 144.031 114.864 144.031 113.239C144.031 111.615 142.715 110.298 141.091 110.298C139.466 110.298 138.149 111.615 138.149 113.239C138.149 114.864 139.466 116.18 141.091 116.18ZM198.931 113.239C198.931 114.864 197.614 116.18 195.99 116.18C194.365 116.18 193.049 114.864 193.049 113.239C193.049 111.615 194.365 110.298 195.99 110.298C197.614 110.298 198.931 111.615 198.931 113.239ZM223.439 116.18C224.657 116.18 225.702 115.44 226.149 114.384C226.298 114.032 226.382 113.646 226.382 113.239C226.382 112.948 226.338 112.667 226.259 112.402C225.953 111.371 225.098 110.576 224.032 110.358C223.935 110.338 223.836 110.323 223.736 110.313C223.638 110.303 223.539 110.298 223.439 110.298C221.815 110.298 220.498 111.615 220.498 113.239C220.498 114.864 221.815 116.18 223.439 116.18ZM171.481 113.239C171.481 114.864 170.164 116.18 168.54 116.18C166.916 116.18 165.599 114.864 165.599 113.239C165.599 111.615 166.916 110.298 168.54 110.298C170.164 110.298 171.481 111.615 171.481 113.239ZM127.758 18.1462C128.516 18.1462 129.13 17.5317 129.13 16.7737C129.13 16.0156 128.516 15.4011 127.758 15.4011C127 15.4011 126.385 16.0156 126.385 16.7737C126.385 17.5317 127 18.1462 127.758 18.1462ZM156.58 16.7737C156.58 17.5317 155.965 18.1462 155.208 18.1462C154.449 18.1462 153.835 17.5317 153.835 16.7737C153.835 16.0156 154.449 15.4014 155.208 15.4014C155.965 15.4014 156.58 16.0156 156.58 16.7737ZM210.107 18.1462C210.865 18.1462 211.479 17.5317 211.479 16.7737C211.479 16.0156 210.865 15.4011 210.107 15.4011C209.349 15.4011 208.734 16.0156 208.734 16.7737C208.734 17.5317 209.349 18.1462 210.107 18.1462ZM184.03 16.7737C184.03 17.5317 183.415 18.1462 182.657 18.1462C181.899 18.1462 181.284 17.5317 181.284 16.7737C181.284 16.0156 181.899 15.4011 182.657 15.4011C183.415 15.4011 184.03 16.0156 184.03 16.7737ZM127.758 45.5957C128.516 45.5957 129.13 44.9812 129.13 44.2234C129.13 43.4653 128.516 42.8508 127.758 42.8508C127 42.8508 126.385 43.4653 126.385 44.2234C126.385 44.9812 127 45.5957 127.758 45.5957ZM156.58 44.2231C156.58 44.9812 155.966 45.5957 155.208 45.5957C154.449 45.5957 153.835 44.9812 153.835 44.2231C153.835 43.4653 154.449 42.8508 155.208 42.8508C155.966 42.8508 156.58 43.4653 156.58 44.2231ZM210.106 45.5957C210.865 45.5957 211.479 44.9812 211.479 44.2231C211.479 43.4653 210.865 42.8508 210.106 42.8508C209.349 42.8508 208.734 43.4653 208.734 44.2231C208.734 44.9812 209.349 45.5957 210.106 45.5957ZM184.03 44.2234C184.03 44.9812 183.415 45.5957 182.657 45.5957C181.899 45.5957 181.284 44.9812 181.284 44.2234C181.284 43.4653 181.899 42.8508 182.657 42.8508C183.415 42.8508 184.03 43.4653 184.03 44.2234ZM127.758 73.0454C128.516 73.0454 129.13 72.4309 129.13 71.6729C129.13 70.9148 128.516 70.3003 127.758 70.3003C127 70.3003 126.385 70.9148 126.385 71.6729C126.385 72.4309 127 73.0454 127.758 73.0454ZM156.58 71.6729C156.58 72.4309 155.966 73.0454 155.208 73.0454C154.449 73.0454 153.835 72.4309 153.835 71.6729C153.835 70.9148 154.449 70.3003 155.208 70.3003C155.966 70.3003 156.58 70.9148 156.58 71.6729ZM210.106 73.0454C210.865 73.0454 211.479 72.4309 211.479 71.6729C211.479 70.9148 210.865 70.3003 210.106 70.3003C209.349 70.3003 208.734 70.9148 208.734 71.6729C208.734 72.4309 209.349 73.0454 210.106 73.0454ZM184.03 71.6729C184.03 72.4309 183.415 73.0452 182.657 73.0452C181.899 73.0452 181.284 72.4309 181.284 71.6729C181.284 70.9148 181.899 70.3003 182.657 70.3003C183.415 70.3003 184.03 70.9148 184.03 71.6729ZM127.758 100.495C128.516 100.495 129.13 99.8804 129.13 99.1223C129.13 98.3643 128.516 97.75 127.758 97.75C127 97.75 126.385 98.3643 126.385 99.1223C126.385 99.8804 127 100.495 127.758 100.495ZM156.58 99.1223C156.58 99.8804 155.965 100.495 155.208 100.495C154.449 100.495 153.835 99.8804 153.835 99.1223C153.835 98.3645 154.449 97.75 155.208 97.75C155.965 97.75 156.58 98.3645 156.58 99.1223ZM210.106 100.495C210.865 100.495 211.479 99.8804 211.479 99.1223C211.479 98.3643 210.865 97.7498 210.106 97.7498C209.349 97.7498 208.734 98.3643 208.734 99.1223C208.734 99.8804 209.349 100.495 210.106 100.495ZM184.03 99.1223C184.03 99.8804 183.415 100.495 182.657 100.495C181.899 100.495 181.284 99.8804 181.284 99.1223C181.284 98.3643 181.899 97.75 182.657 97.75C183.415 97.75 184.03 98.3643 184.03 99.1223ZM278.34 6.38208C279.965 6.38208 281.281 5.06519 281.281 3.44092C281.281 1.81665 279.965 0.5 278.34 0.5C276.716 0.5 275.399 1.81665 275.399 3.44092C275.399 5.06519 276.716 6.38208 278.34 6.38208ZM305.79 6.38208C307.414 6.38208 308.731 5.06543 308.731 3.44116C308.731 1.81665 307.414 0.5 305.79 0.5C304.166 0.5 302.849 1.81665 302.849 3.44116C302.849 5.06543 304.166 6.38208 305.79 6.38208ZM253.832 3.44116C253.832 5.06543 252.515 6.38208 250.891 6.38208C249.266 6.38208 247.949 5.06543 247.949 3.44116C247.949 1.81689 249.266 0.5 250.891 0.5C252.515 0.5 253.832 1.81689 253.832 3.44116ZM336.038 4.34741C336.13 4.06201 336.18 3.75732 336.18 3.44116C336.18 1.81689 334.864 0.5 333.239 0.5C331.927 0.5 330.815 1.36035 330.437 2.54785C330.34 2.83862 330.288 3.14893 330.288 3.47192C330.288 5.09619 331.605 6.41284 333.229 6.41284C334.549 6.41284 335.665 5.54419 336.038 4.34741ZM250.891 33.8315C252.515 33.8315 253.832 32.5149 253.832 30.8906C253.832 29.2664 252.515 27.9497 250.891 27.9497C249.266 27.9497 247.95 29.2664 247.95 30.8906C247.95 32.5149 249.266 33.8315 250.891 33.8315ZM308.731 30.8906C308.731 32.5149 307.414 33.8315 305.79 33.8315C304.166 33.8315 302.849 32.5149 302.849 30.8906C302.849 29.2664 304.166 27.9495 305.79 27.9495C307.414 27.9495 308.731 29.2664 308.731 30.8906ZM336.032 31.8149C336.128 31.5242 336.18 31.2136 336.18 30.8906C336.18 29.2664 334.864 27.9495 333.239 27.9495C331.927 27.9495 330.815 28.8098 330.437 29.9973C330.34 30.2881 330.288 30.5984 330.288 30.9214C330.288 32.5457 331.605 33.8623 333.229 33.8623C334.542 33.8623 335.654 33.0024 336.032 31.8149ZM281.281 30.8906C281.281 32.5149 279.964 33.8315 278.34 33.8315C276.716 33.8315 275.399 32.5149 275.399 30.8906C275.399 29.2664 276.716 27.9497 278.34 27.9497C279.964 27.9497 281.281 29.2664 281.281 30.8906ZM253.832 58.3401C253.832 59.9644 252.515 61.2812 250.891 61.2812C249.266 61.2812 247.95 59.9644 247.95 58.3401C247.95 56.7158 249.266 55.3992 250.891 55.3992C252.515 55.3992 253.832 56.7158 253.832 58.3401ZM305.79 61.2812C307.414 61.2812 308.731 59.9644 308.731 58.3401C308.731 56.7158 307.414 55.3992 305.79 55.3992C304.166 55.3992 302.849 56.7158 302.849 58.3401C302.849 59.9644 304.166 61.2812 305.79 61.2812ZM336.032 59.2639C336.129 58.9734 336.18 58.6628 336.18 58.3401C336.18 56.7158 334.864 55.3992 333.239 55.3992C331.927 55.3992 330.816 56.2583 330.437 57.4446C330.341 57.7358 330.288 58.0471 330.288 58.3708C330.288 59.9954 331.605 61.312 333.229 61.312C334.542 61.312 335.655 60.4519 336.032 59.2639ZM278.34 61.2812C279.964 61.2812 281.281 59.9644 281.281 58.3401C281.281 56.7158 279.964 55.3992 278.34 55.3992C276.716 55.3992 275.399 56.7158 275.399 58.3401C275.399 59.9644 276.716 61.2812 278.34 61.2812ZM250.891 88.7307C252.515 88.7307 253.832 87.4141 253.832 85.7898C253.832 84.1655 252.515 82.8486 250.891 82.8486C249.266 82.8486 247.949 84.1655 247.949 85.7898C247.949 87.4141 249.266 88.7307 250.891 88.7307ZM308.731 85.7898C308.731 87.4141 307.414 88.7307 305.79 88.7307C304.166 88.7307 302.849 87.4141 302.849 85.7898C302.849 84.1655 304.166 82.8486 305.79 82.8486C307.414 82.8486 308.731 84.1655 308.731 85.7898ZM336.038 86.696C336.13 86.4106 336.18 86.106 336.18 85.7898C336.18 84.1655 334.864 82.8486 333.239 82.8486C331.92 82.8486 330.804 83.7168 330.431 84.9126C330.338 85.1987 330.288 85.5037 330.288 85.8206C330.288 87.4448 331.605 88.7615 333.229 88.7615C334.549 88.7615 335.665 87.8928 336.038 86.696ZM281.281 85.7898C281.281 87.4141 279.964 88.7307 278.34 88.7307C276.716 88.7307 275.399 87.4141 275.399 85.7898C275.399 84.1655 276.716 82.8486 278.34 82.8486C279.964 82.8486 281.281 84.1655 281.281 85.7898ZM253.832 113.239C253.832 114.864 252.515 116.18 250.891 116.18C249.266 116.18 247.949 114.864 247.949 113.239C247.949 111.615 249.266 110.298 250.891 110.298C252.515 110.298 253.832 111.615 253.832 113.239ZM305.79 116.18C307.414 116.18 308.731 114.864 308.731 113.239C308.731 111.615 307.414 110.298 305.79 110.298C304.166 110.298 302.849 111.615 302.849 113.239C302.849 114.864 304.166 116.18 305.79 116.18ZM336.038 114.146C336.13 113.86 336.18 113.555 336.18 113.239C336.18 111.615 334.864 110.298 333.239 110.298C331.927 110.298 330.815 111.159 330.437 112.346C330.34 112.637 330.288 112.947 330.288 113.27C330.288 114.894 331.605 116.211 333.229 116.211C334.549 116.211 335.665 115.342 336.038 114.146ZM278.34 116.18C279.964 116.18 281.281 114.864 281.281 113.239C281.281 111.615 279.964 110.298 278.34 110.298C276.716 110.298 275.399 111.615 275.399 113.239C275.399 114.864 276.716 116.18 278.34 116.18ZM238.93 16.7737C238.93 17.5317 238.316 18.1462 237.558 18.1462C236.8 18.1462 236.186 17.5317 236.186 16.7737C236.186 16.0156 236.8 15.4011 237.558 15.4011C238.316 15.4011 238.93 16.0156 238.93 16.7737ZM265.008 18.1462C265.765 18.1462 266.38 17.5317 266.38 16.7737C266.38 16.0156 265.765 15.4014 265.008 15.4014C264.25 15.4014 263.635 16.0156 263.635 16.7737C263.635 17.5317 264.25 18.1462 265.008 18.1462ZM321.279 16.7737C321.279 17.5317 320.665 18.1462 319.907 18.1462C319.149 18.1462 318.534 17.5317 318.534 16.7737C318.534 16.0156 319.149 15.4011 319.907 15.4011C320.665 15.4011 321.279 16.0156 321.279 16.7737ZM292.457 18.1462C293.215 18.1462 293.83 17.5317 293.83 16.7737C293.83 16.0156 293.215 15.4011 292.457 15.4011C291.699 15.4011 291.084 16.0156 291.084 16.7737C291.084 17.5317 291.699 18.1462 292.457 18.1462ZM238.93 44.2234C238.93 44.9812 238.316 45.5957 237.558 45.5957C236.8 45.5957 236.186 44.9812 236.186 44.2234C236.186 43.4653 236.8 42.8508 237.558 42.8508C238.316 42.8508 238.93 43.4653 238.93 44.2234ZM265.008 45.5957C265.766 45.5957 266.38 44.9812 266.38 44.2231C266.38 43.4653 265.766 42.8508 265.008 42.8508C264.25 42.8508 263.635 43.4653 263.635 44.2231C263.635 44.9812 264.25 45.5957 265.008 45.5957ZM321.279 44.2231C321.279 44.9812 320.665 45.5957 319.906 45.5957C319.149 45.5957 318.534 44.9812 318.534 44.2231C318.534 43.4653 319.149 42.8508 319.906 42.8508C320.665 42.8508 321.279 43.4653 321.279 44.2231ZM292.457 45.5957C293.215 45.5957 293.83 44.9812 293.83 44.2234C293.83 43.4653 293.215 42.8508 292.457 42.8508C291.699 42.8508 291.084 43.4653 291.084 44.2234C291.084 44.9812 291.699 45.5957 292.457 45.5957ZM238.93 71.6729C238.93 72.4309 238.316 73.0454 237.558 73.0454C236.8 73.0454 236.186 72.4309 236.186 71.6729C236.186 70.9148 236.8 70.3003 237.558 70.3003C238.316 70.3003 238.93 70.9148 238.93 71.6729ZM265.008 73.0454C265.766 73.0454 266.38 72.4309 266.38 71.6729C266.38 70.9148 265.766 70.3003 265.008 70.3003C264.25 70.3003 263.635 70.9148 263.635 71.6729C263.635 72.4309 264.25 73.0454 265.008 73.0454ZM321.279 71.6729C321.279 72.4309 320.665 73.0454 319.906 73.0454C319.149 73.0454 318.534 72.4309 318.534 71.6729C318.534 70.9148 319.149 70.3003 319.906 70.3003C320.665 70.3003 321.279 70.9148 321.279 71.6729ZM292.457 73.0452C293.215 73.0452 293.83 72.4309 293.83 71.6729C293.83 70.9148 293.215 70.3003 292.457 70.3003C291.699 70.3003 291.084 70.9148 291.084 71.6729C291.084 72.4309 291.699 73.0452 292.457 73.0452ZM238.93 99.1223C238.93 99.8804 238.316 100.495 237.558 100.495C236.8 100.495 236.186 99.8804 236.186 99.1223C236.186 98.3643 236.8 97.75 237.558 97.75C238.316 97.75 238.93 98.3643 238.93 99.1223ZM265.008 100.495C265.765 100.495 266.38 99.8804 266.38 99.1223C266.38 98.3645 265.765 97.75 265.008 97.75C264.25 97.75 263.635 98.3645 263.635 99.1223C263.635 99.8804 264.25 100.495 265.008 100.495ZM321.279 99.1223C321.279 99.8804 320.665 100.495 319.906 100.495C319.149 100.495 318.534 99.8804 318.534 99.1223C318.534 98.3643 319.149 97.7498 319.906 97.7498C320.665 97.7498 321.279 98.3643 321.279 99.1223ZM292.457 100.495C293.215 100.495 293.83 99.8804 293.83 99.1223C293.83 98.3643 293.215 97.75 292.457 97.75C291.699 97.75 291.084 98.3643 291.084 99.1223C291.084 99.8804 291.699 100.495 292.457 100.495ZM391.07 3.47168C391.07 5.09595 389.753 6.41284 388.128 6.41284C386.504 6.41284 385.188 5.09595 385.188 3.47168C385.188 1.84741 386.504 0.530762 388.128 0.530762C389.753 0.530762 391.07 1.84741 391.07 3.47168ZM418.519 3.47192C418.519 5.09619 417.202 6.41284 415.578 6.41284C413.954 6.41284 412.637 5.09619 412.637 3.47192C412.637 1.84741 413.954 0.530762 415.578 0.530762C417.202 0.530762 418.519 1.84741 418.519 3.47192ZM360.679 6.41284C362.303 6.41284 363.62 5.09619 363.62 3.47192C363.62 1.84766 362.303 0.530762 360.679 0.530762C359.055 0.530762 357.738 1.84766 357.738 3.47192C357.738 5.09619 359.055 6.41284 360.679 6.41284ZM443.028 6.41284C444.652 6.41284 445.969 5.09619 445.969 3.47192C445.969 1.84766 444.652 0.530762 443.028 0.530762C441.403 0.530762 440.087 1.84766 440.087 3.47192C440.087 5.09619 441.403 6.41284 443.028 6.41284ZM363.62 30.9214C363.62 32.5457 362.303 33.8623 360.679 33.8623C359.055 33.8623 357.738 32.5457 357.738 30.9214C357.738 29.2971 359.055 27.9805 360.679 27.9805C362.303 27.9805 363.62 29.2971 363.62 30.9214ZM415.578 33.8623C417.202 33.8623 418.519 32.5457 418.519 30.9214C418.519 29.2971 417.202 27.9802 415.578 27.9802C413.954 27.9802 412.637 29.2971 412.637 30.9214C412.637 32.5457 413.954 33.8623 415.578 33.8623ZM445.969 30.9214C445.969 32.5457 444.652 33.8623 443.028 33.8623C441.403 33.8623 440.087 32.5457 440.087 30.9214C440.087 29.2971 441.403 27.9802 443.028 27.9802C444.652 27.9802 445.969 29.2971 445.969 30.9214ZM388.128 33.8623C389.753 33.8623 391.07 32.5457 391.07 30.9214C391.07 29.2971 389.753 27.9805 388.128 27.9805C386.504 27.9805 385.188 29.2971 385.188 30.9214C385.188 32.5457 386.504 33.8623 388.128 33.8623ZM360.679 61.312C362.303 61.312 363.62 59.9951 363.62 58.3708C363.62 56.7466 362.303 55.4299 360.679 55.4299C359.055 55.4299 357.738 56.7466 357.738 58.3708C357.738 59.9951 359.055 61.312 360.679 61.312ZM418.519 58.3708C418.519 59.9951 417.202 61.312 415.578 61.312C413.954 61.312 412.637 59.9951 412.637 58.3708C412.637 56.7466 413.954 55.4299 415.578 55.4299C417.202 55.4299 418.519 56.7466 418.519 58.3708ZM443.028 61.312C444.652 61.312 445.969 59.9951 445.969 58.3708C445.969 56.7466 444.652 55.4299 443.028 55.4299C441.403 55.4299 440.087 56.7466 440.087 58.3708C440.087 59.9951 441.403 61.312 443.028 61.312ZM391.07 58.3708C391.07 59.9951 389.753 61.312 388.128 61.312C386.504 61.312 385.188 59.9951 385.188 58.3708C385.188 56.7466 386.504 55.4299 388.128 55.4299C389.753 55.4299 391.07 56.7466 391.07 58.3708ZM363.62 85.8206C363.62 87.4448 362.303 88.7615 360.679 88.7615C359.055 88.7615 357.738 87.4448 357.738 85.8206C357.738 84.1963 359.055 82.8794 360.679 82.8794C362.303 82.8794 363.62 84.1963 363.62 85.8206ZM415.578 88.7615C417.202 88.7615 418.519 87.4448 418.519 85.8206C418.519 84.1963 417.202 82.8794 415.578 82.8794C413.954 82.8794 412.637 84.1963 412.637 85.8206C412.637 87.4448 413.954 88.7615 415.578 88.7615ZM445.969 85.8206C445.969 87.4448 444.652 88.7615 443.028 88.7615C441.403 88.7615 440.086 87.4448 440.086 85.8206C440.086 84.1963 441.403 82.8794 443.028 82.8794C444.652 82.8794 445.969 84.1963 445.969 85.8206ZM388.128 88.7615C389.753 88.7615 391.07 87.4448 391.07 85.8206C391.07 84.1963 389.753 82.8794 388.128 82.8794C386.504 82.8794 385.188 84.1963 385.188 85.8206C385.188 87.4448 386.504 88.7615 388.128 88.7615ZM360.679 116.211C362.303 116.211 363.62 114.894 363.62 113.27C363.62 111.646 362.303 110.329 360.679 110.329C359.055 110.329 357.738 111.646 357.738 113.27C357.738 114.894 359.055 116.211 360.679 116.211ZM418.519 113.27C418.519 114.894 417.202 116.211 415.578 116.211C413.954 116.211 412.637 114.894 412.637 113.27C412.637 111.646 413.954 110.329 415.578 110.329C417.202 110.329 418.519 111.646 418.519 113.27ZM443.028 116.211C444.652 116.211 445.969 114.894 445.969 113.27C445.969 111.646 444.652 110.329 443.028 110.329C441.403 110.329 440.087 111.646 440.087 113.27C440.087 114.894 441.403 116.211 443.028 116.211ZM391.07 113.27C391.07 114.894 389.753 116.211 388.128 116.211C386.504 116.211 385.188 114.894 385.188 113.27C385.188 111.646 386.504 110.329 388.128 110.329C389.753 110.329 391.07 111.646 391.07 113.27ZM347.346 18.177C348.104 18.177 348.719 17.5625 348.719 16.8044C348.719 16.0464 348.104 15.4319 347.346 15.4319C346.588 15.4319 345.974 16.0464 345.974 16.8044C345.974 17.5625 346.588 18.177 347.346 18.177ZM376.168 16.8044C376.168 17.5625 375.554 18.177 374.796 18.177C374.038 18.177 373.423 17.5625 373.423 16.8044C373.423 16.0464 374.038 15.4321 374.796 15.4321C375.554 15.4321 376.168 16.0464 376.168 16.8044ZM429.695 18.177C430.453 18.177 431.067 17.5625 431.067 16.8044C431.067 16.0464 430.453 15.4319 429.695 15.4319C428.937 15.4319 428.323 16.0464 428.323 16.8044C428.323 17.5625 428.937 18.177 429.695 18.177ZM403.618 16.8044C403.618 17.5625 403.003 18.177 402.245 18.177C401.487 18.177 400.873 17.5625 400.873 16.8044C400.873 16.0464 401.487 15.4319 402.245 15.4319C403.003 15.4319 403.618 16.0464 403.618 16.8044ZM347.346 45.6265C348.104 45.6265 348.719 45.012 348.719 44.2542C348.719 43.4961 348.104 42.8816 347.346 42.8816C346.588 42.8816 345.974 43.4961 345.974 44.2542C345.974 45.012 346.588 45.6265 347.346 45.6265ZM376.168 44.2539C376.168 45.012 375.554 45.6265 374.796 45.6265C374.038 45.6265 373.423 45.012 373.423 44.2539C373.423 43.4961 374.038 42.8816 374.796 42.8816C375.554 42.8816 376.168 43.4961 376.168 44.2539ZM429.695 45.6265C430.453 45.6265 431.067 45.012 431.067 44.2539C431.067 43.4961 430.453 42.8816 429.695 42.8816C428.937 42.8816 428.323 43.4961 428.323 44.2539C428.323 45.012 428.937 45.6265 429.695 45.6265ZM403.618 44.2542C403.618 45.012 403.003 45.6265 402.245 45.6265C401.487 45.6265 400.873 45.012 400.873 44.2542C400.873 43.4961 401.487 42.8816 402.245 42.8816C403.003 42.8816 403.618 43.4961 403.618 44.2542ZM347.346 73.0762C348.104 73.0762 348.719 72.4617 348.719 71.7036C348.719 70.9456 348.104 70.3311 347.346 70.3311C346.588 70.3311 345.974 70.9456 345.974 71.7036C345.974 72.4617 346.588 73.0762 347.346 73.0762ZM376.168 71.7036C376.168 72.4617 375.554 73.0762 374.796 73.0762C374.038 73.0762 373.423 72.4617 373.423 71.7036C373.423 70.9456 374.038 70.3311 374.796 70.3311C375.554 70.3311 376.168 70.9456 376.168 71.7036ZM429.695 73.0762C430.453 73.0762 431.067 72.4617 431.067 71.7036C431.067 70.9456 430.453 70.3311 429.695 70.3311C428.937 70.3311 428.323 70.9456 428.323 71.7036C428.323 72.4617 428.937 73.0762 429.695 73.0762ZM403.618 71.7036C403.618 72.4617 403.003 73.0759 402.245 73.0759C401.487 73.0759 400.873 72.4617 400.873 71.7036C400.873 70.9456 401.487 70.3311 402.245 70.3311C403.003 70.3311 403.618 70.9456 403.618 71.7036ZM347.346 100.526C348.104 100.526 348.719 99.9111 348.719 99.1531C348.719 98.395 348.104 97.7808 347.346 97.7808C346.588 97.7808 345.974 98.395 345.974 99.1531C345.974 99.9111 346.588 100.526 347.346 100.526ZM376.168 99.1531C376.168 99.9111 375.554 100.526 374.796 100.526C374.038 100.526 373.423 99.9111 373.423 99.1531C373.423 98.3953 374.038 97.7808 374.796 97.7808C375.554 97.7808 376.168 98.3953 376.168 99.1531ZM429.695 100.526C430.453 100.526 431.067 99.9111 431.067 99.1531C431.067 98.395 430.453 97.7805 429.695 97.7805C428.937 97.7805 428.323 98.395 428.323 99.1531C428.323 99.9111 428.937 100.526 429.695 100.526ZM403.618 99.1531C403.618 99.9111 403.003 100.526 402.245 100.526C401.487 100.526 400.873 99.9111 400.873 99.1531C400.873 98.395 401.487 97.7808 402.245 97.7808C403.003 97.7808 403.618 98.395 403.618 99.1531Z" fill="url(#paint0_linear_456_3061)"/>
<defs>
<linearGradient id="paint0_linear_456_3061" x1="1" y1="116" x2="446.377" y2="0.658195" gradientUnits="userSpaceOnUse">
<stop stop-color="#884D05"/>
<stop offset="1" stop-color="#DE922F"/>
</linearGradient>
</defs>
</svg>
